<svg width="356" height="134" viewBox="0 0 356 134" fill="none" xmlns="http://www.w3.org/2000/svg">
<path d="M51.572 124.888L51.9154 123.949L51.9099 123.947L51.572 124.888ZM61.058 84.1898L61.8992 84.7306L60.2711 83.5728L61.058 84.1898ZM10.721 122.746L11.4386 122.049L11.434 122.045L10.721 122.746ZM44.534 66.9008L43.8137 66.2072L43.8134 66.2075L44.534 66.9008ZM45.299 19.4708L45.8583 18.6418L45.8562 18.6404L45.299 19.4708ZM6.437 29.7218L5.55551 29.2496L5.55388 29.2526L6.437 29.7218ZM14.393 55.4258L13.7513 56.1928L13.7573 56.1977L14.393 55.4258ZM7.967 61.6988L7.12962 62.2454L7.13411 62.2523L7.13872 62.2591L7.967 61.6988ZM4.601 28.4978L3.67716 28.1149L3.67348 28.124L4.601 28.4978ZM52.031 8.3018L51.559 9.18342L51.5635 9.18579L52.031 8.3018ZM46.37 69.3488L47.0812 70.0518L47.0823 70.0507L46.37 69.3488ZM26.48 103.774L25.6929 104.391L25.6956 104.394L26.48 103.774ZM60.293 81.8948L59.5248 81.2546L60.293 81.8948ZM73.145 55.1198L74.0005 55.6376L74.0037 55.6323L73.145 55.1198ZM81.254 60.4748L80.4609 59.8658L80.4541 59.8745L80.4476 59.8834L81.254 60.4748ZM69.932 72.7148L69.2094 72.0236L69.1487 72.087L69.1 72.1601L69.932 72.7148ZM63.506 104.692L63.9036 103.774L63.8932 103.77L63.506 104.692ZM118.28 52.0598L119.014 52.7395L119.014 52.7394L118.28 52.0598ZM196.463 12.5858L196.273 13.5676L196.278 13.5685L196.463 12.5858ZM194.015 23.1428L194.314 22.1886L194.307 22.1864L194.015 23.1428ZM119.504 54.2018L120.245 54.8734L120.246 54.8723L119.504 54.2018ZM51.9099 123.947C49.2567 122.994 47.9137 121.269 47.4513 118.937C46.9708 116.512 47.4341 113.363 48.6579 109.673C51.0999 102.31 56.3891 93.3018 61.8992 84.7306L60.2168 83.649C54.7109 92.2138 49.2901 101.413 46.7596 109.044C45.4972 112.85 44.9086 116.395 45.4895 119.326C46.0886 122.348 47.9203 124.639 51.2341 125.829L51.9099 123.947ZM60.2711 83.5728C49.7053 97.048 39.7013 109.212 31.1012 116.714C26.793 120.471 22.9295 122.975 19.5996 123.937C17.9492 124.413 16.4651 124.501 15.1344 124.205C13.812 123.91 12.5782 123.223 11.4386 122.049L10.0034 123.442C11.3883 124.869 12.9611 125.77 14.6999 126.157C16.4304 126.542 18.2621 126.405 20.1546 125.858C23.9105 124.773 28.0412 122.037 32.4158 118.221C41.1812 110.575 51.2967 98.2597 61.8449 84.8068L60.2711 83.5728ZM11.434 122.045C9.44365 120.021 8.77802 117.498 9.35055 114.304C9.93356 111.051 11.7996 107.148 14.8619 102.549C20.9811 93.3613 31.6258 81.7589 45.2546 67.5941L43.8134 66.2075C30.2082 80.3477 19.4329 92.0778 13.1973 101.441C10.0823 106.118 8.03725 110.295 7.38192 113.951C6.71611 117.666 7.48485 120.881 10.008 123.447L11.434 122.045ZM45.2543 67.5944C55.3369 57.1241 58.8729 47.1385 58.1337 38.5672C57.3953 30.0062 52.4081 23.061 45.8583 18.6418L44.7397 20.2998C50.8889 24.4486 55.4642 30.8909 56.1411 38.7391C56.8171 46.5771 53.6211 56.0226 43.8137 66.2072L45.2543 67.5944ZM45.8562 18.6404C39.8372 14.6014 32.1492 12.8123 24.7574 14.2629C17.3383 15.7188 10.2822 20.4265 5.55552 29.2496L7.31848 30.194C11.7718 21.8811 18.3327 17.5618 25.1426 16.2255C31.9798 14.8838 39.1328 16.5372 44.7418 20.3012L45.8562 18.6404ZM5.55388 29.2526C2.80012 34.4362 2.92703 39.6 4.71974 44.2529C6.50062 48.8752 9.91666 52.9842 13.7513 56.1927L15.0347 54.6589C11.3723 51.5944 8.20938 47.7474 6.58601 43.5339C4.97447 39.3512 4.87188 34.7994 7.32012 30.191L5.55388 29.2526ZM13.7573 56.1977C14.8294 57.0806 15.1401 58.0287 15.0808 58.875C15.0184 59.7667 14.533 60.6799 13.7708 61.3859C13.0078 62.0928 12.057 62.5086 11.179 62.5157C10.35 62.5225 9.49303 62.1699 8.79528 61.1385L7.13872 62.2591C8.20047 63.8287 9.6768 64.528 11.1953 64.5156C12.665 64.5037 14.0761 63.8294 15.1299 62.8532C16.1846 61.8762 16.971 60.5136 17.0759 59.0146C17.1841 57.4702 16.5576 55.913 15.0287 54.6539L13.7573 56.1977ZM8.80438 61.1522C1.80531 50.4302 1.51027 38.8428 5.52852 28.8716L3.67348 28.124C-0.570274 38.6548 -0.253312 50.9354 7.12962 62.2454L8.80438 61.1522ZM5.52479 28.8807C14.9394 6.16603 36.9378 1.35589 51.559 9.18341L52.503 7.42018C36.8302 -0.970289 13.5406 4.31757 3.67721 28.1149L5.52479 28.8807ZM51.5635 9.18579C59.2836 13.2685 65.2795 20.4459 65.7008 30.3191C66.1238 40.2332 60.9406 53.1359 45.6577 68.647L47.0823 70.0507C62.5524 54.3497 68.1557 40.9364 67.699 30.2338C67.2405 19.4902 60.6904 11.7501 52.4985 7.4178L51.5635 9.18579ZM45.6588 68.6458C39.1289 75.2525 32.9915 82.5027 29.0358 88.8434C27.0613 92.0084 25.5966 94.9998 24.9193 97.6054C24.2482 100.187 24.298 102.611 25.6929 104.391L27.2671 103.157C26.4435 102.106 26.2447 100.456 26.855 98.1086C27.459 95.7847 28.8057 92.9908 30.7327 89.902C34.58 83.7349 40.6061 76.6031 47.0812 70.0518L45.6588 68.6458ZM25.6956 104.394C27.1889 106.283 29.1577 107.207 31.5293 107.099C33.8272 106.994 36.4202 105.925 39.2852 104.057C45.0222 100.317 52.2547 93.1028 61.0612 82.535L59.5248 81.2546C50.7363 91.8008 43.6633 98.8155 38.193 102.381C35.4544 104.167 33.2184 105.02 31.4379 105.101C29.731 105.179 28.3721 104.554 27.2644 103.154L25.6956 104.394ZM61.0612 82.535C64.2348 78.7267 66.6172 73.3478 68.6236 68.3031C69.6483 65.7268 70.5401 63.3275 71.4402 61.0978C72.33 58.8936 73.1656 57.0171 74.0005 55.6376L72.2895 54.602C71.3649 56.1296 70.4793 58.1354 69.5856 60.3491C68.7023 62.5373 67.7486 65.0914 66.7652 67.564C64.7553 72.6173 62.4712 77.7189 59.5248 81.2546L61.0612 82.535ZM74.0037 55.6323C75.3386 53.3955 76.8117 52.1891 78.0948 51.679C79.3687 51.1726 80.4669 51.3381 81.228 51.8545C82.6651 52.8297 83.5948 55.7843 80.4609 59.8658L82.0471 61.0838C85.4922 56.5973 85.1979 52.1314 82.351 50.1996C80.9701 49.2625 79.1613 49.1029 77.356 49.8205C75.5601 50.5344 73.7819 52.1011 72.2863 54.6073L74.0037 55.6323ZM80.4476 59.8834C79.6504 60.9705 77.71 63.1016 75.4965 65.4499C73.3 67.78 70.8994 70.2567 69.2094 72.0236L70.6546 73.406C72.3306 71.6539 74.7495 69.1581 76.9518 66.8217C79.137 64.5035 81.1746 62.2741 82.0604 61.0662L80.4476 59.8834ZM69.1 72.1601C64.6255 78.8718 61.042 86.1712 59.5513 92.2519C58.8075 95.2859 58.5628 98.1026 59.0568 100.42C59.5603 102.782 60.8467 104.66 63.1188 105.614L63.8932 103.77C62.3403 103.118 61.4082 101.858 61.0128 100.003C60.608 98.1039 60.784 95.623 61.4937 92.7282C62.91 86.9514 66.3645 79.8688 70.7641 73.2695L69.1 72.1601ZM63.1084 105.609C64.5456 106.232 66.1338 106.163 67.7728 105.635C69.4031 105.11 71.153 104.11 72.9984 102.762C76.689 100.068 80.9528 95.8399 85.6633 90.6985C90.3818 85.5484 95.5972 79.4269 101.185 72.9192C106.779 66.4052 112.755 59.4946 119.014 52.7395L117.546 51.3801C111.259 58.1655 105.263 65.1014 99.6682 71.6163C94.0683 78.1375 88.8797 84.2273 84.1887 89.3474C79.4897 94.4761 75.3385 98.5773 71.819 101.147C70.0593 102.432 68.5054 103.298 67.1593 103.731C65.822 104.162 64.7614 104.146 63.9036 103.774L63.1084 105.609ZM119.014 52.7394C142.131 27.7847 167.637 8.02037 196.273 13.5675L196.653 11.604C166.843 5.82922 140.635 26.4569 117.546 51.3802L119.014 52.7394ZM196.278 13.5685C198.747 14.0337 200.127 14.9935 200.807 15.9848C201.48 16.9641 201.566 18.1101 201.182 19.194C200.401 21.3941 197.692 23.2483 194.314 22.1887L193.716 24.0969C198.141 25.4853 201.934 23.0555 203.067 19.8624C203.638 18.2496 203.533 16.4217 202.456 14.8526C201.387 13.2954 199.458 12.1324 196.648 11.6031L196.278 13.5685ZM194.307 22.1864C164.637 13.1293 140.383 29.6106 118.762 53.5313L120.246 54.8723C141.771 31.057 165.253 15.4083 193.723 24.0992L194.307 22.1864ZM118.763 53.5302C103.903 69.9226 90.3971 88.9935 78.9652 103.145C73.2218 110.255 68.0137 116.112 63.3853 119.865C58.6958 123.668 54.9261 125.049 51.9154 123.949L51.2286 125.827C55.3324 127.327 59.9013 125.266 64.6451 121.419C69.4501 117.522 74.7703 111.521 80.521 104.402C92.0774 90.0961 105.423 71.223 120.245 54.8734L118.763 53.5302ZM100.24 123.052L100.713 122.171L100.708 122.168L100.24 123.052ZM117.529 81.1298L116.854 80.3926L116.852 80.3942L117.529 81.1298ZM148.741 79.4468L147.797 79.1164L149.541 80.0468L148.741 79.4468ZM151.495 75.7748L150.709 75.157L150.702 75.1658L150.695 75.1748L151.495 75.7748ZM154.861 77.7638L155.594 78.4449L155.598 78.4395L154.861 77.7638ZM139.102 95.6648L139.931 96.2247L139.935 96.2184L139.939 96.2121L139.102 95.6648ZM138.643 108.823L138.01 109.597L138.02 109.605L138.029 109.612L138.643 108.823ZM163.276 94.7468L162.495 94.1221L162.494 94.1241L163.276 94.7468ZM164.194 95.3588L164.989 95.9657L164.994 95.9588L164.194 95.3588ZM128.851 121.675L129.318 120.79L129.312 120.787L128.851 121.675ZM130.534 104.233L131.402 104.731L129.793 103.561L130.534 104.233ZM111.868 106.681L112.524 105.926L112.521 105.923L111.868 106.681ZM136.654 95.3588L135.947 94.6517L135.918 94.6811L135.891 94.7129L136.654 95.3588ZM137.725 94.1348L136.922 93.5396L136.907 93.5595L136.893 93.5801L137.725 94.1348ZM140.785 90.0038L141.589 90.599L141.673 90.485L141.723 90.352L140.785 90.0038ZM140.173 76.5398L139.551 77.3227L139.559 77.3292L140.173 76.5398ZM119.365 83.4248L118.627 82.7505L118.624 82.7535L119.365 83.4248ZM100.708 122.168C98.4129 120.955 97.3304 118.888 97.25 116.086C97.1679 113.225 98.1447 109.661 99.98 105.727C103.642 97.8761 110.553 88.913 118.207 81.8654L116.852 80.3942C109.053 87.5757 101.964 96.743 98.1675 104.881C96.2734 108.941 95.1559 112.835 95.2508 116.143C95.3473 119.508 96.7128 122.318 99.773 123.936L100.708 122.168ZM118.205 81.867C123.663 76.8635 129.443 72.902 134.61 70.9945C139.794 69.0809 144.081 69.3156 146.963 72.1979L148.377 70.7837C144.681 67.087 139.406 67.0922 133.917 69.1183C128.412 71.1506 122.411 75.2981 116.854 80.3926L118.205 81.867ZM146.963 72.1979C148.567 73.8018 148.805 76.2378 147.797 79.1164L149.685 79.7772C150.82 76.5358 150.752 73.1578 148.377 70.7837L146.963 72.1979ZM149.541 80.0468L152.295 76.3748L150.695 75.1748L147.941 78.8468L149.541 80.0468ZM152.282 76.3926C152.741 75.8082 153.401 75.8014 153.904 76.1212C154.157 76.2822 154.278 76.4761 154.31 76.6098C154.331 76.6979 154.341 76.8513 154.124 77.0881L155.598 78.4395C156.223 77.7583 156.444 76.9364 156.255 76.1447C156.076 75.3987 155.566 74.8084 154.977 74.4339C153.797 73.6827 151.933 73.5994 150.709 75.157L152.282 76.3926ZM154.129 77.0827C151.077 80.3636 147.776 83.8566 144.92 87.0195C142.075 90.1695 139.615 93.0542 138.265 95.1176L139.939 96.2121C141.191 94.2974 143.55 91.5211 146.404 88.3599C149.247 85.2115 152.526 81.743 155.594 78.4449L154.129 77.0827ZM138.274 95.1049C136.298 98.0291 135.24 100.815 135.177 103.308C135.112 105.844 136.08 108.017 138.01 109.597L139.277 108.049C137.841 106.874 137.126 105.299 137.176 103.36C137.227 101.378 138.082 98.9615 139.931 96.2247L138.274 95.1049ZM138.029 109.612C140.511 111.543 144.134 111.65 148.476 109.509C152.813 107.371 158.048 102.922 164.059 95.3695L162.494 94.1241C156.571 101.566 151.554 105.761 147.591 107.716C143.633 109.667 140.906 109.316 139.257 108.033L138.029 109.612ZM164.057 95.3715C164.097 95.3212 164.06 95.3934 163.915 95.4187C163.764 95.4451 163.611 95.3985 163.504 95.3104C163.29 95.1356 163.31 94.8718 163.394 94.7588L164.994 95.9588C165.538 95.2338 165.405 94.2815 164.77 93.7625C164.452 93.5023 164.023 93.3696 163.571 93.4485C163.124 93.5265 162.761 93.7899 162.495 94.1221L164.057 95.3715ZM163.4 94.7519C156.989 103.147 150.313 110.761 144.228 115.716C141.182 118.196 138.336 119.967 135.787 120.857C133.248 121.744 131.098 121.729 129.318 120.79L128.385 122.559C130.812 123.839 133.577 123.748 136.446 122.746C139.305 121.747 142.358 119.818 145.49 117.267C151.759 112.163 158.548 104.401 164.989 95.9657L163.4 94.7519ZM129.312 120.787C127.786 119.996 127.034 118.244 127.359 115.361C127.682 112.491 129.064 108.803 131.402 104.731L129.667 103.735C127.262 107.925 125.737 111.886 125.371 115.137C125.007 118.374 125.785 121.212 128.391 122.563L129.312 120.787ZM129.793 103.561C123.93 110.034 117.989 115.512 112.772 118.946C110.161 120.665 107.776 121.842 105.706 122.394C103.635 122.946 101.979 122.85 100.713 122.171L99.7675 123.933C101.638 124.937 103.865 124.955 106.221 124.326C108.578 123.698 111.165 122.398 113.872 120.617C119.288 117.051 125.358 111.437 131.275 104.904L129.793 103.561ZM111.213 107.436C114.586 110.365 119.192 109.817 123.735 107.536C128.314 105.237 133.159 101.038 137.418 96.0047L135.891 94.7129C131.735 99.6243 127.094 103.611 122.837 105.749C118.544 107.905 114.965 108.045 112.524 105.926L111.213 107.436ZM137.361 96.0659C137.813 95.6142 138.189 95.2427 138.557 94.6895L136.893 93.5801C136.65 93.9449 136.414 94.1854 135.947 94.6517L137.361 96.0659ZM138.529 94.73L141.589 90.599L139.982 89.4086L136.922 93.5396L138.529 94.73ZM141.723 90.352C142.752 87.5801 143.319 84.6227 143.258 82.0433C143.198 79.512 142.523 77.1001 140.787 75.7505L139.559 77.3292C140.578 78.1215 141.203 79.7641 141.258 82.0905C141.312 84.3689 140.807 87.0725 139.848 89.6556L141.723 90.352ZM140.796 75.757C137.448 73.096 133.446 73.1141 129.576 74.6336C125.731 76.1435 121.899 79.1665 118.627 82.7505L120.104 84.0991C123.257 80.6451 126.846 77.8541 130.307 76.4952C133.743 75.146 136.932 75.2407 139.551 77.3226L140.796 75.757ZM118.624 82.7535C114.878 86.8901 111.817 91.8609 110.255 96.3293C109.475 98.5614 109.049 100.722 109.136 102.619C109.223 104.524 109.835 106.248 111.215 107.438L112.521 105.923C111.683 105.201 111.205 104.075 111.134 102.528C111.063 100.973 111.412 99.0794 112.143 96.9893C113.603 92.8132 116.509 88.0685 120.107 84.0961L118.624 82.7535ZM180.121 121.522L180.73 120.729L180.729 120.728L180.121 121.522ZM190.678 93.9818L191.506 94.5424L191.51 94.5365L190.678 93.9818ZM193.432 80.0588L192.929 80.9232L192.94 80.9294L193.432 80.0588ZM156.253 119.38L155.291 119.105L155.29 119.109L156.253 119.38ZM149.062 117.697L149.913 118.221L149.062 117.697ZM162.832 95.6648L163.715 96.134L163.717 96.1296L162.832 95.6648ZM173.236 73.3268L172.297 72.9825L172.296 72.9862L173.236 73.3268ZM180.274 74.3978L181.1 74.9606L181.106 74.9529L181.111 74.9451L180.274 74.3978ZM165.433 96.7358L166.276 97.2727L166.279 97.2686L165.433 96.7358ZM159.007 108.211L159.358 107.274L159.34 107.268L159.323 107.262L159.007 108.211ZM203.836 69.8078L204.34 68.944L204.338 68.9429L203.836 69.8078ZM192.82 95.3588L191.992 94.798L191.991 94.7985L192.82 95.3588ZM190.831 108.211L191.479 107.45L191.473 107.445L191.468 107.44L190.831 108.211ZM216.994 94.5938L216.213 93.9691L216.211 93.9711L216.994 94.5938ZM217.912 95.2058L218.706 95.8127L218.712 95.8058L217.912 95.2058ZM180.729 120.728C179.225 119.576 178.679 118.124 178.788 116.355C178.901 114.512 179.73 112.33 181.056 109.894C182.374 107.474 184.127 104.9 185.991 102.287C187.841 99.6933 189.814 97.0411 191.506 94.5424L189.85 93.4212C188.175 95.895 186.247 98.483 184.363 101.125C182.493 103.747 180.679 106.404 179.3 108.938C177.929 111.455 176.932 113.948 176.792 116.232C176.647 118.589 177.421 120.714 179.513 122.316L180.729 120.728ZM191.51 94.5365C193.521 91.5202 195.163 88.4249 195.835 85.7746C196.172 84.4485 196.287 83.1544 196.019 82.007C195.742 80.8207 195.063 79.8321 193.924 79.1882L192.94 80.9294C193.56 81.28 193.913 81.7832 194.072 82.4615C194.239 83.1788 194.191 84.1223 193.897 85.2825C193.307 87.6047 191.813 90.4764 189.846 93.4271L191.51 94.5365ZM193.935 79.1945C192.53 78.377 190.862 78.4751 189.195 79.045C187.522 79.6169 185.697 80.7112 183.814 82.1345C180.039 84.9868 175.829 89.3156 171.841 94.024C167.847 98.741 164.041 103.88 161.076 108.383C158.139 112.845 155.951 116.797 155.291 119.105L157.214 119.655C157.779 117.678 159.798 113.961 162.747 109.483C165.668 105.045 169.426 99.9709 173.368 95.3166C177.317 90.6538 181.417 86.4528 185.02 83.7302C186.825 82.366 188.455 81.4116 189.842 80.9375C191.234 80.4615 192.23 80.5166 192.929 80.9231L193.935 79.1945ZM155.29 119.109C155.032 120.025 154.481 120.546 153.824 120.817C153.133 121.101 152.28 121.121 151.49 120.902C150.689 120.68 150.091 120.253 149.808 119.799C149.569 119.414 149.487 118.913 149.913 118.221L148.21 117.173C147.412 118.47 147.445 119.786 148.11 120.854C148.731 121.853 149.825 122.516 150.956 122.83C152.098 123.146 153.415 123.148 154.584 122.667C155.787 122.172 156.784 121.183 157.215 119.651L155.29 119.109ZM149.913 118.221C152.967 113.259 155.751 108.987 158.107 105.329C160.455 101.683 162.391 98.6256 163.715 96.134L161.949 95.1956C160.671 97.6 158.783 100.586 156.426 104.246C154.076 107.894 151.277 112.189 148.21 117.173L149.913 118.221ZM163.717 96.1296C166.917 90.0337 170.322 84.3033 174.176 73.6674L172.296 72.9862C168.499 83.4643 165.172 89.0559 161.946 95.2L163.717 96.1296ZM174.175 73.6711C174.795 71.9792 176.614 71.3452 178.181 71.6329C178.956 71.7753 179.456 72.1134 179.662 72.4396C179.813 72.6793 179.926 73.1022 179.437 73.8506L181.111 74.9451C181.922 73.7045 182.016 72.4252 181.354 71.374C180.747 70.4092 179.641 69.8676 178.542 69.6658C176.359 69.2649 173.359 70.0844 172.297 72.9825L174.175 73.6711ZM179.447 73.835C174.555 81.0208 169.8 87.9225 164.586 96.203L166.279 97.2686C171.469 89.0251 176.201 82.1568 181.1 74.9606L179.447 73.835ZM164.589 96.1989C162.996 98.7024 161.142 101.523 159.813 103.737C159.151 104.841 158.593 105.837 158.257 106.593C158.096 106.958 157.951 107.343 157.899 107.687C157.873 107.853 157.853 108.11 157.937 108.382C158.037 108.706 158.284 109.024 158.69 109.159L159.323 107.262C159.615 107.36 159.786 107.593 159.848 107.792C159.893 107.938 159.87 108.027 159.876 107.987C159.887 107.918 159.939 107.735 160.086 107.404C160.367 106.769 160.871 105.862 161.528 104.766C162.839 102.582 164.656 99.8182 166.276 97.2727L164.589 96.1989ZM158.656 109.147C159.061 109.299 159.405 109.152 159.497 109.11C159.633 109.049 159.744 108.97 159.818 108.913C159.973 108.794 160.137 108.635 160.296 108.47C160.623 108.131 161.047 107.639 161.546 107.035C162.549 105.824 163.927 104.079 165.568 102.015C168.859 97.8757 173.246 92.4077 177.976 87.1539C182.715 81.8899 187.757 76.8897 192.35 73.6569C194.649 72.0393 196.783 70.9023 198.67 70.3753C200.547 69.8512 202.091 69.9516 203.334 70.6727L204.338 68.9429C202.482 67.8662 200.339 67.8328 198.133 68.449C195.936 69.0623 193.589 70.3399 191.199 72.0213C186.417 75.3867 181.255 80.5227 176.49 85.8157C171.715 91.1189 167.295 96.6286 164.002 100.77C162.351 102.848 160.992 104.568 160.006 105.76C159.511 106.358 159.127 106.801 158.855 107.082C158.716 107.227 158.633 107.301 158.597 107.328C158.576 107.345 158.606 107.318 158.674 107.287C158.7 107.276 158.99 107.137 159.358 107.274L158.656 109.147ZM203.332 70.6716C204.108 71.1241 204.571 71.6391 204.835 72.1829C205.1 72.7309 205.201 73.3856 205.121 74.1735C204.959 75.7917 204.059 77.8002 202.64 80.1088C201.235 82.3939 199.399 84.8528 197.489 87.3612C195.591 89.8533 193.618 92.3972 191.992 94.798L193.648 95.9197C195.234 93.5774 197.162 91.0914 199.08 88.5728C200.986 86.0705 202.879 83.5377 204.343 81.1563C205.793 78.7984 206.901 76.4656 207.111 74.3735C207.219 73.3063 207.096 72.2636 206.634 71.3103C206.17 70.3528 205.4 69.5625 204.34 68.944L203.332 70.6716ZM191.991 94.7985C190.22 97.4167 188.751 100.033 188.211 102.425C187.937 103.635 187.889 104.835 188.197 105.969C188.508 107.117 189.166 108.132 190.194 108.982L191.468 107.44C190.736 106.836 190.323 106.168 190.127 105.446C189.928 104.711 189.938 103.855 190.161 102.866C190.615 100.859 191.9 98.5029 193.648 95.9191L191.991 94.7985ZM190.182 108.972C192.661 111.084 196.679 111.307 201.385 109.262C206.117 107.205 211.747 102.791 217.776 95.2166L216.211 93.9711C210.306 101.391 204.92 105.545 200.587 107.428C196.228 109.322 193.131 108.857 191.479 107.45L190.182 108.972ZM217.775 95.2185C217.815 95.1682 217.777 95.2404 217.632 95.2657C217.481 95.2921 217.329 95.2455 217.221 95.1574C217.007 94.9826 217.027 94.7188 217.112 94.6058L218.712 95.8058C219.255 95.0808 219.122 94.1285 218.488 93.6095C218.17 93.3493 217.74 93.2166 217.288 93.2955C216.841 93.3735 216.479 93.6369 216.213 93.9691L217.775 95.2185ZM217.117 94.5989C210.719 102.977 203.322 111.01 196.572 116.176C193.192 118.763 190.034 120.584 187.29 121.4C184.557 122.212 182.375 121.994 180.73 120.729L179.511 122.314C181.845 124.11 184.769 124.236 187.86 123.317C190.939 122.402 194.321 120.418 197.788 117.764C204.732 112.449 212.252 104.264 218.706 95.8127L217.117 94.5989ZM209.169 121.522L208.574 122.325L208.578 122.329L209.169 121.522ZM220.185 89.8508L220.994 90.4383L220.996 90.4363L220.185 89.8508ZM233.802 71.9498L233.026 71.3192L233.018 71.3291L233.802 71.9498ZM237.933 73.9388L237.255 73.204L237.223 73.233L237.195 73.2645L237.933 73.9388ZM222.021 91.3808L221.205 90.8027L221.197 90.8143L222.021 91.3808ZM219.726 108.67L219.101 109.451L219.105 109.453L219.726 108.67ZM245.583 94.7468L246.347 95.3924L246.366 95.3701L246.383 95.3468L245.583 94.7468ZM246.348 95.5118L245.567 94.8871L245.558 94.8982L245.55 94.9096L246.348 95.5118ZM241.758 65.8298L241.08 66.5646L241.082 66.567L241.758 65.8298ZM242.982 56.4968L243.796 57.078L243.803 57.0686L243.809 57.0591L242.982 56.4968ZM253.845 53.8958L254.536 53.1724L254.53 53.1667L254.523 53.161L253.845 53.8958ZM251.091 63.8408L250.513 63.0247L250.503 63.0321L251.091 63.8408ZM209.764 120.718C208.919 120.092 208.294 119.226 208.015 117.97C207.731 116.687 207.797 114.937 208.468 112.556C209.814 107.778 213.515 100.742 220.994 90.4383L219.376 89.2633C211.862 99.6146 207.988 106.884 206.543 112.013C205.818 114.586 205.683 116.689 206.063 118.403C206.449 120.145 207.354 121.422 208.574 122.325L209.764 120.718ZM220.996 90.4363C224.964 84.9426 228.779 79.9055 234.586 72.5705L233.018 71.3291C227.197 78.6821 223.363 83.743 219.374 89.2653L220.996 90.4363ZM234.578 72.5804C235.185 71.8336 236.14 71.8045 236.874 72.212C237.24 72.4154 237.407 72.656 237.448 72.7957C237.466 72.8531 237.504 72.9742 237.255 73.204L238.611 74.6736C239.357 73.9854 239.625 73.0928 239.365 72.2228C239.129 71.4348 238.512 70.834 237.845 70.4636C236.513 69.7236 234.408 69.618 233.026 71.3192L234.578 72.5804ZM237.195 73.2645C234.103 76.6502 226.448 83.4007 221.205 90.8028L222.837 91.9588C227.998 84.6729 235.337 78.2654 238.672 74.6131L237.195 73.2645ZM221.197 90.8143C218.618 94.5654 217.005 98.2687 216.555 101.494C216.106 104.724 216.818 107.624 219.101 109.451L220.351 107.889C218.809 106.656 218.145 104.583 218.536 101.77C218.929 98.9514 220.375 95.5402 222.845 91.9473L221.197 90.8143ZM219.105 109.453C221.737 111.541 225.513 111.652 230.043 109.496C234.568 107.344 240.031 102.863 246.347 95.3924L244.819 94.1012C238.589 101.471 233.343 105.712 229.184 107.69C225.032 109.666 222.152 109.318 220.348 107.886L219.105 109.453ZM246.383 95.3468C246.346 95.3963 246.25 95.4758 246.1 95.4936C245.965 95.5097 245.834 95.4685 245.734 95.3869C245.628 95.3003 245.559 95.1687 245.552 95.0296C245.546 94.8917 245.604 94.8418 245.567 94.8871L247.129 96.1365C247.399 95.7993 247.571 95.386 247.55 94.9374C247.53 94.4875 247.317 94.0977 247.001 93.839C246.354 93.3099 245.357 93.3816 244.783 94.1468L246.383 95.3468ZM245.55 94.9096C238.759 103.913 231.67 111.9 225.255 116.848C222.044 119.324 219.065 120.989 216.427 121.675C213.819 122.353 211.604 122.065 209.76 120.715L208.578 122.329C211.019 124.115 213.89 124.401 216.93 123.611C219.938 122.829 223.165 120.985 226.476 118.431C233.104 113.32 240.32 105.164 247.147 96.114L245.55 94.9096ZM242.436 65.095C241.802 64.5092 241.506 63.399 241.752 61.8351C241.992 60.308 242.725 58.577 243.796 57.078L242.168 55.9156C240.944 57.6296 240.071 59.6471 239.776 61.5243C239.486 63.3646 239.725 65.3144 241.08 66.5646L242.436 65.095ZM243.809 57.0591C245.038 55.2516 246.601 53.871 248.214 53.3336C249.745 52.8231 251.433 53.03 253.167 54.6306L254.523 53.161C252.279 51.0896 249.836 50.6845 247.581 51.4362C245.407 52.1611 243.527 53.917 242.155 55.9345L243.809 57.0591ZM253.155 54.6192C253.87 55.3022 254.234 55.9892 254.373 56.6468C254.513 57.309 254.442 58.0143 254.169 58.7512C253.614 60.2529 252.257 61.7899 250.513 63.0248L251.669 64.6568C253.598 63.2907 255.3 61.4617 256.045 59.4445C256.423 58.4218 256.562 57.3294 256.33 56.2321C256.096 55.1302 255.503 54.0959 254.536 53.1724L253.155 54.6192ZM250.503 63.0321C248.902 64.1964 247.147 65.0471 245.619 65.4117C244.037 65.7893 242.977 65.5903 242.434 65.0927L241.082 66.567C242.376 67.7523 244.299 67.7828 246.083 67.3571C247.921 66.9185 249.914 65.9332 251.679 64.6495L250.503 63.0321ZM237.835 121.675L238.376 120.834L238.372 120.831L237.835 121.675ZM248.545 90.7688L249.341 91.3742L249.346 91.3672L249.352 91.3602L248.545 90.7688ZM257.572 78.3758L258.386 78.957L259.515 77.3758H257.572V78.3758ZM252.217 76.9988L251.392 76.4341L251.385 76.4441L252.217 76.9988ZM262.774 71.1848V72.1848H263.274L263.574 71.7848L262.774 71.1848ZM273.178 57.4148L273.943 58.0589L273.949 58.0522L273.954 58.0454L273.178 57.4148ZM278.686 59.0978L277.939 58.4334L277.925 58.4487L277.912 58.4646L278.686 59.0978ZM267.823 71.1848L267.077 70.5192L265.591 72.1848H267.823V71.1848ZM275.932 72.1028L275.225 71.3957L275.181 71.4397L275.143 71.4889L275.932 72.1028ZM261.55 78.3758V77.3758H261.098L260.799 77.7157L261.55 78.3758ZM250.381 92.1458L249.565 91.5678L249.563 91.5712L250.381 92.1458ZM248.239 109.282L247.614 110.063L247.627 110.072L247.639 110.082L248.239 109.282ZM273.943 94.2878L273.236 93.5807L273.187 93.6298L273.145 93.6852L273.943 94.2878ZM274.861 94.8998L274.154 94.1927L274.106 94.241L274.064 94.2954L274.861 94.8998ZM238.372 120.831C237.217 120.096 236.408 119.268 235.987 118.184C235.565 117.095 235.479 115.6 236.066 113.425C237.253 109.022 241.08 102.236 249.341 91.3742L247.749 90.1634C239.486 101.028 235.434 108.088 234.135 112.904C233.478 115.338 233.498 117.295 234.122 118.907C234.749 120.524 235.929 121.647 237.298 122.518L238.372 120.831ZM249.352 91.3602C251.031 89.0703 254.556 84.3188 258.386 78.957L256.758 77.7946C252.938 83.1428 249.425 87.8773 247.739 90.1774L249.352 91.3602ZM257.572 77.3758H252.829V79.3758H257.572V77.3758ZM252.829 77.3758C252.88 77.3758 252.932 77.3858 252.979 77.4044C253.026 77.4224 253.058 77.445 253.079 77.4624C253.116 77.494 253.116 77.5104 253.107 77.488C253.099 77.4674 253.097 77.4466 253.097 77.4393C253.097 77.4291 253.099 77.4786 253.049 77.5535L251.385 76.4441C250.993 77.0316 251.056 77.7457 251.25 78.2308C251.447 78.7232 251.954 79.3758 252.829 79.3758V77.3758ZM253.042 77.5635C253.532 76.848 254.033 76.0442 254.45 75.4187C254.895 74.7515 255.317 74.1719 255.774 73.6894C256.648 72.767 257.658 72.1848 259.255 72.1848V70.1848C257.027 70.1848 255.513 71.0561 254.322 72.3139C253.746 72.9216 253.25 73.6138 252.786 74.3093C252.295 75.0464 251.897 75.6961 251.392 76.4341L253.042 77.5635ZM259.255 72.1848H262.774V70.1848H259.255V72.1848ZM263.574 71.7848C267.734 66.2382 271.519 60.9374 273.943 58.0589L272.413 56.7707C269.941 59.7062 266.076 65.1154 261.974 70.5848L263.574 71.7848ZM273.954 58.0454C274.268 57.6597 274.783 57.3751 275.432 57.2354C276.08 57.0963 276.775 57.1216 277.338 57.2718C277.943 57.433 278.192 57.6763 278.249 57.7866C278.264 57.8158 278.274 57.8454 278.259 57.9132C278.239 57.9991 278.169 58.1747 277.939 58.4334L279.434 59.7622C280.208 58.8908 280.529 57.8464 280.027 56.8709C279.591 56.025 278.684 55.5607 277.854 55.3393C276.983 55.107 275.966 55.0749 275.012 55.2801C274.06 55.4847 273.083 55.9459 272.402 56.7842L273.954 58.0454ZM277.912 58.4646C276.551 60.1278 272.164 64.816 267.077 70.5192L268.569 71.8504C273.581 66.2316 278.067 61.4338 279.46 59.731L277.912 58.4646ZM267.823 72.1848H275.473V70.1848H267.823V72.1848ZM275.473 72.1848C275.236 72.1848 275.126 72.0372 275.095 71.9763C275.068 71.9222 274.976 71.6445 275.225 71.3957L276.639 72.8099C277.194 72.2551 277.102 71.5184 276.884 71.0818C276.662 70.6384 276.169 70.1848 275.473 70.1848V72.1848ZM275.143 71.4889C274.587 72.2035 274.063 72.9648 273.571 73.675C273.071 74.3964 272.604 75.0636 272.134 75.6415C271.151 76.8513 270.382 77.3758 269.659 77.3758V79.3758C271.384 79.3758 272.681 78.1408 273.687 76.9026C274.212 76.2565 274.72 75.5275 275.214 74.8146C275.716 74.0905 276.206 73.3791 276.721 72.7167L275.143 71.4889ZM269.659 77.3758H261.55V79.3758H269.659V77.3758ZM260.799 77.7157C256.353 82.775 252.196 87.8541 249.565 91.5678L251.197 92.7238C253.769 89.0935 257.873 84.0746 262.301 79.0359L260.799 77.7157ZM249.563 91.5712C246.977 95.2533 245.4 98.9244 244.99 102.137C244.581 105.354 245.341 108.244 247.614 110.063L248.864 108.501C247.313 107.26 246.619 105.177 246.974 102.389C247.33 99.5962 248.736 96.2293 251.2 92.7204L249.563 91.5712ZM247.639 110.082C250.237 112.03 254.299 111.846 258.905 109.504C263.559 107.137 269.023 102.463 274.741 94.8904L273.145 93.6852C267.541 101.107 262.295 105.536 257.999 107.721C253.654 109.93 250.525 109.747 248.839 108.482L247.639 110.082ZM274.65 94.9949C274.651 94.9943 274.618 95.0241 274.548 95.0323C274.488 95.0393 274.401 95.0298 274.306 94.9669C274.209 94.9021 274.081 94.7563 274.065 94.5312C274.048 94.3019 274.161 94.1859 274.154 94.1927L275.568 95.6069C275.867 95.3077 276.095 94.8857 276.059 94.3887C276.024 93.8958 275.742 93.5205 275.416 93.3027C274.764 92.8679 273.856 92.9603 273.236 93.5807L274.65 94.9949ZM274.064 94.2954C267.35 103.147 260.295 111.139 253.89 116.225C250.685 118.771 247.7 120.541 245.048 121.355C242.417 122.162 240.2 122.006 238.376 120.834L237.294 122.516C239.755 124.098 242.625 124.19 245.635 123.267C248.625 122.349 251.837 120.41 255.134 117.791C261.735 112.55 268.909 104.401 275.658 95.5042L274.064 94.2954ZM296.942 121.981L297.381 121.082L297.376 121.08L296.942 121.981ZM298.472 104.386L299.343 104.877L297.731 103.715L298.472 104.386ZM268.331 123.052L268.804 122.171L268.798 122.168L268.331 123.052ZM285.62 81.1298L284.944 80.3926L284.943 80.3942L285.62 81.1298ZM316.679 79.9058L315.745 79.5498L317.472 80.5155L316.679 79.9058ZM319.739 75.9278L318.958 75.3031L318.952 75.3105L318.947 75.3181L319.739 75.9278ZM322.799 77.9168L323.531 78.5985L323.536 78.5925L322.799 77.9168ZM307.193 95.6648L308.025 96.2195L308.03 96.2117L308.035 96.2039L307.193 95.6648ZM306.428 108.517L307.09 107.767L307.075 107.754L307.059 107.741L306.428 108.517ZM318.362 108.058L317.788 107.239L317.778 107.246L318.362 108.058ZM341.159 94.1348L341.094 93.1369L341.087 93.1374L341.159 94.1348ZM352.328 114.178L351.39 113.832L351.384 113.847L351.379 113.862L352.328 114.178ZM352.787 107.14L351.901 107.602L351.905 107.61L352.787 107.14ZM336.722 101.326L336.822 102.321L336.83 102.32L336.722 101.326ZM318.668 110.812L319.353 111.541L319.354 111.539L318.668 110.812ZM279.959 106.681L280.613 105.924L280.612 105.923L279.959 106.681ZM303.98 96.2768L304.728 96.9404L304.738 96.9289L304.748 96.917L303.98 96.2768ZM305.51 94.4408L306.278 95.081L306.293 95.0634L306.307 95.0452L305.51 94.4408ZM308.876 90.0038L309.673 90.6082L309.762 90.4905L309.814 90.352L308.876 90.0038ZM308.264 76.5398L307.642 77.3227L307.65 77.3292L308.264 76.5398ZM287.456 83.4248L286.718 82.7505L286.715 82.7535L287.456 83.4248ZM297.376 121.08C295.875 120.357 295.085 118.624 295.375 115.691C295.662 112.784 297.008 109.021 299.343 104.877L297.601 103.895C295.194 108.166 293.709 112.205 293.384 115.495C293.062 118.759 293.878 121.615 296.508 122.882L297.376 121.08ZM297.731 103.715C291.945 110.11 286.042 115.549 280.844 118.965C278.244 120.674 275.863 121.846 273.795 122.396C271.726 122.946 270.07 122.85 268.804 122.171L267.858 123.933C269.729 124.937 271.955 124.955 274.309 124.329C276.663 123.703 279.246 122.408 281.943 120.636C287.34 117.09 293.372 111.514 299.214 105.057L297.731 103.715ZM268.798 122.168C266.504 120.955 265.421 118.888 265.341 116.086C265.259 113.225 266.236 109.661 268.071 105.727C271.733 97.8761 278.644 88.913 286.298 81.8654L284.943 80.3942C277.144 87.5757 270.055 96.743 266.258 104.881C264.364 108.941 263.247 112.835 263.342 116.143C263.438 119.508 264.804 122.318 267.864 123.936L268.798 122.168ZM286.296 81.867C291.754 76.8635 297.534 72.902 302.701 70.9945C307.884 69.0809 312.172 69.3156 315.054 72.1979L316.468 70.7837C312.772 67.087 307.497 67.0922 302.008 69.1183C296.503 71.1506 290.502 75.2981 284.944 80.3926L286.296 81.867ZM315.054 72.1979C316.786 73.9295 316.91 76.4917 315.745 79.5498L317.614 80.2618C318.897 76.8939 319.021 73.3361 316.468 70.7837L315.054 72.1979ZM317.472 80.5155L320.532 76.5375L318.947 75.3181L315.887 79.2961L317.472 80.5155ZM320.52 76.5525C320.838 76.155 321.14 76.0317 321.355 76.0041C321.584 75.9748 321.811 76.041 321.992 76.1756C322.177 76.3131 322.277 76.4926 322.299 76.6501C322.318 76.7819 322.297 76.9847 322.062 77.2411L323.536 78.5925C324.143 77.9309 324.389 77.1392 324.279 76.3673C324.173 75.6211 323.746 74.9878 323.185 74.5707C322.621 74.1508 321.882 73.9205 321.102 74.0203C320.308 74.1218 319.558 74.5531 318.958 75.3031L320.52 76.5525ZM322.068 77.2351C318.938 80.5932 315.638 84.0858 312.819 87.2112C310.014 90.3219 307.626 93.1337 306.351 95.1257L308.035 96.2039C309.208 94.3709 311.487 91.6747 314.304 88.5506C317.109 85.4413 320.387 81.9724 323.531 78.5985L322.068 77.2351ZM306.361 95.1101C302.259 101.263 302.757 106.823 305.798 109.293L307.059 107.741C305.203 106.233 304.171 102 308.025 96.2195L306.361 95.1101ZM305.767 109.267C307.316 110.634 309.621 111.242 311.962 111.18C314.323 111.118 316.855 110.375 318.946 108.869L317.778 107.246C316.044 108.494 313.91 109.128 311.91 109.181C309.89 109.234 308.142 108.695 307.09 107.767L305.767 109.267ZM318.937 108.876C320.788 107.577 322.49 106.088 324.142 104.604C325.806 103.108 327.41 101.626 329.119 100.274C332.512 97.5895 336.226 95.4949 341.231 95.1322L341.087 93.1374C335.535 93.5397 331.446 95.8821 327.878 98.7056C326.106 100.108 324.439 101.647 322.805 103.116C321.158 104.596 319.532 106.014 317.788 107.239L318.937 108.876ZM341.225 95.1326C343.928 94.9548 346.074 95.5848 347.791 96.6996C349.521 97.8226 350.871 99.474 351.905 101.413C353.982 105.313 354.694 110.221 354.694 113.719H356.694C356.694 110.025 355.953 104.759 353.67 100.473C352.523 98.3199 350.966 96.3758 348.88 95.0221C346.782 93.6602 344.204 92.9323 341.094 93.137L341.225 95.1326ZM354.694 113.719C354.694 114.538 354.475 114.981 354.285 115.199C354.098 115.414 353.884 115.481 353.707 115.474C353.518 115.466 353.371 115.378 353.291 115.261C353.224 115.164 353.13 114.936 353.277 114.494L351.379 113.862C351.068 114.797 351.164 115.697 351.642 116.393C352.108 117.071 352.859 117.441 353.627 117.472C354.406 117.503 355.206 117.187 355.793 116.513C356.377 115.842 356.694 114.889 356.694 113.719H354.694ZM353.267 114.524C354.321 111.66 355.129 109.407 353.67 106.669L351.905 107.61C352.893 109.463 352.477 110.881 351.39 113.832L353.267 114.524ZM353.674 106.677C352.59 104.6 350.062 102.837 347.062 101.692C344.019 100.531 340.303 99.9307 336.614 100.332L336.83 102.32C340.179 101.956 343.578 102.503 346.349 103.561C349.163 104.634 351.148 106.161 351.901 107.602L353.674 106.677ZM336.623 100.331C328.644 101.129 323.394 104.982 317.982 110.084L319.354 111.539C324.653 106.544 329.501 103.053 336.822 102.321L336.623 100.331ZM317.984 110.083C314.221 113.615 310.43 117.1 306.82 119.333C303.182 121.583 300.032 122.375 297.381 121.082L296.504 122.88C300.125 124.646 304.09 123.373 307.872 121.034C311.683 118.676 315.619 115.046 319.353 111.541L317.984 110.083ZM279.305 107.437C282.583 110.272 286.979 109.87 291.368 107.774C295.779 105.668 300.472 101.738 304.728 96.9404L303.232 95.6132C299.073 100.301 294.587 104.021 290.506 105.97C286.403 107.929 282.997 107.986 280.613 105.924L279.305 107.437ZM304.748 96.917L306.278 95.081L304.742 93.8006L303.212 95.6366L304.748 96.917ZM306.307 95.0452L309.673 90.6082L308.079 89.3994L304.713 93.8364L306.307 95.0452ZM309.814 90.352C310.843 87.5801 311.409 84.6227 311.349 82.0433C311.289 79.512 310.613 77.1001 308.878 75.7505L307.65 77.3292C308.669 78.1215 309.294 79.7641 309.349 82.0905C309.403 84.3689 308.898 87.0725 307.939 89.6556L309.814 90.352ZM308.886 75.757C305.539 73.096 301.537 73.1141 297.667 74.6336C293.822 76.1435 289.99 79.1665 286.718 82.7505L288.195 84.0991C291.348 80.6451 294.937 77.8541 298.398 76.4952C301.834 75.146 305.023 75.2407 307.642 77.3226L308.886 75.757ZM286.715 82.7535C282.969 86.8901 279.908 91.8609 278.346 96.3293C277.566 98.5614 277.14 100.722 277.227 102.619C277.314 104.524 277.926 106.248 279.306 107.438L280.612 105.923C279.774 105.201 279.296 104.075 279.225 102.528C279.154 100.973 279.503 99.0794 280.234 96.9893C281.694 92.8132 284.6 88.0685 288.197 84.0961L286.715 82.7535Z" fill="#EBEBEB"/>
</svg>
