<svg width="162" height="122" viewBox="0 0 162 122" fill="none" xmlns="http://www.w3.org/2000/svg">
<path d="M71.6611 108.175C66.2361 107.773 66.0747 113.597 55.6494 117.852C45.2242 122.108 38.2031 121.576 39.0542 119.98C39.9052 118.384 56.4239 117.379 62.4379 93.7741C68.452 70.1689 75.6689 9.72748 67.5499 1.90921C59.4309 -5.90906 36.2768 39.9482 34.4726 50.0218C32.6683 60.0953 49.207 93.6238 52.8154 91.9699C56.4239 90.3161 43.995 56.1726 19.943 61.1244C-4.10897 66.0763 -2.12822 96.6365 9.47333 104.984C21.0749 113.331 51.3646 116.868 71.6611 101.164C91.9575 85.4594 128.318 38.6288 120.678 35.7991C113.038 32.9695 62.3864 93.7741 70.168 93.7741C77.9495 93.7741 95.7763 90.9772 95.7763 96.0706C95.7763 101.164 89.834 103.428 87.0044 103.145C84.1747 102.862 79.9303 95.5046 107.519 77.5364C129.591 63.1618 152.841 71.547 161.707 77.5364" stroke="#C72E2E"/>
</svg>
