<svg width="645" height="284" viewBox="0 0 645 284" fill="none" xmlns="http://www.w3.org/2000/svg">
<path d="M1.16016 77.9374C10.0264 71.948 33.2766 63.5628 55.3479 77.9374C82.9369 95.9056 78.6925 103.263 75.8628 103.546C73.0332 103.829 67.0909 101.565 67.0909 96.4716C67.0909 91.3782 84.9177 94.1751 92.6992 94.1751C100.481 94.1751 49.8288 33.3705 42.1887 36.2001C34.5487 39.0298 70.9097 85.8604 91.2061 101.565C111.503 117.269 141.792 113.732 153.394 105.385C164.995 97.0375 166.976 66.4773 142.924 61.5254C118.872 56.5736 106.443 90.7171 110.052 92.3709C113.66 94.0248 130.199 60.4963 128.395 50.4228C126.59 40.3492 103.436 -5.50806 95.3173 2.31021C87.1983 10.1285 94.4152 70.5699 100.429 94.1751C106.443 117.78 122.962 118.785 123.813 120.381C124.664 121.977 117.643 122.509 107.218 118.253C96.7925 113.998 96.6311 108.174 91.2061 108.576C85.7812 108.978 95.6998 168.656 156.384 205.773C246.455 252.293 345.256 219.529 405.651 231.859C575.089 266.45 500.175 377.845 438.209 325.332C418.895 308.964 313.245 287.385 323.16 345.191C330.942 390.56 573.142 382.178 611.086 405.855C650.346 430.352 644.056 456.225 644.056 466.299C643.849 472.103 639.209 486.416 622.301 497.237C605.393 508.059 570.167 501.746 554.668 497.237" stroke="#C72E2E"/>
</svg>
