<svg width="9" height="8" viewBox="0 0 9 8" fill="none" xmlns="http://www.w3.org/2000/svg">
<g clip-path="url(#clip0_372_256)">
<path d="M4.61858 0.0976562C3.62578 0.0976562 3.50093 0.102229 3.11086 0.119607C2.72078 0.137899 2.45509 0.199177 2.22232 0.289722C1.97817 0.381557 1.75702 0.52561 1.57433 0.711811C1.38824 0.894592 1.24421 1.11572 1.15224 1.3598C1.0617 1.59211 0.99996 1.85826 0.982125 2.24697C0.964748 2.63796 0.960175 2.76235 0.960175 3.75652C0.960175 4.74977 0.964748 4.87416 0.982125 5.26424C1.00042 5.65385 1.0617 5.91955 1.15224 6.15231C1.24599 6.39285 1.37083 6.59681 1.57433 6.80031C1.77737 7.0038 1.98133 7.12911 2.22187 7.22239C2.45509 7.31294 2.72032 7.37468 3.10994 7.39251C3.50048 7.40989 3.62486 7.41446 4.61858 7.41446C5.61229 7.41446 5.73622 7.40989 6.12675 7.39251C6.51592 7.37422 6.78252 7.31294 7.01529 7.22239C7.25929 7.13051 7.48028 6.98646 7.66282 6.80031C7.86632 6.59681 7.99117 6.39285 8.08491 6.15231C8.175 5.91955 8.23674 5.65385 8.25503 5.26424C8.27241 4.87416 8.27698 4.74977 8.27698 3.75606C8.27698 2.76234 8.27241 2.63796 8.25503 2.24742C8.23674 1.85826 8.175 1.59211 8.08491 1.3598C7.99296 1.11571 7.84892 0.894582 7.66282 0.711811C7.48019 0.525541 7.25903 0.381478 7.01483 0.289722C6.78161 0.199177 6.51546 0.137441 6.1263 0.119607C5.73576 0.102229 5.61183 0.0976562 4.61766 0.0976562H4.61903H4.61858ZM4.29069 0.757083H4.61903C5.59583 0.757083 5.71152 0.760284 6.09703 0.778119C6.45372 0.794125 6.64762 0.854031 6.77658 0.903877C6.94715 0.970185 7.06925 1.04976 7.19729 1.1778C7.32534 1.30584 7.40445 1.42749 7.47076 1.59852C7.52106 1.72702 7.58051 1.92091 7.59652 2.27761C7.61435 2.66311 7.61801 2.77881 7.61801 3.75514C7.61801 4.73148 7.61435 4.84763 7.59652 5.23314C7.58051 5.58983 7.5206 5.78327 7.47076 5.91223C7.41211 6.07108 7.31849 6.2147 7.19684 6.33249C7.06879 6.46053 6.94715 6.53965 6.77612 6.60595C6.64808 6.65626 6.45418 6.71571 6.09703 6.73217C5.71152 6.74955 5.59583 6.75366 4.61903 6.75366C3.64224 6.75366 3.52609 6.74955 3.14058 6.73217C2.78389 6.71571 2.59045 6.65626 2.46149 6.60595C2.30258 6.54738 2.15882 6.45394 2.04078 6.33249C1.91902 6.21452 1.82526 6.07076 1.76639 5.91177C1.71655 5.78327 1.65664 5.58938 1.64064 5.23268C1.62326 4.84718 1.6196 4.73148 1.6196 3.75423C1.6196 2.77744 1.62326 2.6622 1.64064 2.27669C1.6571 1.92 1.71655 1.7261 1.76685 1.59714C1.83316 1.42657 1.91273 1.30447 2.04078 1.17643C2.16882 1.04838 2.29046 0.969271 2.46149 0.902962C2.59045 0.852659 2.78389 0.79321 3.14058 0.776747C3.47807 0.761199 3.60886 0.756626 4.29069 0.756169V0.757083ZM6.57171 1.36438C6.51405 1.36438 6.45697 1.37573 6.40371 1.3978C6.35044 1.41986 6.30205 1.45219 6.26128 1.49296C6.22051 1.53373 6.18818 1.58212 6.16612 1.63539C6.14405 1.68865 6.1327 1.74573 6.1327 1.80339C6.1327 1.86104 6.14405 1.91812 6.16612 1.97139C6.18818 2.02465 6.22051 2.07305 6.26128 2.11381C6.30205 2.15458 6.35044 2.18691 6.40371 2.20898C6.45697 2.23104 6.51405 2.24239 6.57171 2.24239C6.68814 2.24239 6.7998 2.19614 6.88213 2.11381C6.96446 2.03148 7.01071 1.91982 7.01071 1.80339C7.01071 1.68695 6.96446 1.57529 6.88213 1.49296C6.7998 1.41063 6.68814 1.36438 6.57171 1.36438ZM4.61903 1.87747C4.36984 1.87358 4.12236 1.91931 3.891 2.01198C3.65965 2.10465 3.44904 2.24243 3.27144 2.41728C3.09384 2.59213 2.9528 2.80056 2.85653 3.03044C2.76025 3.26032 2.71067 3.50706 2.71067 3.75629C2.71067 4.00551 2.76025 4.25225 2.85653 4.48213C2.9528 4.71201 3.09384 4.92045 3.27144 5.0953C3.44904 5.27015 3.65965 5.40792 3.891 5.50059C4.12236 5.59327 4.36984 5.63899 4.61903 5.63511C5.11225 5.62741 5.58266 5.42608 5.92873 5.07457C6.2748 4.72306 6.46877 4.24956 6.46877 3.75629C6.46877 3.26301 6.2748 2.78951 5.92873 2.438C5.58266 2.08649 5.11225 1.88516 4.61903 1.87747ZM4.61903 2.53644C4.9425 2.53644 5.25271 2.66493 5.48144 2.89366C5.71016 3.12238 5.83865 3.4326 5.83865 3.75606C5.83865 4.07952 5.71016 4.38974 5.48144 4.61846C5.25271 4.84718 4.9425 4.97568 4.61903 4.97568C4.29557 4.97568 3.98536 4.84718 3.75663 4.61846C3.52791 4.38974 3.39941 4.07952 3.39941 3.75606C3.39941 3.4326 3.52791 3.12238 3.75663 2.89366C3.98536 2.66493 4.29557 2.53644 4.61903 2.53644Z" fill="white"/>
</g>
<defs>
<clipPath id="clip0_372_256">
<rect width="7.3168" height="7.3168" fill="white" transform="translate(0.960175 0.0981445)"/>
</clipPath>
</defs>
</svg>
