<svg width="9" height="9" viewBox="0 0 9 9" fill="none" xmlns="http://www.w3.org/2000/svg">
<g clip-path="url(#clip0_370_191)">
<path d="M7.59103 1.12356H1.64613C1.51125 1.12219 1.38132 1.17438 1.28487 1.26869C1.18843 1.36299 1.13333 1.49171 1.13167 1.62659V7.5955C1.13363 7.73019 1.18886 7.85861 1.28527 7.95267C1.38169 8.04673 1.51144 8.09877 1.64613 8.09739H7.59103C7.72593 8.09846 7.85576 8.04609 7.95216 7.95173C8.04856 7.85736 8.10369 7.72868 8.1055 7.59379V1.62488C8.10309 1.49039 8.0477 1.36229 7.95137 1.26841C7.85503 1.17454 7.72554 1.12249 7.59103 1.12356Z" fill="white"/>
<path d="M2.16401 3.73828H3.19922V7.06914H2.16401V3.73828ZM2.6819 2.08057C2.80064 2.08057 2.9167 2.11578 3.01542 2.18176C3.11413 2.24774 3.19106 2.34151 3.23648 2.45122C3.28189 2.56092 3.29374 2.68163 3.27053 2.79808C3.24733 2.91452 3.19011 3.02147 3.10611 3.10539C3.02211 3.1893 2.91511 3.24642 2.79865 3.26952C2.68218 3.29261 2.56148 3.28064 2.45182 3.23513C2.34215 3.18961 2.24845 3.11259 2.18257 3.01381C2.11669 2.91504 2.08158 2.79894 2.0817 2.6802C2.08185 2.52112 2.14515 2.3686 2.25769 2.25616C2.37024 2.14372 2.52282 2.08057 2.6819 2.08057ZM3.84859 3.73828H4.84093V4.19558H4.85465C4.99298 3.93378 5.33024 3.65768 5.83384 3.65768C6.88221 3.65539 7.07656 4.34535 7.07656 5.23994V7.06914H6.04134V5.44858C6.04134 5.06274 6.03449 4.56599 5.50345 4.56599C4.97241 4.56599 4.88209 4.98671 4.88209 5.42343V7.06914H3.84859V3.73828Z" fill="black"/>
</g>
<defs>
<clipPath id="clip0_370_191">
<rect width="7.3168" height="7.3168" fill="white" transform="translate(0.960175 0.952148)"/>
</clipPath>
</defs>
</svg>
