<svg width="114" height="20" viewBox="0 0 114 20" fill="none" xmlns="http://www.w3.org/2000/svg">
<path d="M3.5455 10.5195V8.60675C3.5455 8.47628 3.50485 8.41104 3.42354 8.41104C3.38289 8.41104 3.20866 8.48814 2.90086 8.64234C1.91358 9.14646 1.41994 9.80479 1.41994 10.6173C1.41994 10.9079 1.50996 11.1452 1.68999 11.329C1.87583 11.5069 2.13136 11.5959 2.45659 11.5959C2.68889 11.5959 2.927 11.4714 3.17091 11.2223C3.42064 10.9672 3.5455 10.733 3.5455 10.5195ZM6.15018 11.1956C6.27794 11.2134 6.36215 11.3023 6.4028 11.4625C6.4028 11.4803 6.3999 11.4951 6.39409 11.5069C6.15598 11.9162 5.9353 12.1831 5.73203 12.3076C5.52877 12.4322 5.26162 12.4944 4.93059 12.4944C4.3208 12.4944 3.90847 12.0911 3.69359 11.2845C3.25222 11.7353 2.90086 12.0496 2.63952 12.2275C2.37818 12.4055 1.99489 12.4944 1.48963 12.4944C1.16441 12.4944 0.89436 12.4025 0.679481 12.2186C0.464603 12.0348 0.310703 11.8242 0.217782 11.587C0.130669 11.3438 0.087113 11.0977 0.087113 10.8486C0.087113 10.5995 0.145188 10.3564 0.261339 10.1191C0.37749 9.87596 0.545908 9.65948 0.766594 9.46969C0.993088 9.27398 1.18764 9.13163 1.35025 9.04267L3.37127 7.89505C3.48742 7.82981 3.5455 7.73492 3.5455 7.61037V6.00014C3.5455 5.47823 3.1593 5.21727 2.3869 5.21727C1.82356 5.21727 1.43156 5.36554 1.21087 5.66208C1.18183 5.7036 1.13828 5.97939 1.0802 6.48944C1.01051 7.07659 0.810151 7.37017 0.479121 7.37017C0.159707 7.37017 0 7.20411 0 6.87198C0 6.53985 0.116151 6.20772 0.348452 5.87559C0.586561 5.53754 0.789824 5.31809 0.958243 5.21727C1.70161 4.77246 2.41593 4.55005 3.10122 4.55005C3.51356 4.55005 3.91137 4.66867 4.29467 4.9059C4.68377 5.14313 4.87833 5.43671 4.87833 5.78663V10.5195C4.87833 11.2015 5.07288 11.5425 5.46198 11.5425C5.57233 11.5425 5.7814 11.4328 6.0892 11.2134C6.10662 11.2015 6.12695 11.1956 6.15018 11.1956Z" fill="#EBEBEB"/>
<path d="M11.9606 10.1013C11.9606 10.5817 11.8387 11.0117 11.5947 11.3913C11.3508 11.7649 11.0169 12.0466 10.5929 12.2364C10.169 12.4203 9.72181 12.5122 9.2514 12.5122C8.34542 12.5122 7.64852 12.3343 7.16069 11.9784C7.04454 11.6048 6.98646 11.0947 6.98646 10.4483V10.048C6.98646 9.95899 7.05325 9.91451 7.18682 9.91451C7.3262 9.91451 7.4017 9.95899 7.41331 10.048C7.44235 10.2793 7.6311 10.6529 7.97955 11.1689C8.328 11.6849 8.84777 11.9429 9.53887 11.9429C9.88151 11.9429 10.2009 11.8331 10.4971 11.6137C10.7933 11.3943 10.9414 11.077 10.9414 10.6618C10.9414 10.2466 10.8165 9.91451 10.5668 9.66541C10.3171 9.41038 9.8728 9.19687 9.23397 9.02488C8.59515 8.84695 8.08118 8.56524 7.69208 8.17973C7.30297 7.79423 7.10842 7.30493 7.10842 6.71185C7.10842 6.1069 7.35233 5.59684 7.84017 5.18168C8.328 4.76059 8.9465 4.55005 9.69567 4.55005C10.4448 4.55005 11.0459 4.6568 11.4989 4.87032C11.6789 5.36851 11.769 5.87263 11.769 6.38268V6.48054C11.769 6.56357 11.7051 6.60509 11.5773 6.60509C11.4495 6.60509 11.377 6.56357 11.3595 6.48054C11.3015 6.16028 11.104 5.84891 10.7672 5.54643C10.4361 5.24396 10.047 5.09272 9.59985 5.09272C9.15267 5.09272 8.7926 5.20541 8.51965 5.43078C8.24669 5.65022 8.11022 5.94973 8.11022 6.32931C8.11022 6.68516 8.20604 6.96391 8.39769 7.16556C8.59515 7.36127 9.08008 7.57478 9.85248 7.80609C10.6249 8.03146 11.1679 8.31911 11.4815 8.66903C11.8009 9.01302 11.9606 9.49045 11.9606 10.1013Z" fill="#EBEBEB"/>
<path d="M16.6647 10.5195V8.60675C16.6647 8.47628 16.6241 8.41104 16.5428 8.41104C16.5021 8.41104 16.3279 8.48814 16.0201 8.64234C15.0328 9.14646 14.5392 9.80479 14.5392 10.6173C14.5392 10.9079 14.6292 11.1452 14.8092 11.329C14.995 11.5069 15.2506 11.5959 15.5758 11.5959C15.8081 11.5959 16.0462 11.4714 16.2901 11.2223C16.5398 10.9672 16.6647 10.733 16.6647 10.5195ZM19.2694 11.1956C19.3972 11.2134 19.4814 11.3023 19.522 11.4625C19.522 11.4803 19.5191 11.4951 19.5133 11.5069C19.2752 11.9162 19.0545 12.1831 18.8512 12.3076C18.648 12.4322 18.3808 12.4944 18.0498 12.4944C17.44 12.4944 17.0277 12.0911 16.8128 11.2845C16.3714 11.7353 16.0201 12.0496 15.7587 12.2275C15.4974 12.4055 15.1141 12.4944 14.6088 12.4944C14.2836 12.4944 14.0136 12.4025 13.7987 12.2186C13.5838 12.0348 13.4299 11.8242 13.337 11.587C13.2499 11.3438 13.2063 11.0977 13.2063 10.8486C13.2063 10.5995 13.2644 10.3564 13.3806 10.1191C13.4967 9.87596 13.6651 9.65948 13.8858 9.46969C14.1123 9.27398 14.3069 9.13163 14.4695 9.04267L16.4905 7.89505C16.6066 7.82981 16.6647 7.73492 16.6647 7.61037V6.00014C16.6647 5.47823 16.2785 5.21727 15.5061 5.21727C14.9428 5.21727 14.5508 5.36554 14.3301 5.66208C14.301 5.7036 14.2575 5.97939 14.1994 6.48944C14.1297 7.07659 13.9294 7.37017 13.5983 7.37017C13.2789 7.37017 13.1192 7.20411 13.1192 6.87198C13.1192 6.53985 13.2354 6.20772 13.4677 5.87559C13.7058 5.53754 13.909 5.31809 14.0775 5.21727C14.8208 4.77246 15.5351 4.55005 16.2204 4.55005C16.6328 4.55005 17.0306 4.66867 17.4139 4.9059C17.803 5.14313 17.9975 5.43671 17.9975 5.78663V10.5195C17.9975 11.2015 18.1921 11.5425 18.5812 11.5425C18.6915 11.5425 18.9006 11.4328 19.2084 11.2134C19.2258 11.2015 19.2462 11.1956 19.2694 11.1956Z" fill="#EBEBEB"/>
<path d="M20.4803 11.0532C20.4803 10.7092 20.64 10.4601 20.9594 10.3059C21.1104 10.2288 21.2846 10.1903 21.4821 10.1903C21.9409 10.1903 22.3125 10.3771 22.5971 10.7508C22.8875 11.1185 23.0327 11.5158 23.0327 11.9429C23.0327 12.7079 22.8091 13.39 22.3619 13.989C21.9147 14.594 21.5053 15.0121 21.1336 15.2434C20.7619 15.4747 20.5616 15.5903 20.5325 15.5903C20.3873 15.5903 20.3147 15.5103 20.3147 15.3501C20.3147 15.3264 20.4251 15.1959 20.6458 14.9587C20.8723 14.7274 21.1191 14.422 21.3862 14.0424C21.6592 13.6687 21.7957 13.2536 21.7957 12.7969C21.7957 12.5063 21.6969 12.3254 21.4995 12.2542C20.82 11.9873 20.4803 11.587 20.4803 11.0532Z" fill="#EBEBEB"/>
<path d="M32.1001 10.8808C32.164 10.8512 32.2337 10.8986 32.3092 11.0232C32.3905 11.1418 32.4311 11.2248 32.4311 11.2723C32.4311 11.3079 32.4166 11.3405 32.3876 11.3701C32.2366 11.5065 31.9259 11.7171 31.4555 12.0018C30.9851 12.2865 30.3375 12.4318 29.5129 12.4377C28.665 12.4377 27.9303 12.0907 27.3089 11.3968C26.6875 10.7029 26.3768 9.80736 26.3768 8.71015C26.3768 7.61294 26.7311 6.63731 27.4396 5.78327C28.1481 4.9233 29.0628 4.49331 30.1836 4.49331C31.3219 4.49331 31.9985 4.70979 32.2134 5.14274C32.2482 5.21391 32.2656 5.33549 32.2656 5.50749C32.2656 5.62017 32.2017 5.75955 32.074 5.92561C31.9462 6.08574 31.833 6.16581 31.7342 6.16581C31.6355 6.16581 31.5571 6.1243 31.499 6.04126C31.046 5.40666 30.5437 5.08936 29.992 5.08936C29.4403 5.08936 28.9379 5.3948 28.4849 6.00568C28.0319 6.61063 27.8025 7.38164 27.7967 8.31871C27.7967 9.25579 28.0552 10.009 28.572 10.5784C29.0947 11.1477 29.6522 11.4324 30.2446 11.4324C30.6918 11.4324 31.3103 11.2486 32.1001 10.8808Z" fill="#EBEBEB"/>
<path d="M33.0584 8.39878C33.0584 7.34309 33.3865 6.42973 34.0427 5.65872C34.7048 4.88178 35.4453 4.49331 36.2641 4.49331C37.083 4.49331 37.745 4.78392 38.2503 5.36515C38.7555 5.94637 39.0082 6.42084 39.0082 6.78855C39.0082 7.15626 38.8601 7.34309 38.5639 7.34902H34.6525C34.4783 7.34902 34.3912 7.54474 34.3912 7.93617C34.3912 8.88511 34.6119 9.7006 35.0532 10.3827C35.5004 11.0588 36.116 11.3968 36.9 11.3968C37.4866 11.3968 38.0703 11.2189 38.651 10.863C38.68 10.8453 38.712 10.8364 38.7468 10.8364C38.8165 10.8364 38.8775 10.869 38.9298 10.9342C38.9704 10.9757 38.9908 11.038 38.9908 11.121C38.9908 11.1507 38.9791 11.1744 38.9559 11.1922C38.0383 12.0225 37.1352 12.4377 36.2467 12.4377C35.3581 12.4377 34.6032 12.0285 33.9818 11.21C33.3662 10.3915 33.0584 9.45447 33.0584 8.39878ZM34.5915 6.62842C34.5915 6.71145 34.6612 6.75297 34.8006 6.75297H37.5969C37.6841 6.75297 37.7276 6.70255 37.7276 6.60173C37.7276 6.34077 37.5679 6.01161 37.2485 5.61424C36.9349 5.21687 36.6068 5.01819 36.2641 5.01819C35.8866 5.01819 35.5585 5.14867 35.2797 5.40963C35.0068 5.66465 34.7861 6.02644 34.6177 6.49497C34.6003 6.54242 34.5915 6.5869 34.5915 6.62842Z" fill="#EBEBEB"/>
<path d="M44.6792 4.49331C44.8651 4.49331 45.019 4.52593 45.1409 4.59117C45.2629 4.65641 45.3761 4.75723 45.4807 4.89364C45.5852 5.03005 45.6375 5.22874 45.6375 5.48969C45.6375 5.56086 45.6084 5.66169 45.5504 5.79217C45.4923 5.92265 45.4023 6.03533 45.2803 6.13023C45.1642 6.22512 45.0422 6.27257 44.9144 6.27257C44.7867 6.27257 44.5892 6.2014 44.3221 6.05906C44.0607 5.91078 43.8633 5.83665 43.7297 5.83665C43.3754 5.83665 43.0764 6.01754 42.8324 6.37932C42.5885 6.73517 42.4666 7.2215 42.4666 7.83831V11.1032C42.4666 11.5659 42.905 11.7972 43.782 11.7972C43.8633 11.7972 43.9039 11.8832 43.9039 12.0552C43.9039 12.2212 43.8633 12.3042 43.782 12.3042C43.2941 12.2568 42.6843 12.2331 41.9526 12.2331C41.2208 12.2331 40.614 12.2568 40.1319 12.3042C40.0506 12.3042 40.01 12.2212 40.01 12.0552C40.01 11.8832 40.0506 11.7972 40.1319 11.7972C40.7998 11.7972 41.1337 11.5659 41.1337 11.1032V6.99317C41.1337 6.32298 40.8898 5.98789 40.402 5.98789C40.3033 5.98789 40.2539 5.90485 40.2539 5.73879C40.2539 5.57273 40.3033 5.48969 40.402 5.48969C40.6227 5.48969 40.9392 5.34735 41.3515 5.06267C41.7638 4.77799 42.0165 4.59413 42.1094 4.5111C42.2081 4.42214 42.2894 4.37766 42.3533 4.37766C42.452 4.37766 42.5014 4.45179 42.5014 4.60007C42.4782 4.89068 42.4666 5.15757 42.4666 5.40073C42.4666 5.63797 42.5043 5.75658 42.5798 5.75658C42.6611 5.75658 42.7424 5.69727 42.8237 5.57866C43.3406 4.85509 43.9591 4.49331 44.6792 4.49331Z" fill="#EBEBEB"/>
<path d="M49.7492 12.3042C49.3078 12.2568 48.7648 12.2331 48.1202 12.2331C47.4756 12.2331 46.918 12.2568 46.4476 12.3042C46.3663 12.3042 46.3257 12.2212 46.3257 12.0552C46.3257 11.8832 46.3663 11.7972 46.4476 11.7972C47.1039 11.7972 47.432 11.5659 47.432 11.1032V7.1533C47.432 6.33484 47.1649 5.92561 46.6306 5.92561C46.5318 5.92561 46.4825 5.84258 46.4825 5.67652C46.4825 5.51045 46.5318 5.42742 46.6306 5.42742C46.8222 5.42742 47.1039 5.3266 47.4756 5.12495C47.853 4.9233 48.1376 4.74834 48.3293 4.60007C48.5209 4.45179 48.6487 4.37766 48.7126 4.37766C48.7823 4.37766 48.8171 4.42511 48.8171 4.52C48.7823 5.16053 48.7648 5.65279 48.7648 5.99678V11.1032C48.7648 11.5659 49.093 11.7972 49.7492 11.7972C49.8305 11.7972 49.8712 11.8832 49.8712 12.0552C49.8712 12.2212 49.8305 12.3042 49.7492 12.3042ZM46.9877 1.94008C46.9877 1.67319 47.0748 1.45078 47.2491 1.27286C47.4291 1.089 47.6498 0.99707 47.9111 0.99707C48.1725 0.99707 48.3961 1.089 48.5819 1.27286C48.7677 1.45078 48.8607 1.67319 48.8607 1.94008C48.8607 2.20696 48.7677 2.4353 48.5819 2.62509C48.3961 2.81488 48.1725 2.90977 47.9111 2.90977C47.6498 2.90977 47.4291 2.81488 47.2491 2.62509C47.0748 2.4353 46.9877 2.20696 46.9877 1.94008Z" fill="#EBEBEB"/>
<path d="M51.4044 10.3382V5.82775C51.4044 5.59052 51.2882 5.4719 51.0559 5.4719H50.42C50.3387 5.4719 50.298 5.4037 50.298 5.26729C50.298 5.13088 50.3387 5.06267 50.42 5.06267C50.6813 5.06267 50.9514 4.95888 51.2301 4.7513C51.5089 4.53779 51.7412 4.30649 51.927 4.05739C52.1129 3.80237 52.2523 3.5592 52.3452 3.3279C52.3684 3.27452 52.4091 3.24783 52.4671 3.24783C52.5252 3.24783 52.5833 3.26266 52.6414 3.29231C52.7052 3.32197 52.7372 3.36348 52.7372 3.41686V4.2887C52.7372 4.54372 52.8562 4.67124 53.0943 4.67124H55.2199C55.3012 4.67124 55.3419 4.80468 55.3419 5.07157C55.3419 5.33846 55.3012 5.4719 55.2199 5.4719H53.0943C52.8562 5.4719 52.7372 5.59052 52.7372 5.82775V9.41296C52.7372 10.1899 52.8446 10.7444 53.0595 11.0766C53.2802 11.4087 53.6432 11.5748 54.1484 11.5748C54.4504 11.5748 54.764 11.4591 55.0892 11.2278C55.1241 11.2041 55.156 11.1922 55.1851 11.1922C55.2199 11.1922 55.2547 11.2248 55.2896 11.2901C55.3244 11.3553 55.3419 11.4087 55.3419 11.4502C55.3419 11.4917 55.3361 11.5214 55.3244 11.5392C54.8366 12.1382 54.1978 12.4377 53.408 12.4377C52.682 12.4377 52.1651 12.2776 51.8573 11.9573C51.5553 11.6311 51.4044 11.0914 51.4044 10.3382Z" fill="#EBEBEB"/>
<path d="M59.7846 10.4627V8.55002C59.7846 8.41954 59.744 8.3543 59.6627 8.3543C59.622 8.3543 59.4478 8.4314 59.14 8.5856C58.1527 9.08972 57.6591 9.74805 57.6591 10.5606C57.6591 10.8512 57.7491 11.0884 57.9291 11.2723C58.115 11.4502 58.3705 11.5392 58.6957 11.5392C58.928 11.5392 59.1661 11.4146 59.41 11.1655C59.6598 10.9105 59.7846 10.6762 59.7846 10.4627ZM62.3893 11.1388C62.5171 11.1566 62.6013 11.2456 62.6419 11.4057C62.6419 11.4235 62.639 11.4383 62.6332 11.4502C62.3951 11.8594 62.1744 12.1263 61.9712 12.2509C61.7679 12.3754 61.5007 12.4377 61.1697 12.4377C60.5599 12.4377 60.1476 12.0344 59.9327 11.2278C59.4913 11.6785 59.14 11.9929 58.8786 12.1708C58.6173 12.3487 58.234 12.4377 57.7288 12.4377C57.4035 12.4377 57.1335 12.3458 56.9186 12.1619C56.7037 11.9781 56.5498 11.7675 56.4569 11.5303C56.3698 11.2871 56.3262 11.041 56.3262 10.7919C56.3262 10.5428 56.3843 10.2996 56.5005 10.0624C56.6166 9.81922 56.785 9.60274 57.0057 9.41296C57.2322 9.21724 57.4268 9.0749 57.5894 8.98593L59.6104 7.83831C59.7265 7.77307 59.7846 7.67818 59.7846 7.55363V5.9434C59.7846 5.42149 59.3984 5.16053 58.626 5.16053C58.0627 5.16053 57.6707 5.3088 57.45 5.60535C57.421 5.64686 57.3774 5.92265 57.3193 6.4327C57.2496 7.01985 57.0493 7.31343 56.7182 7.31343C56.3988 7.31343 56.2391 7.14737 56.2391 6.81524C56.2391 6.48311 56.3553 6.15098 56.5876 5.81886C56.8257 5.4808 57.0289 5.26136 57.1974 5.16053C57.9407 4.71572 58.6551 4.49331 59.3403 4.49331C59.7527 4.49331 60.1505 4.61193 60.5338 4.84916C60.9229 5.0864 61.1175 5.37997 61.1175 5.72989V10.4627C61.1175 11.1448 61.312 11.4858 61.7011 11.4858C61.8115 11.4858 62.0205 11.3761 62.3283 11.1566C62.3457 11.1448 62.3661 11.1388 62.3893 11.1388Z" fill="#EBEBEB"/>
<path d="M63.6002 10.9965C63.6002 10.6525 63.7599 10.4034 64.0793 10.2492C64.2303 10.1721 64.4045 10.1336 64.602 10.1336C65.0608 10.1336 65.4324 10.3204 65.717 10.694C66.0074 11.0617 66.1526 11.4591 66.1526 11.8861C66.1526 12.6512 65.929 13.3333 65.4818 13.9323C65.0346 14.5372 64.6252 14.9553 64.2535 15.1866C63.8818 15.4179 63.6815 15.5336 63.6524 15.5336C63.5072 15.5336 63.4347 15.4535 63.4347 15.2934C63.4347 15.2697 63.545 15.1392 63.7657 14.902C63.9922 14.6707 64.239 14.3652 64.5061 13.9856C64.7791 13.612 64.9156 13.1968 64.9156 12.7402C64.9156 12.4496 64.8168 12.2687 64.6194 12.1975C63.9399 11.9306 63.6002 11.5303 63.6002 10.9965Z" fill="#EBEBEB"/>
<path d="M81.7334 17.731V15.8183C81.7334 15.6878 81.6927 15.6226 81.6114 15.6226C81.5707 15.6226 81.3965 15.6997 81.0887 15.8539C80.1014 16.358 79.6078 17.0164 79.6078 17.8289C79.6078 18.1195 79.6978 18.3567 79.8779 18.5406C80.0637 18.7185 80.3192 18.8075 80.6444 18.8075C80.8767 18.8075 81.1149 18.6829 81.3588 18.4338C81.6085 18.1788 81.7334 17.9445 81.7334 17.731ZM84.338 18.4071C84.4658 18.4249 84.55 18.5139 84.5907 18.674C84.5907 18.6918 84.5878 18.7067 84.582 18.7185C84.3438 19.1277 84.1232 19.3946 83.9199 19.5192C83.7166 19.6437 83.4495 19.706 83.1185 19.706C82.5087 19.706 82.0963 19.3027 81.8814 18.4961C81.4401 18.9469 81.0887 19.2612 80.8274 19.4391C80.566 19.617 80.1827 19.706 79.6775 19.706C79.3523 19.706 79.0822 19.6141 78.8673 19.4302C78.6525 19.2464 78.4986 19.0358 78.4056 18.7986C78.3185 18.5554 78.275 18.3093 78.275 18.0602C78.275 17.8111 78.333 17.5679 78.4492 17.3307C78.5653 17.0875 78.7338 16.8711 78.9545 16.6813C79.1809 16.4855 79.3755 16.3432 79.5381 16.2542L81.5591 15.1066C81.6753 15.0414 81.7334 14.9465 81.7334 14.8219V13.2117C81.7334 12.6898 81.3472 12.4288 80.5748 12.4288C80.0114 12.4288 79.6194 12.5771 79.3987 12.8737C79.3697 12.9152 79.3261 13.191 79.2681 13.701C79.1984 14.2882 78.998 14.5817 78.667 14.5817C78.3476 14.5817 78.1879 14.4157 78.1879 14.0835C78.1879 13.7514 78.304 13.4193 78.5363 13.0872C78.7744 12.7491 78.9777 12.5297 79.1461 12.4288C79.8895 11.984 80.6038 11.7616 81.2891 11.7616C81.7014 11.7616 82.0992 11.8802 82.4825 12.1175C82.8716 12.3547 83.0662 12.6483 83.0662 12.9982V17.731C83.0662 18.4131 83.2607 18.7541 83.6498 18.7541C83.7602 18.7541 83.9693 18.6444 84.2771 18.4249C84.2945 18.4131 84.3148 18.4071 84.338 18.4071Z" fill="#EBEBEB"/>
<path d="M92.3002 18.3716C92.3002 18.8342 92.6341 19.0655 93.302 19.0655C93.3833 19.0655 93.4239 19.1515 93.4239 19.3235C93.4239 19.4895 93.3833 19.5726 93.302 19.5726C92.8548 19.5251 92.3118 19.5014 91.6729 19.5014C91.0341 19.5014 90.4795 19.5251 90.0091 19.5726C89.9278 19.5726 89.8871 19.4895 89.8871 19.3235C89.8871 19.1515 89.9278 19.0655 90.0091 19.0655C90.6479 19.0655 90.9673 18.8342 90.9673 18.3716V14.7864C90.9673 14.2882 90.9238 13.8671 90.8367 13.5231C90.7554 13.1732 90.6247 12.927 90.4447 12.7847C90.2646 12.6364 89.9481 12.5623 89.4951 12.5623C89.2512 12.5623 89.0305 12.6127 88.8331 12.7135C88.6356 12.8143 88.4411 12.9359 88.2494 13.0783C88.0636 13.2147 87.9039 13.3867 87.7703 13.5943C87.6425 13.7959 87.5786 14.0153 87.5786 14.2526V18.3716C87.5786 18.8342 87.8893 19.0655 88.5107 19.0655C88.5921 19.0655 88.6327 19.1515 88.6327 19.3235C88.6327 19.4895 88.5921 19.5726 88.5107 19.5726C88.0636 19.5251 87.5206 19.5014 86.8817 19.5014C86.2429 19.5014 85.697 19.5251 85.244 19.5726C85.1627 19.5726 85.1221 19.4895 85.1221 19.3235C85.1221 19.1515 85.1627 19.0655 85.244 19.0655C85.9119 19.0655 86.2458 18.8342 86.2458 18.3716V14.3949C86.2458 13.6358 86.0019 13.2562 85.5141 13.2562C85.4153 13.2562 85.366 13.1732 85.366 13.0071C85.366 12.841 85.4153 12.758 85.5141 12.758C85.7347 12.758 85.9874 12.669 86.2719 12.4911C86.5623 12.3132 86.8149 12.1293 87.0298 11.9395C87.2447 11.7438 87.3957 11.646 87.4828 11.646C87.5641 11.646 87.6048 11.6934 87.6048 11.7883C87.6048 11.8773 87.599 12.0018 87.5873 12.162C87.5757 12.3162 87.5699 12.4555 87.5699 12.5801C87.5699 12.6987 87.6135 12.758 87.7006 12.758C87.7471 12.758 87.7906 12.7402 87.8313 12.7046C88.4527 12.076 89.2047 11.7616 90.0875 11.7616C90.947 11.7616 91.5887 12.1975 92.0127 13.0694C92.2043 13.4608 92.3002 14.1962 92.3002 15.2757V18.3716Z" fill="#EBEBEB"/>
<path d="M97.8841 19.5726C97.4427 19.5251 96.8997 19.5014 96.2551 19.5014C95.6105 19.5014 95.0529 19.5251 94.5825 19.5726C94.5012 19.5726 94.4606 19.4895 94.4606 19.3235C94.4606 19.1515 94.5012 19.0655 94.5825 19.0655C95.2388 19.0655 95.5669 18.8342 95.5669 18.3716V14.4216C95.5669 13.6032 95.2997 13.1939 94.7655 13.1939C94.6667 13.1939 94.6174 13.1109 94.6174 12.9448C94.6174 12.7788 94.6667 12.6957 94.7655 12.6957C94.9571 12.6957 95.2388 12.5949 95.6105 12.3933C95.9879 12.1916 96.2725 12.0166 96.4642 11.8684C96.6558 11.7201 96.7836 11.646 96.8475 11.646C96.9171 11.646 96.952 11.6934 96.952 11.7883C96.9171 12.4288 96.8997 12.9211 96.8997 13.2651V18.3716C96.8997 18.8342 97.2278 19.0655 97.8841 19.0655C97.9654 19.0655 98.0061 19.1515 98.0061 19.3235C98.0061 19.4895 97.9654 19.5726 97.8841 19.5726ZM95.1226 9.20839C95.1226 8.9415 95.2097 8.71909 95.384 8.54117C95.564 8.35731 95.7847 8.26538 96.046 8.26538C96.3074 8.26538 96.5309 8.35731 96.7168 8.54117C96.9026 8.71909 96.9955 8.9415 96.9955 9.20839C96.9955 9.47528 96.9026 9.70361 96.7168 9.8934C96.5309 10.0832 96.3074 10.1781 96.046 10.1781C95.7847 10.1781 95.564 10.0832 95.384 9.8934C95.2097 9.70361 95.1226 9.47528 95.1226 9.20839Z" fill="#EBEBEB"/>
<path d="M99.5392 17.6065V13.0961C99.5392 12.8588 99.4231 12.7402 99.1908 12.7402H98.5549C98.4736 12.7402 98.4329 12.672 98.4329 12.5356C98.4329 12.3992 98.4736 12.331 98.5549 12.331C98.8162 12.331 99.0863 12.2272 99.365 12.0196C99.6438 11.8061 99.8761 11.5748 100.062 11.3257C100.248 11.0707 100.387 10.8275 100.48 10.5962C100.503 10.5428 100.544 10.5161 100.602 10.5161C100.66 10.5161 100.718 10.531 100.776 10.5606C100.84 10.5903 100.872 10.6318 100.872 10.6852V11.557C100.872 11.812 100.991 11.9395 101.229 11.9395H103.355C103.436 11.9395 103.477 12.073 103.477 12.3399C103.477 12.6068 103.436 12.7402 103.355 12.7402H101.229C100.991 12.7402 100.872 12.8588 100.872 13.0961V16.6813C100.872 17.4582 100.98 18.0127 101.194 18.3449C101.415 18.677 101.778 18.8431 102.283 18.8431C102.585 18.8431 102.899 18.7274 103.224 18.4961C103.259 18.4724 103.291 18.4605 103.32 18.4605C103.355 18.4605 103.39 18.4931 103.424 18.5584C103.459 18.6236 103.477 18.677 103.477 18.7185C103.477 18.76 103.471 18.7897 103.459 18.8075C102.971 19.4065 102.333 19.706 101.543 19.706C100.817 19.706 100.3 19.5459 99.9922 19.2256C99.6902 18.8994 99.5392 18.3597 99.5392 17.6065Z" fill="#EBEBEB"/>
<path d="M107.92 17.731V15.8183C107.92 15.6878 107.879 15.6226 107.798 15.6226C107.757 15.6226 107.583 15.6997 107.275 15.8539C106.288 16.358 105.794 17.0164 105.794 17.8289C105.794 18.1195 105.884 18.3567 106.064 18.5406C106.25 18.7185 106.505 18.8075 106.831 18.8075C107.063 18.8075 107.301 18.6829 107.545 18.4338C107.795 18.1788 107.92 17.9445 107.92 17.731ZM110.524 18.4071C110.652 18.4249 110.736 18.5139 110.777 18.674C110.777 18.6918 110.774 18.7067 110.768 18.7185C110.53 19.1277 110.309 19.3946 110.106 19.5192C109.903 19.6437 109.636 19.706 109.305 19.706C108.695 19.706 108.282 19.3027 108.068 18.4961C107.626 18.9469 107.275 19.2612 107.014 19.4391C106.752 19.617 106.369 19.706 105.864 19.706C105.538 19.706 105.268 19.6141 105.053 19.4302C104.839 19.2464 104.685 19.0358 104.592 18.7986C104.505 18.5554 104.461 18.3093 104.461 18.0602C104.461 17.8111 104.519 17.5679 104.635 17.3307C104.752 17.0875 104.92 16.8711 105.141 16.6813C105.367 16.4855 105.562 16.3432 105.724 16.2542L107.745 15.1066C107.861 15.0414 107.92 14.9465 107.92 14.8219V13.2117C107.92 12.6898 107.533 12.4288 106.761 12.4288C106.198 12.4288 105.806 12.5771 105.585 12.8737C105.556 12.9152 105.512 13.191 105.454 13.701C105.385 14.2882 105.184 14.5817 104.853 14.5817C104.534 14.5817 104.374 14.4157 104.374 14.0835C104.374 13.7514 104.49 13.4193 104.722 13.0872C104.961 12.7491 105.164 12.5297 105.332 12.4288C106.076 11.984 106.79 11.7616 107.475 11.7616C107.888 11.7616 108.285 11.8802 108.669 12.1175C109.058 12.3547 109.252 12.6483 109.252 12.9982V17.731C109.252 18.4131 109.447 18.7541 109.836 18.7541C109.946 18.7541 110.155 18.6444 110.463 18.4249C110.481 18.4131 110.501 18.4071 110.524 18.4071Z" fill="#EBEBEB"/>
<path d="M111.892 18.6295C111.892 18.3271 111.996 18.0839 112.205 17.9001C112.415 17.7162 112.679 17.6243 112.998 17.6243C113.318 17.6243 113.564 17.734 113.739 17.9534C113.913 18.1729 114 18.4338 114 18.7363C114 19.0328 113.898 19.273 113.695 19.4569C113.498 19.6348 113.245 19.7238 112.937 19.7238C112.629 19.7238 112.377 19.617 112.179 19.4035C111.988 19.19 111.892 18.932 111.892 18.6295Z" fill="#EBEBEB"/>
<path d="M69.2096 19.9317C67.644 19.3578 69.0088 16.7752 70.4539 14.4795C67.6842 18.087 65.1753 21.0386 63.8506 19.6448C62.6665 18.415 64.7137 15.9553 68.2863 12.1634C70.8955 9.39627 70.0525 6.95712 68.3866 5.80929C66.8613 4.76394 64.4929 4.88692 63.2887 7.18259C62.6062 8.4944 64.3817 9.4898 65.3652 10.3302C66.0476 10.9041 64.1858 12.2178 63.7242 11.5209C62.7809 10.0451 62.5059 8.39191 63.0478 7.01861C64.3123 3.90306 67.2828 3.22666 69.2698 4.313C71.3571 5.44034 72.5614 8.30993 68.5271 12.4913C66.8211 14.2541 65.3359 16.3448 65.9179 17.1032C66.6003 17.9845 68.0454 17.0007 70.3536 14.1721C71.1564 13.1882 71.5779 11.364 72.0395 10.5851C72.7822 9.31428 73.9663 10.1547 73.1033 11.3025C72.8825 11.6099 72.0596 12.4708 71.6181 12.9423C70.4539 14.7255 69.7715 16.7957 70.7751 17.2261C71.9793 17.7591 72.9848 15.9348 76.2764 12.3068C79.3071 8.96583 82.6991 6.26022 86.5326 7.01861C87.9175 7.28507 87.2351 8.76086 86.2115 8.43291C82.398 7.24408 79.5428 9.29378 76.7128 12.4913C72.8191 16.8777 71.6181 19.9317 69.2096 19.9317Z" fill="#EBEBEB"/>
</svg>
