<svg width="370" height="531" viewBox="0 0 370 531" fill="none" xmlns="http://www.w3.org/2000/svg">
<path d="M248.826 241.124C252.575 247.684 265.936 260.804 289.389 260.804C318.705 260.804 359.27 277.672 367.704 275.664C376.138 273.656 330.754 255.181 315.492 254.779C300.23 254.378 250.027 248.353 244.806 251.566C239.585 254.779 243.496 262.625 248.826 260.036C254.156 257.448 250.269 245.928 240.562 247.481C230.855 249.035 230.473 271.167 217.012 279.451C203.551 287.735 191.517 290.712 189.705 286.699C187.893 282.687 194.8 256.874 172.878 241.124C150.955 225.374 61.8011 106.017 51.0834 80.6846C40.3657 55.3518 1.39096 39.2752 0.903795 54.8645C0.416626 70.4539 22.8212 169.349 48.6411 197.118C74.461 224.886 53.0178 260.822 68.12 286.699C83.2223 312.577 95.4015 310.141 114.401 310.628C133.401 311.115 184.066 279.936 164.092 217.579C144.118 155.221 108.555 100.658 105.632 67.5309C102.709 34.4035 109.529 -1.64699 96.863 0.788847C84.1966 3.22469 76.4019 68.5056 80.2993 91.4025C84.1966 114.299 89.5555 184.451 82.7351 197.118C75.9147 209.784 67.1457 217.881 74.9404 232.681C82.7351 247.481 86.7058 245.473 85.6196 266.086C84.5334 286.699 83.7187 309.263 94.3094 316.052C104.9 322.841 122.816 311.707 114.401 304.647C105.986 297.587 91.0507 304.919 92.68 333.432C94.3094 361.945 109.705 394.311 146.869 387.848C184.033 381.384 193.728 341.805 227.661 310.628C261.593 279.451 290.678 263.968 278.829 244.039C266.979 224.111 222.872 219.277 202.885 235.421C182.897 251.566 178.835 289.394 158.109 301.369C137.383 313.344 80.1485 340.748 68.12 361.014C56.0916 381.279 40.6624 419.276 28.9177 430.1C17.1731 440.923 -0.559043 456.353 5.889 466.946C12.337 477.539 24.5423 472.012 28.9177 461.88C33.2932 451.747 28.9177 442.305 46.4195 430.1C63.9214 417.895 61.8488 424.343 51.4859 440.693C41.1229 457.043 16.0216 486.06 22.4697 491.817C28.9177 497.574 39.0503 505.634 50.1041 473.164C61.1579 440.693 76.3569 418.816 78.1992 423.882C80.0415 428.948 57.9339 466.025 55.631 477.539C53.3282 489.053 49.6436 522.675 67.8362 509.088C86.0289 495.501 79.1203 460.728 81.4232 444.838C83.7261 428.948 89.7135 401.314 97.5433 399.011C105.373 396.708 100.307 427.567 97.5433 448.293C94.7799 469.018 72.6723 522.445 103.991 529.354C135.31 536.262 129.093 480.303 121.033 461.88C112.973 443.457 106.524 421.81 110.67 406.38C114.815 390.951 119.881 423.882 123.566 440.693C127.25 457.504 140.377 514.155 153.273 523.596C166.169 533.038 165.708 467.867 149.588 438.16C136.692 414.394 127.711 399.662 123.566 392.793" stroke="#FFFDF1"/>
</svg>
