<svg width="228" height="439" viewBox="0 0 228 439" fill="none" xmlns="http://www.w3.org/2000/svg">
<path d="M98.606 300.366C95.9762 305.49 89.5162 320.593 84.7144 340.015C78.7122 364.293 37.1974 361.054 20.4692 373.923C3.74106 386.792 5.15261 396.19 12.4449 395.998C19.7372 395.807 42.5931 327.474 46.865 308.79C51.1369 290.105 98.3128 271.231 118.703 292.696C139.093 314.161 181.526 391.837 193.124 406.209C204.723 420.58 226.287 454.11 227.358 456.77C228.429 459.429 210.076 460.588 207.882 463.92C205.687 467.252 215.971 471.42 220.338 469.736C224.704 468.051 212.95 449.117 207.005 432.941C201.06 416.764 194.537 388.898 186.248 372.798C177.96 356.698 137.653 299.532 134.176 271.182C131.161 246.609 125.877 225.679 126.275 216.966M136.752 112.309C143.504 96.0319 131.637 92.6255 148.471 80.1225C152.344 77.2459 156.284 74.4892 160.205 71.8554M136.752 112.309C129.999 128.586 123.732 126.552 125.411 152.791C127.089 179.03 118.698 185.409 116.485 195.967C114.501 205.426 116.306 210.478 119.603 211.116M136.752 112.309C136.097 104.7 134.873 87.856 135.212 81.355C135.637 73.2287 128.724 67.661 123.217 55.338C117.71 43.015 111.292 45.2527 107.199 41.117C103.106 36.9814 97.5513 21.8015 91.1551 27.2855C85.258 32.3415 66.3429 48.7364 59.8038 64.0766M127.47 209.789C114.524 212.678 121.38 213.938 105.997 212.825C102.323 212.559 98.9393 211.047 95.7276 208.655M119.603 211.116C119.985 211.191 120.388 211.205 120.808 211.16C124.84 210.729 121.184 196.196 111.19 185.093C101.195 173.991 100.861 178.18 97.0327 169.265C93.2041 160.35 69.1836 138.576 65.5013 128.434C61.8191 118.293 33.2806 78.4409 15.5822 73.1775C-2.11622 67.9141 -0.139828 69.767 1.96338 80.6325C4.0666 91.498 11.029 122.099 23.9825 132.725C36.9361 143.352 52.5118 152.777 66.4205 170.77C77.0067 184.464 85.4943 201.031 95.7276 208.655M119.603 211.116C113.009 209.231 95.0519 197.703 75.9707 166.676C52.1192 127.892 53.8017 84.2892 58.425 67.9408C58.7857 66.6653 59.2505 65.3747 59.8038 64.0766M59.8038 64.0766C58.4048 62.5564 56.9153 57.6906 62.1495 50.3883C68.6922 41.2605 86.73 25.969 90.5584 18.9968C94.3868 12.0245 100.286 9.88953 109.958 7.76728C119.631 5.64502 122.519 2.94541 119.779 1.14079C117.039 -0.66382 108.138 2.75702 111.603 12.5606C115.068 22.3642 134.559 25.0034 146.694 41.1292C156.401 54.0299 159.746 66.9886 160.205 71.8554M160.205 71.8554C173.328 63.0415 186.246 55.6037 195.767 49.653C208.134 41.9241 201.749 50.9474 203.137 57.0421C204.524 63.1369 216.868 70.7655 215.262 102.9C213.656 135.035 185.654 148.303 170.417 161.087C155.181 173.871 157.58 195.662 149.834 202.004C147.942 203.553 145.765 204.725 143.517 205.691M143.517 205.691C136.563 208.679 128.923 209.699 126.89 213.845C126.531 214.576 126.336 215.627 126.275 216.966M143.517 205.691C146.326 205.202 153.387 203.267 159.162 199.436C166.38 194.648 171.276 199.287 179.041 197.156C186.806 195.026 187.831 191.725 193.197 192.432C198.563 193.139 206.3 197.086 206.806 195.917C207.311 194.748 187.97 178.699 175.008 183.391C162.045 188.083 160.07 189.874 152.408 191.984C144.745 194.093 141.12 203.227 134.398 205.18C127.677 207.134 129.936 203.222 132.505 202.31C135.075 201.398 142.206 215.02 133.654 223.52C125.101 232.021 115.356 235.099 113.717 242.023C112.078 248.947 114.289 254.85 112.389 257.156C110.489 259.462 103.253 265.24 98.6474 265.192C94.0419 265.144 100.041 264.522 103.718 258.94C107.395 253.358 102.817 243.31 106.663 234.875C110.51 226.44 116.017 226.212 119.958 223.112C123.111 220.631 125.483 217.981 126.275 216.966M95.7276 208.655C92.3009 208.488 84.2639 208.921 79.529 211.988C73.6104 215.822 65.1682 225.577 62.4385 227.215C59.7088 228.853 54.383 230.164 54.0608 235.395C53.7385 240.627 55.0142 254.407 52.0581 258.082C49.102 261.758 46.0262 262.498 47.7693 258.158C49.5125 253.818 54.0785 252.847 60.7355 249.916C67.3924 246.984 69.0937 237.422 70.017 233.563C70.9402 229.704 75.8809 230.951 80.3659 228.467C84.8509 225.982 83.9497 221.79 87.2948 220.714C90.64 219.638 95.7154 221.695 101.723 222.63C107.73 223.564 109.18 220.436 113.178 220.272C116.377 220.141 117.55 221.298 117.737 221.892" stroke="#F4EEE6"/>
</svg>
