<svg width="275" height="246" viewBox="0 0 275 246" fill="none" xmlns="http://www.w3.org/2000/svg">
<path d="M0.62793 77.384C9.49415 71.3946 32.7444 63.0094 54.8157 77.384C82.4047 95.3523 78.1602 102.709 75.3306 102.992C72.5009 103.275 66.5587 101.012 66.5587 95.9182C66.5587 90.8249 84.3855 93.6217 92.167 93.6217C99.9485 93.6217 49.2966 32.8171 41.6565 35.6468C34.0165 38.4764 70.3774 85.3071 90.6739 101.012C110.97 116.716 141.26 113.179 152.862 104.832C164.463 96.4842 166.444 65.924 142.392 60.9721C118.34 56.0202 105.911 90.1637 109.52 91.8176C113.128 93.4714 129.667 59.943 127.862 49.8694C126.058 39.7959 102.904 -6.0614 94.7851 1.75687C86.6661 9.57514 93.883 70.0166 99.897 93.6217C105.911 117.227 122.43 118.232 123.281 119.828C124.132 121.423 117.111 121.955 106.686 117.7C96.2603 113.445 96.0988 107.621 90.6739 108.023C88.5949 110.26 85.983 116.491 92.167 123.522C99.897 132.309 117.134 147.358 163.107 151.955C209.08 156.553 255.972 128.969 264.247 133.566C272.522 138.163 262.408 182.297 212.757 185.056C163.107 187.814 185.174 226.431 224.71 230.109C256.34 233.052 270.99 251.563 274.361 260.451" stroke="#FFFDF1"/>
</svg>
