<svg width="162" height="122" viewBox="0 0 162 122" fill="none" xmlns="http://www.w3.org/2000/svg">
<path d="M71.5175 108.523C66.0926 108.121 65.9311 113.945 55.5059 118.2C45.0807 122.455 38.0596 121.923 38.9106 120.328C39.7617 118.732 56.2803 117.727 62.2944 94.1219C68.3084 70.5167 75.5253 10.0753 67.4063 2.25699C59.2873 -5.56128 36.1332 40.296 34.329 50.3696C32.5248 60.4431 49.0635 93.9716 52.6719 92.3177C56.2803 90.6638 43.8515 56.5203 19.7995 61.4722C-4.25253 66.4241 -2.27178 96.9843 9.32977 105.332C20.9313 113.679 51.2211 117.216 71.5175 101.512C91.814 85.8072 128.175 38.9765 120.535 36.1469C112.895 33.3172 62.2429 94.1219 70.0244 94.1219C77.8059 94.1219 95.6327 91.325 95.6327 96.4184C95.6327 101.512 89.6905 103.775 86.8608 103.492C84.0312 103.21 79.7867 95.8524 107.376 77.8842C129.447 63.5096 152.697 71.8948 161.563 77.8842" stroke="#FFFDF1"/>
</svg>
