<svg width="109" height="83" viewBox="0 0 109 83" fill="none" xmlns="http://www.w3.org/2000/svg">
<path d="M61.2412 72.9115C64.8599 72.6435 64.9676 76.5281 71.9217 79.3665C78.8757 82.2049 83.5591 81.8502 82.9914 80.7858C82.4237 79.7214 71.4051 79.051 67.3935 63.3053C63.3818 47.5597 58.5679 7.24266 63.9836 2.02754C69.3993 -3.18758 84.8441 27.4012 86.0476 34.1207C87.251 40.8401 76.2191 63.2051 73.8121 62.1019C71.4051 60.9987 79.6957 38.2235 95.7394 41.5266C111.783 44.8297 110.462 65.2147 102.723 70.7828C94.9844 76.3509 74.7798 78.7103 61.2412 68.2347C47.7026 57.7591 23.4483 26.521 28.5446 24.6335C33.6408 22.746 67.4278 63.3053 62.2372 63.3053C57.0466 63.3053 45.1554 61.4397 45.1554 64.8372C45.1554 68.2347 49.1191 69.7447 51.0066 69.5559C52.8941 69.3672 55.7253 64.4597 37.3223 52.4741C22.5998 42.8856 7.09091 48.4789 1.17676 52.4741" stroke="#FFFDF1"/>
</svg>
