<svg width="217" height="399" viewBox="0 0 217 399" fill="none" xmlns="http://www.w3.org/2000/svg">
<path d="M65.7175 321.827L67.3449 322.99L67.3597 322.969L67.374 322.948L65.7175 321.827ZM57.1156 317.526L58.7009 318.746L58.7108 318.733L58.7206 318.72L57.1156 317.526ZM196.896 212.691L197.893 214.425L197.894 214.424L196.896 212.691ZM263.56 83.6638L265.059 82.3398L265.056 82.3362L263.56 83.6638ZM121.092 94.9538L119.348 93.9753L119.346 93.9775L121.092 94.9538ZM127.543 170.757L126.06 172.099L126.07 172.111L126.081 172.122L127.543 170.757ZM103.351 190.649L101.881 192.006L101.883 192.008L103.351 190.649ZM116.791 87.4272L118.381 88.6401L118.384 88.6366L116.791 87.4272ZM300.655 35.8161L299.337 37.32L299.343 37.3251L299.348 37.3301L300.655 35.8161ZM206.035 220.218L205.068 218.467L205.065 218.469L206.035 220.218ZM8.73029 368.062L6.94143 367.168L6.92487 367.201L6.90955 367.235L8.73029 368.062ZM44.7505 347.095L43.7215 348.81L43.8056 348.861L43.8943 348.903L44.7505 347.095ZM47.4386 387.416L45.6497 386.522L45.6331 386.555L45.6178 386.589L47.4386 387.416ZM13.0312 408.921L14.0025 407.173L13.981 407.161L13.9592 407.149L13.0312 408.921ZM64.09 320.665C61.7848 323.892 59.314 323.881 58.3227 323.354C57.8188 323.086 57.49 322.637 57.4253 322.003C57.3569 321.331 57.5709 320.215 58.7009 318.746L55.5304 316.307C53.9722 318.332 53.2455 320.441 53.4459 322.408C53.65 324.411 54.7996 326.012 56.4461 326.886C59.7557 328.645 64.274 327.289 67.3449 322.99L64.09 320.665ZM58.7206 318.72C89.6071 277.183 137.049 249.424 197.893 214.425L195.898 210.958C135.241 245.849 86.9875 274.002 55.5107 316.333L58.7206 318.72ZM197.894 214.424C236.794 192.003 260.967 167.546 271.757 144.385C282.599 121.113 279.898 99.1394 265.059 82.3398L262.061 84.9879C275.715 100.445 278.39 120.675 268.131 142.696C257.82 164.829 234.413 188.758 195.897 210.959L197.894 214.424ZM265.056 82.3362C243.326 57.8559 213.209 49.4882 185.433 52.8487C157.706 56.2033 132.081 71.2762 119.348 93.9753L122.836 95.9323C134.833 74.5469 159.206 60.051 185.913 56.8198C212.57 53.5946 241.322 61.6241 262.064 84.9915L265.056 82.3362ZM119.346 93.9775C110.207 110.317 109.244 126.938 111.868 140.886C114.483 154.784 120.68 166.153 126.06 172.099L129.026 169.416C124.192 164.072 118.292 153.399 115.8 140.147C113.316 126.946 114.235 111.31 122.837 95.9301L119.346 93.9775ZM126.081 172.122C129.498 175.783 130.441 179.368 130.022 182.441C129.595 185.572 127.71 188.474 124.918 190.605C119.288 194.903 110.679 195.62 104.818 189.29L101.883 192.008C109.462 200.194 120.476 199.029 127.346 193.785C130.804 191.144 133.388 187.36 133.985 182.981C134.591 178.545 133.115 173.796 129.005 169.393L126.081 172.122ZM104.82 189.293C95.7544 179.471 92.9962 162.357 95.7204 143.354C98.4304 124.451 106.505 104.211 118.381 88.6401L115.201 86.2143C102.884 102.362 94.5615 123.251 91.7609 142.786C88.9745 162.223 91.5925 180.86 101.881 192.006L104.82 189.293ZM118.384 88.6366C184.029 2.17678 261.215 3.89816 299.337 37.32L301.974 34.3122C261.604 -1.08063 181.806 -1.50968 115.198 86.2177L118.384 88.6366ZM299.348 37.3301C311.749 48.0338 318.413 61.0493 319.944 75.4251C321.48 89.8422 317.868 105.78 309.426 122.267C292.529 155.265 256.463 190.093 205.068 218.467L207.002 221.969C258.829 193.356 295.609 158.025 312.986 124.09C321.681 107.11 325.561 90.3882 323.922 75.0013C322.278 59.5731 315.098 45.6407 301.962 34.3021L299.348 37.3301ZM205.065 218.469C151.093 248.394 101.505 265.355 64.0609 320.707L67.374 322.948C104.121 268.626 152.379 252.255 207.005 221.967L205.065 218.469ZM10.5191 368.957C14.9493 360.096 21.0193 353.568 27.1355 350.037C33.2614 346.5 39.1718 346.08 43.7215 348.81L45.7795 345.38C39.5769 341.659 32.0469 342.583 25.1356 346.573C18.2147 350.568 11.6507 357.749 6.94143 367.168L10.5191 368.957ZM43.8943 348.903C48.0634 350.877 50.7068 355.771 51.1548 362.747C51.5988 369.66 49.8207 378.18 45.6497 386.522L49.2274 388.311C53.6582 379.449 55.6434 370.227 55.1466 362.491C54.6537 354.816 51.6523 348.151 45.6067 345.288L43.8943 348.903ZM45.6178 386.589C41.7398 395.12 35.8197 401.517 29.8107 405.123C23.7323 408.77 17.9561 409.369 14.0025 407.173L12.0599 410.669C17.7834 413.849 25.1788 412.567 31.8687 408.553C38.6281 404.497 45.0731 397.453 49.2593 388.244L45.6178 386.589ZM13.9592 407.149C9.08889 404.598 6.2445 399.547 5.61442 392.742C4.9826 385.919 6.62147 377.535 10.551 368.89L6.90955 367.235C2.77488 376.331 0.919252 385.419 1.63146 393.111C2.34542 400.822 5.6836 407.33 12.1032 410.693L13.9592 407.149Z" fill="#F4EEE6"/>
</svg>
