<svg width="403" height="201" viewBox="0 0 403 201" fill="none" xmlns="http://www.w3.org/2000/svg">
<path fill-rule="evenodd" clip-rule="evenodd" d="M357.956 158.077L359.414 159.69C360.116 160.334 359.919 160.091 360.699 160.735L369.246 167.692C372.235 170.984 373.404 177.624 374.876 182.053C371.116 185.208 365.95 184.096 361.133 185.15C352.858 186.959 356.226 187.525 346.853 186.042C347.505 180.835 348.875 180.852 351.181 177.4C351.763 168.021 345.385 163.918 351.942 155.891L357.956 158.077ZM336.666 183.918C333.452 170.755 337.436 172.525 336.941 167.41C336.452 162.365 330.606 162.219 331.528 155.513C338.397 154.422 343.189 154.903 349.791 155.512C348.637 158.791 348.145 159.36 346.663 161.89C347.623 164.53 349.267 171.254 349.48 174.308C349.854 179.663 346.904 179.64 345.445 185.263L336.666 183.918ZM344.788 186.698C343.755 189.559 342.719 190.409 341.097 193.087C339.19 196.238 340.371 197.681 339.368 201.339C338.582 204.206 332.098 209.265 328.882 210.447C329.829 208.604 331.063 205.314 332.064 203.431C333.936 199.909 334.073 198.329 332.295 194.461L334.622 189.659C335.145 188.366 334.884 188.639 335.538 187.469L336.628 185.934C336.467 185.842 336.918 185.584 337.066 185.345L344.788 186.698ZM331.019 153.819C328.701 147.084 331.085 146.033 328.756 140.695C327.775 138.444 328.988 130.664 328.432 126.316C327.613 119.912 324.476 120.578 325.858 113.617C327.483 105.434 327.553 107.314 325.328 99.7774C330.275 103.012 332.195 104.892 333.388 112.244C334.307 117.9 338.834 117.64 341.425 123.426C348.404 139.013 347.871 133.923 350.357 153.949L331.019 153.819ZM357.956 158.077C355.651 155.161 352.884 154.963 352.371 154.339C350.513 148.817 350.563 137.975 347.959 133.166C345.32 128.292 341.571 119.289 338.905 117.391C333.97 113.875 336.157 115.1 334.59 108.519C332.924 101.523 327.408 100.538 324.377 93.9652C320.87 86.3592 320.138 91.6106 319.76 85.5501C323.215 86.1833 331.61 86.4673 333.613 87.7936C336.301 89.5738 337.332 93.6972 340.938 95.9999C343.606 97.7039 348.955 97.348 353.252 99.2527C361.894 103.085 358.367 103.063 368.823 113.852C371.823 116.948 371.798 119.022 375.123 122.245C378.766 125.777 378.558 126.85 380.644 132.292C381.242 133.851 382.153 136.16 382.725 138.024C383.599 140.872 382.701 139.638 382.377 142.153C384.827 141.33 384.526 141.379 385.145 144.81C386.118 150.2 386.923 157.55 385.453 162.121C382.616 170.94 384.527 172.019 378.451 179.311C376.592 181.543 378.469 179.702 376.606 180.719C372.651 174.617 374.926 170.844 369.482 166.682C367.478 165.15 359.675 158.714 357.956 158.077ZM318.895 81.4344C317.232 78.2217 317.062 75.884 312.991 74.2587L304.617 69.9006C304.302 69.8311 304.289 69.5887 304.124 69.4631L317.447 70.8516L318.311 74.8325L319.497 72.8582C319.571 72.7112 319.89 71.6417 319.994 71.4052C325.013 72.8628 327.66 72.6414 332.992 73.6935L354.874 82.8651C359.866 85.7811 358.7 89.4335 369.32 99.367C371.723 101.615 373.577 105.51 374.984 109.214C376.78 113.943 378.933 122.429 381.095 126.337C384.966 133.337 382.104 131.651 381.82 132.113C380.891 127.428 380.185 124.991 377.459 122.238C371.553 116.271 374.187 117.973 371.304 114.466C369 111.664 366.967 110.506 364.551 107.246C361.352 102.931 362.898 103.173 358.312 100.276C351.158 95.7575 341.877 96.7799 338.788 91.9372C332.396 81.9174 330.846 87.026 320.159 83.5089C320.334 82.1358 320.574 80.6069 320.556 79.0195C320.552 78.6771 320.316 76.6429 320.205 76.3663C319.256 74.0016 320.04 75.868 318.708 74.3489L318.895 81.4344ZM254.152 175.727L254.332 173.652C259.475 174.865 269.442 171.808 274.62 170.971C292.651 168.054 282.191 168.72 292.323 165.207C297.256 163.497 309.819 163.282 312.207 161.83C317.383 158.683 317.644 156.804 329.3 156.372C330.319 158.554 330.792 160.723 332.001 162.258C339.778 172.126 332.911 164.576 334.462 182.053C334.229 182.166 333.75 182.427 333.596 182.523C326.738 186.775 323.59 184.38 320.313 189.076C301.334 189.566 308.932 195.062 288.499 187.166C273.849 181.505 272.403 181.434 255.446 181.028C255.458 172.868 254.979 176.496 254.152 175.727ZM304.287 108.962C309.861 106.602 312.515 100.381 316.535 96.3879C318.187 94.7465 318.789 93.5597 319.994 92.426C321.645 94.745 325.452 103.711 325.345 106.806C325.082 114.447 321.377 114.54 325.289 121.677C326.81 124.45 326.935 126.527 326.912 130.068C326.898 132.204 326.234 137.3 326.373 138.537C326.816 142.501 329.047 140.233 328.134 146.092C327.542 149.891 328.581 150.798 328.984 154.579C326.187 155.078 322.171 155.67 319.069 156.347C313.993 157.454 314.432 159.128 311.665 160.511C310.125 161.281 295.977 162.668 291.814 163.933C288.655 164.893 286.657 166.72 284.041 167.851L254.744 172.695C252.684 170.541 250.669 170.14 249.623 167.981C255.362 169.223 257.003 166.443 261.536 165.344C261.971 165.238 263.005 165.116 263.335 165.008C265.165 164.409 263.8 164.962 264.95 164.03C261.392 164.156 259.262 165.718 256.328 166.573C253.249 167.471 251.331 166.632 248.656 167.747C249.968 151.522 256.041 154.659 259.66 147.839C258.863 148.451 259.073 148.228 258.298 149.024L256.013 151.408C254.916 152.207 253.28 152.881 251.797 153.303L247.729 151.341C248.77 148.571 248.905 148.562 252.182 146.86C270.375 137.415 267.031 135.69 275.355 128.874C277.958 126.743 282.955 124.597 285.031 122.283C289.224 117.608 286.661 117.888 293.627 114.557C297.983 112.473 299.539 110.972 304.287 108.962ZM316.585 69.0723C309.647 68.0641 299.517 68.4298 294.334 65.008C286.092 59.5668 288.157 59.4409 283.851 50.7691C282.048 47.1375 281.347 45.3397 278.432 42.8931C273.651 38.8787 270.529 35.5938 266.869 29.6634C257.55 14.5607 266.944 25.8154 254.957 15.9646C251.037 12.7426 250.932 12.1378 246.357 12.4327C237.43 13.0085 234.178 9.39084 223.211 12.2099C218.162 13.5076 217.134 12.9307 212.575 11.7879C207.67 10.5585 205.77 12.7087 200.662 11.3638C194.099 9.63611 189.081 6.15774 184.51 3.06262C189.87 3.23654 190.738 4.32223 195.137 5.43069C197.444 4.44964 199.278 3.01916 201.693 2.50433C206.285 1.52511 206.01 2.28909 209.451 3.34558C213.187 4.49283 218.427 1.23102 225.23 1.74789C237.869 2.70825 253.447 0.724728 259.769 2.76178C262.352 3.59396 264.168 4.08575 266.078 5.65063C274.262 12.3552 271.442 5.83053 278.401 11.9314C281.658 14.7866 281.994 13.1912 285.385 14.3403L291.585 17.3379C301.913 22.0654 293.977 28.1062 305.428 30.6971C307.44 39.6734 310.669 39.2221 313.153 47.735C314.159 51.1836 314.088 55.1187 314.379 59.0178C314.864 65.5169 315.409 63.8703 316.585 69.0723ZM271.445 80.0794L271.141 80.3908C276.765 78.3315 273.419 78.116 276.295 76.3444C278.541 74.9609 276.541 77.1347 281.896 73.3642L294.863 69.2842C298.847 68.0972 303.509 72.0196 306.637 73.6778C311.302 76.1518 315.416 75.3439 316.312 81.2067L306.814 78.8786L306.41 79.2847C307.651 80.5844 310.217 81.2491 312.441 81.9456C316.441 83.1985 316.689 81.7973 317.419 85.9732C313.771 85.1089 312.159 82.3436 302.184 80.9278C298.029 80.3383 288.503 80.8896 284.347 81.9291C277.605 83.6157 278.811 87.7399 274.909 92.0106C272.305 94.8597 271.442 93.3718 270.026 96.498C269.035 98.6831 269.04 102.021 268.326 104.778C267.833 106.642 266.916 107.6 269.594 107.6C272.022 93.4967 270.742 98.7061 276.095 93.1711C279.908 89.2283 279.041 84.3119 285.992 83.0445C299.371 80.6061 308.74 82.8718 318.174 88.9522C318.096 94.204 314.97 95.9168 312.502 99.3238C304.235 110.741 294.722 110.319 288.035 115.985C285.803 117.876 286.566 118.214 284.836 120.453C282.743 123.161 273.228 128.029 270.768 131.229C267.854 135.019 266.334 136.602 262.271 139.035C260.087 140.342 261.279 139.455 259.604 140.262C256.982 141.526 258.704 140.647 257.342 141.994C254.104 145.195 253.33 144.082 247.683 148.217C247.526 147.608 247.077 145.796 246.984 145.565C246.339 143.967 246.847 145.109 245.973 144.052L245.521 144.057L246.588 151.845L249.752 153.683C251.409 164.334 241.228 166.373 252.001 171.575C252.242 172.291 252.593 173.837 252.716 174.116C253.416 175.696 253.369 175.19 254.152 175.727C254.154 177.425 254.467 179.032 253.665 180.877C253.619 180.982 252.397 182.743 252.394 182.747C251.483 184.349 252.303 182.452 251.773 184.419C255.719 184.777 259.778 186.012 263.938 186.939C271.754 188.681 272.516 190.469 274.741 189.13C267.03 184.822 270.911 187.925 269.625 184.759C266.414 185.333 270.07 187.403 262.298 185.445C259.372 184.708 256.205 184.375 254.292 182.989C259.122 181.62 270.881 182.804 276.258 183.964C282.439 185.296 288.052 189.002 293.997 191.037C306.875 195.445 304.022 191.933 314.612 190.619C316.686 190.362 318.363 190.726 320.34 190.066C323.456 189.025 322.578 186.197 333.746 185.278C333.575 189.591 331.897 192.185 330.233 194.461C331.858 197.731 332.576 198.698 330.707 202.859C327.386 210.258 328.172 214.376 309.907 214.05C302.356 213.916 291.849 210.326 286.338 205.609C284.497 204.033 283.155 201.387 280.281 201.396L283.646 205.219C295.75 216.49 310.165 214.564 320.612 214.834C326.99 214.999 333.517 209.589 337.402 205.696C345.456 197.626 334.988 203.801 346.361 187.519C356.376 188.794 352.754 188.307 361.533 186.393C364.16 185.821 366.738 185.962 369.35 185.601C371.901 185.247 373.611 184.284 375.831 183.632C377.488 185.151 378.727 186.99 380.651 188.099C398.955 198.652 388.891 193.953 395.186 201.446C398.936 205.909 395.674 209.241 395.174 215.38C394.495 223.73 396.849 231.366 388.786 236.856C386.331 238.527 385.496 239.416 383.537 240.962C379.654 244.025 374.934 243.033 369.762 245.729C365.551 247.924 364.571 252.254 361.949 256.573L354.312 267.098L354.522 267.246C359.422 264.705 362.018 258.875 365.343 253.014C371.005 243.034 371.372 247.837 380.507 244.073C386.779 241.489 384.955 241.344 387.807 239.016C390.952 236.449 392.384 237.333 394.167 233.724C397.492 226.991 396.321 215.111 397.545 213.177C398.301 214.589 401.14 226.748 401.086 229.259C401.05 230.883 398.923 245.398 398.205 246.286C396.626 248.24 395.276 247.787 392.904 251.092C381.646 266.784 390.613 264.889 382.914 270.56C379.025 273.426 376.125 277.624 373 280.86C359.141 295.209 357.902 286.831 345.257 292.619C339.902 295.071 340.627 293.074 336.736 294.168C332.596 295.333 335.154 296.882 328.528 296.135L327.357 296.437C328.92 300.121 336.174 296.091 337.443 295.75C339.99 295.063 340.912 295.964 343.742 295.029C350.342 292.849 350.183 291.969 360.298 291.166C368.709 290.499 378.768 276.116 382.75 272.703C385.818 270.074 387.291 270.503 388.196 265.002C389.319 258.166 388.476 259.577 392.066 254.891C397.054 248.381 391.702 253.003 398.374 247.96C402.165 245.094 400.616 242.269 401.261 237.077C401.817 232.605 403.913 232.672 402.533 225.842C401.677 221.605 400.367 219.474 399.777 214.699C397.844 199.061 399.983 207.508 395.053 199.287C392.418 194.893 394.618 194.307 385.24 188.893C380.038 185.89 381.08 187.086 377.59 182.828C384.074 174.747 383.273 176.424 386.017 165.184C387.129 160.632 388.723 159.736 387.602 154.77C384.315 140.21 388.488 140.573 380.825 121.983C378.107 115.39 376.623 109.039 373.609 102.839C371.194 97.8719 364.88 95.0342 361.62 88.4831C358.245 81.7037 353.261 80.6694 346.023 77.6686C335.877 73.4627 338.654 73.2864 325.933 71.5194C324.198 71.2786 322.407 70.7436 320.88 70.1655C315.642 68.1812 315.743 60.6153 315.373 55.6413C314.011 37.3252 311.351 43.3285 308.427 36.1469C305.086 27.9429 308.857 31.7508 302.683 28.7345C299.594 27.2252 299.425 23.3493 297.675 20.5623C294.595 15.656 281.371 12.3298 280.426 11.4896C274.931 6.60739 278.472 9.50323 271.227 7.48996C268.426 6.71154 267.037 4.29562 263.037 2.45007C253.084 -2.14298 237.829 1.98178 226.933 0.386686C222.346 -0.284762 218.87 -0.173342 214.66 1.45587C208.931 3.67254 209.644 0.522337 204.03 0.788024C199.029 1.0245 196.603 3.89246 193.723 3.51102C192.154 3.3027 191.189 2.37408 188.969 1.9032C184.045 0.858062 174.543 -0.82544 172.809 3.62601C176.075 3.66449 179.94 2.65814 183.073 4.12042C186.047 5.50903 187.072 7.2579 190.096 8.7897C202.324 14.9841 203.261 12.8188 209.884 12.991C213.554 13.0861 215.099 15.0409 220.709 14.585C224.4 14.285 226.672 13.0046 230.796 12.8281C236.07 12.6025 237.192 13.5096 241.636 14.1705C246.522 14.8967 247.612 13.0573 251.464 15.5751C257.062 19.2339 260.175 21.3082 263.504 27.5718C269.779 39.3764 277.51 43.7651 279.824 46.9268C283.577 52.0564 284.201 62.1021 294.154 67.2777C290.295 71.3647 279.489 67.9085 271.445 80.0794Z" fill="#FFFDF1"/>
<path fill-rule="evenodd" clip-rule="evenodd" d="M201.264 197.584C201.429 197.324 202.413 195.519 202.417 195.513C203.672 194.129 202.606 194.869 204.554 194.184C203.48 196.321 203.338 196.418 201.264 197.584ZM202.925 145.661C203.644 148.685 203.623 146.889 204.836 149.043C202.972 149.274 203.886 149.499 202.385 148.452C201.283 147.683 199.907 145.771 196.599 143.856C198.005 146.199 199.571 147.265 201.695 149.186C203.99 151.261 204.737 151.129 203.67 154.713C196.444 153.293 197.363 151.182 192.614 148.369C194.354 151.232 197.495 153.532 200.597 154.913C204.357 156.586 204.895 159.433 203.522 163.356C199.426 162.317 194.302 159.247 191.855 156.626C186.795 151.203 184.306 155.075 179.194 150.671C175.692 147.654 178.115 148.948 173.154 147.353C171.238 146.737 168.679 144.977 167.757 143.561C166.312 141.342 166.526 139.711 163.969 137.984C162.232 136.809 159.841 136.024 158.419 134.971L143.565 121.927C142.142 120.94 142.382 121.273 140.855 119.993C139.69 119.016 139.95 119.161 138.701 118.292C126.716 109.944 127.244 106.608 127.149 93.4748C128.7 92.1332 131.005 91.1067 132.061 88.7261C135.831 80.2241 140.542 78.0527 151.949 81.7275C171.45 88.0095 160.342 84.3233 176.276 96.2391C186.728 104.055 179.713 102.194 183.955 108.72L199.322 132.084C202.32 137.78 203.527 139.685 207.568 143.304L206.053 147.425C205.991 147.385 204.495 146.394 204.483 146.387C203.23 145.654 204.083 146.122 202.925 145.661ZM209.099 141.733C207.315 139.679 205.119 138.853 203.775 136.99L184.578 106.535C180.974 97.6618 187.54 102.838 176.743 94.9469C172.767 92.0412 169.965 88.8024 165.923 85.6192C160.144 81.0675 159.098 82.4235 151.949 80.1538C144.281 77.7201 134.948 77.6395 131.243 86.3428C129.979 89.3126 129.857 90.2675 126.986 91.2635C126.909 87.3057 127.958 86.1381 129.412 82.989C131.528 78.4062 129.638 79.3051 133.92 76.586C138.906 73.4209 132.929 72.1855 142.304 68.7221C143.772 68.1797 144.098 67.9765 145.972 68.4053C149.913 69.3075 149.922 70.9672 155.54 69.6985C168.079 66.867 172.735 68.122 182.732 65.5507C199.077 77.6513 188.12 66.3217 203.6 89.0934C214.763 105.514 208.84 98.0469 212.101 109.287C212.955 112.23 215.584 115.543 216.524 119.476C217.476 123.453 217.95 127.979 218.734 132.049C219.705 137.091 219.895 137.827 216.854 141.355C212.825 141.434 213.491 140.256 209.099 141.733ZM129.63 288.607C130.02 288.735 131.791 289.337 132.023 289.474C134.254 290.79 131.883 288.946 133.475 291.135L118.91 290.891C120.401 288.678 121.34 287.732 125.346 287.679C127.074 287.656 128.246 288.152 129.63 288.607ZM203.145 351.768C202.567 352.237 202.792 352.392 201.626 352.881C199.886 353.611 197.854 353.189 195.925 353.151C192.757 353.089 190.944 353.334 188.035 354.03C180.024 355.946 180.448 354.333 173.447 353.884C170.474 353.693 167.881 354.24 164.918 353.984C151.726 352.842 151.502 355.192 144.416 352.2C127.364 345 126.277 348.779 116.224 346.942C112.557 346.272 98.1832 337.244 96.7406 334.167C100.339 338.55 102.678 337.055 105.832 338.093C116.347 341.552 113.882 337.509 122.944 339.566C134.39 342.165 137.362 334.888 151.439 340.588C157.765 343.15 170.578 349.003 176.856 347.528C190.101 344.417 190.51 349.658 195.872 351.314C197.882 351.935 200.813 351.711 203.145 351.768ZM226.491 343.943C227.704 338.473 226.95 342.718 224.613 341.035C222.43 344.176 224.146 340.955 223.407 344.112C222.673 345.012 225.007 343.797 222.027 345.257L207.55 350.49C196.159 352.47 192.68 347.189 189.065 346.159C174.768 342.084 183.509 352.374 154.183 340.082C147.381 337.231 143.178 335.769 134.846 337.45C119.56 340.533 124.802 336.46 115.705 337.688C109.076 338.583 111.006 338.211 105.911 336.477C101.945 335.126 101.448 336.564 98.1995 333.258C94.6464 329.642 88.2437 326.499 85.886 324.039C87.5994 318.732 90.9215 318.708 93.4421 315.313C100.972 305.173 103.715 309.45 114.593 296.899C116.347 294.875 116.332 294.237 117.598 292.417C121.868 292.598 132.507 292.916 135.227 291.228C141.386 287.405 144.707 289.893 151.006 289.179C147.334 286.091 140.124 288.39 135.955 288.713C131.782 289.037 129.375 285.871 121.842 286.419C125.748 282.062 139.042 274.433 141.662 273.619C148.921 271.363 147.731 274.514 153.996 268.877L162.548 261.177C158.854 262.591 154.402 267.37 152.879 268.518C147.755 272.381 145.343 270.408 139.973 272.684C138.038 273.505 136.927 274.915 134.941 276.133C131.791 278.064 122.605 280.424 119.931 286.61L103.806 279.558C101.582 278.308 102.107 277.451 99.5917 276.068C94.298 273.158 93.1684 276.097 88.457 271.662C85.5482 268.924 82.8896 268.424 81.9638 263.44C87.065 263.256 88.6795 264.296 93.1159 262.279C102.773 257.886 98.1121 261.459 110.078 255.943C119.237 251.721 124.245 256.06 136.565 246.767C144.664 240.657 143.801 246.212 159.838 234.411C164.329 231.107 174.227 228.254 179.765 219.397C184.191 212.319 184.303 214.732 187.104 212.172C188.632 210.775 187.404 210.864 191.843 207.496C194.245 205.674 195.925 203.685 198.152 202.142L205.221 197.402C206.318 198.715 206.888 199.829 207.403 200.664C204.026 206.056 203.97 203.508 203.102 206.716C207.166 205.298 206.463 205.072 210.398 198.911C213.926 202.443 213.392 203.795 209.121 206.837C201.773 212.07 200.235 218.585 189.301 229.736C187.976 231.088 188.702 229.958 188.086 231.766C195.758 228.189 207.862 203.7 215.039 206.244L216.368 205.968L215.521 204.439C215.436 204.323 215.257 204.132 215.162 204.005C212.305 200.183 213.61 200.532 212.121 197.712L207.428 198.547C203.737 187.544 197.077 186.299 197.536 172.004C200.784 171.055 205.38 168.481 206.043 167.255C206.803 165.182 205.232 157.798 205.557 154.172C206.005 149.171 208.493 144.665 211.425 142.556C213.147 141.983 215.476 144.189 218.742 142.118L222.282 139.103C233.643 139.601 223.969 136.141 233.136 136.945L233.111 136.594C230.268 132.145 232.813 121.569 231.12 115.872C229.777 117.577 230.513 115.124 230.083 117.57L230.725 130.916C230.834 134.586 231.55 134.324 229.262 135.275C228.301 134.405 228.123 136.009 228.152 131.702C228.233 119.689 226.9 129.172 227.474 117.873C225.395 118.201 226.272 117.451 225.959 120.037L224.93 117.792C224.543 118.706 224.245 118.812 224.456 120.057C225.35 125.318 227.564 117.741 226.972 132.437C226.824 136.125 227.501 136.055 226.3 137.64L224.986 134.295C224.623 132.608 224.613 131.439 224.496 129.311C224.246 124.792 224.102 122.604 221.704 120.468C223.42 127.118 223.118 131.16 224.332 137.275L221.46 137.304C219.175 117.766 213.547 110.947 212.802 105.283C211.401 94.6476 209.544 96.2809 203.943 87.2137L193.183 70.7783C190.97 68.9672 189.468 69.3246 185.368 65.3572C186.515 65.2321 200.831 65.6834 202.064 65.8462C206.343 66.4104 210.827 71.7596 215.252 67.013L215.299 66.5828C204.946 68.2957 208.017 64.196 200.6 64.334C194.297 64.4513 189.407 63.6424 183.395 63.7603L180.289 56.4239C178.414 56.4239 178.752 55.9494 179.153 57.7473L182.153 64.3493C174.381 65.8622 169.071 65.8431 161.469 66.7479C157.796 67.1851 154.834 68.9366 151.757 68.7245L144.783 66.5228C142.642 65.7992 144.588 66.8053 143.044 65.5125C145.754 64.2997 147.607 63.9523 150.395 62.1042C159.763 55.8959 161.832 58.3423 167.957 57.7528C170.847 57.4747 171.987 56.0595 174.289 53.0468L174.197 52.6204C170.532 54.0201 170.767 55.5216 168.587 56.1543C166.43 56.7805 162.747 56.0106 160.216 56.2931C157.249 56.6242 143.227 64.1573 142.758 64.5142C136.556 69.2351 136.558 70.1813 134.814 73.6537C133.619 76.034 134.575 74.626 132.925 75.6029C132.445 75.8867 131.993 75.9885 131.308 76.3661C129.101 77.5803 125.664 88.2405 125.337 92.7736L115.682 100.916L114.519 102.99L116.84 101.403C119.212 101.057 123.24 95.9532 125.489 94.6745C126.054 105.653 125.944 108.623 132.288 114.632C137.431 119.504 140.944 121.589 146.92 126.361C148.401 127.544 149.191 128.387 150.463 129.811L161.804 138.639C167.361 141.674 164.402 143.465 167.552 146.043C170.36 148.341 176.623 149.522 176.532 150.481C176.527 150.529 176.566 150.774 176.554 150.833L175.586 152.587C180.422 152.102 178.122 152.472 181.491 153.917C183.746 154.884 184.516 154.273 186.533 154.802C188.17 155.231 191.036 158.395 194.187 160.968L192.214 160.951L191.318 162.251L201.22 166.221C186.365 166.355 187.622 162.126 176.528 160.386C176.461 160.266 176.397 160.058 176.376 160.004C176.356 159.951 176.258 159.694 176.234 159.633L175.677 158.293C174.497 158.996 174.301 161.349 168.393 159.082C166.338 158.293 164.733 157.171 162.449 156.483C157.133 154.882 151.381 156.405 145.995 155.133C139.178 153.522 128.568 147.543 116.002 149.71L116.034 150.292C118.381 151.124 122.835 150.545 126.551 151.273C131.84 152.309 132.326 152.345 137.211 153.961C155.282 159.936 151.102 155.438 160.128 157.492C163.461 158.25 166.359 160.135 169.768 160.868C173.577 161.687 176.903 161.661 180.828 163.078C183.995 164.221 187.119 166.171 190.025 167.125C196.629 169.293 198.337 165.518 199.959 169.644C196.667 172.579 186.197 168.172 181.606 166.883C184.102 171.395 186.852 168.938 194.69 172.156C190.495 175.627 188.888 171.311 181.947 171.506C174.548 171.714 172.439 171.82 169.548 168.699C169.474 168.863 169.394 169.112 169.345 169.2C169.295 169.288 169.157 169.587 169.099 169.683C169.04 169.781 168.846 170.054 168.79 170.142C167.809 171.669 159.04 172.924 156.369 172.984C145.692 173.226 138.921 174.54 129.368 179.095C123.748 181.775 126.597 180.075 125.846 181.468L125.934 182.345C130.265 178.737 135.527 178.306 141.178 176.099C147.119 173.779 153.568 174.943 160.186 174.085C163.198 173.695 165.454 172.609 169.036 172.356L187.57 174.133C191.815 175.877 191.89 175.576 196.105 173.906L196.296 179.19C189.219 180.573 188.35 182.399 182.528 184.901C177.567 187.032 173.218 186.668 170.154 191.129C168.3 193.827 168.015 194.013 164.079 195.227C148.093 200.157 152.481 201.081 148.715 203.086L116.705 213.739C106.811 216.715 99.8703 209.832 96.3064 207.91C91.9852 205.58 93.4702 208.298 90.7775 203.77C88.2427 203.77 88.5322 203.168 88.4066 205.243C89.5988 207.675 91.9465 207.285 94.8529 208.693C96.5607 209.52 98.8776 211.164 100.596 212.211C111.242 218.694 117.256 214.482 124.234 212.832C127.686 212.016 128.366 211.654 131.299 210.577C137.239 208.396 147.373 206.539 151.672 202.17C156.616 197.147 166.589 197.717 170.681 192.501C172.626 190.023 172.764 189.8 176.581 188.392C183.296 185.915 192.894 181.121 196.485 180.907L202.864 192.134C202.033 193.749 201.96 193.514 201.011 194.958C199.341 197.501 200.347 195.643 199.813 197.542L201.264 197.584C200.498 198.818 201.822 197.621 199.829 199.099L188.708 208.168C182.509 213.131 181.577 214.906 177.671 220.421C173.354 226.517 162.78 230.338 157.021 234.654C143.616 244.698 147.331 236.866 134.758 246.531C128.772 251.133 126.345 250.391 118.201 252.362C111.456 253.996 105.934 257.288 100.653 258.302C91.2006 260.119 93.9127 263.051 81.9101 261.694C80.8231 257.303 79.8327 257.413 76.9012 255.306C74.5791 253.637 73.6526 251.733 71.6434 250.023L71.5607 250.794C72.0215 251.947 71.4269 251.174 72.6087 252.618C76.7694 257.704 77.6305 255.024 80.4465 261.062C80.3584 261.31 80.2553 261.663 80.1899 261.81C80.1423 261.918 80.0051 262.242 79.9586 262.34C79.5606 263.174 79.5849 262.868 79.5849 262.551C81.004 264.026 80.8877 265.581 82.4316 267.591C89.661 277.004 95.3458 275.729 97.4727 276.698C99.9463 277.827 100.011 279.137 102.187 280.416C103.996 281.479 105.612 281.668 107.689 282.671C109.792 283.687 116.945 287.567 117.746 289.072C116.292 291.082 117.751 290.851 114.529 290.771C112.107 290.711 107.626 288.657 105.316 286.622C99.0753 281.125 98.1289 285.014 90.9145 283.153C88.6231 282.563 86.7207 281.22 84.7773 280.01C83.9259 279.48 82.6929 278.757 81.9933 278.138C81.1322 277.375 76.2817 270.89 70.3398 269.085C71.2806 270.78 77.7393 275.344 79.3068 276.948C82.0202 279.725 85.1277 282.423 89.3804 283.955C96.1743 286.402 96.8941 282.186 103.253 287.135C106.119 289.366 110.768 291.568 115.528 292.117C113.593 297.687 111.81 297.424 108.515 300.969C105.933 303.748 103.071 305.272 99.3855 307.274C96.3309 308.932 85.6963 320.347 84.1549 323.971C87.456 329.439 91.2326 331.384 92.5295 332.728C94.3673 334.632 92.7753 334.001 95.3016 336.183C98.8422 339.242 105.592 342.595 109.505 345.243C115.919 349.585 119.943 348.254 129.21 348.98C141.759 349.963 140.671 356.995 169.549 355.171C178.13 354.629 179.671 356.874 189.816 355.152C202.24 353.044 193.812 356.972 209.341 351.382C214.798 349.418 222.693 347.431 226.491 343.943Z" fill="#FFFDF1"/>
<path fill-rule="evenodd" clip-rule="evenodd" d="M99.2162 117.943C102.053 115.644 104.201 116.673 106.294 113.352C108.9 109.218 106.571 110.233 111.467 107.545C109.999 110.264 110.862 108.356 108.577 110.303C107.164 117.842 108.634 116.432 104.737 123.479C101.991 128.443 100.743 130.058 100.951 136.612C99.3036 136.112 91.6875 133.135 90.3741 132.419C91.7555 127.696 90.7483 127.385 93.9104 124.246C95.7001 122.47 98.0662 118.875 99.2162 117.943ZM89.1468 143.599C88.7764 139.283 91.0481 141.634 89.3613 134.543C96.3907 135.649 95.9464 137.073 100.607 138.427C99.8629 140.612 100.293 139.202 99.3387 141.396C99.0524 142.055 98.903 142.476 98.6562 143.077L98.1804 144.42L89.1468 143.599ZM87.8783 145.151L100.437 146.379C103.537 153.14 93.3067 163.61 90.1818 170.201C88.7266 173.271 89.0878 173.861 86.8567 176.135C80.9709 182.131 81.1415 188.702 82.8198 196.942C78.203 193.89 79.9405 189.39 80.3938 184.365C80.8386 179.439 81.7548 175.259 83.5747 171.305C85.3608 167.426 88.64 164.679 88.6901 160.353C88.7377 156.252 87.877 150.05 87.8783 145.151ZM67.1789 111.529C63.6353 107.352 61.6681 99.1031 62.96 92.3582C63.404 90.0405 68.9086 77.2405 70.6942 75.419C75.1337 70.8901 76.0866 75.4617 81.5165 62.2806C84.6313 54.7198 88.8284 53.5209 92.9337 48.8074C97.9354 43.0646 96.0805 40.8032 107.16 39.2843C121.983 37.2524 126.113 30.2654 127.885 29.3014C128.576 28.9257 138.931 26.305 143.078 27.8138C151.335 30.8185 157.315 25.3721 163.627 30.8278C161.187 32.9284 162.381 31.7166 158.627 32.2537C155.945 32.6372 156.046 32.8693 154.406 34.3011C148.485 39.4707 137.713 34.7262 132.669 38.9099L126.118 45.6172C118.426 46.475 119.362 44.1886 116.577 51.5937L106.925 65.141C105.954 66.0391 103.4 67.4833 102.365 68.3434C98.2845 71.7334 100.326 74.8456 96.1289 77.5897L91.4229 80.6531C89.1292 81.6842 87.3519 81.5698 85.4198 82.4449C81.1485 84.3793 82.2063 91.0954 75.3234 95.612C65.5403 102.032 70.8177 96.0084 68.736 108.255C68.2966 110.841 67.6994 110.946 67.1789 111.529ZM22.7148 126.513C33.8808 125.108 31.2941 130.15 40.0289 130.041C43.8908 129.993 45.5366 128.158 49.935 129.409C52.7063 130.197 54.0776 130.866 57.8886 131.555C62.6987 132.424 68.9621 136.081 71.7073 138.758C75.1583 142.124 80.5499 143.836 86.4305 144.941C85.9881 150.131 87.3397 156.795 86.9531 160.928C86.3646 167.223 80.5835 166.442 78.6436 185.178C77.6636 194.644 77.6559 190.772 80.6127 198.371C72.0508 200.106 71.682 197.879 62.7626 205.549C50.4545 216.133 52.6438 224.422 57.3678 239.905C59.0064 245.275 57.5327 245.796 58.1166 250.166C58.5474 253.391 60.6873 254.967 61.1946 258.848C49.4649 256.385 45.3818 244.028 41.0048 242.735C42.1737 245.485 44.6936 248.14 46.696 250.62C51.8338 256.982 49.3238 253.071 54.0719 257.394C35.6403 253.702 44.0702 256.082 37.7518 248.763C35.9755 246.705 37.2933 247.935 35.0606 246.899C43.0897 260.351 40.7474 255.787 52.2995 258.108C54.7191 258.594 61.7495 259.831 63.2014 261.241C65.8378 263.802 65.3814 266.747 70.3381 269.085C69.0753 264.995 67.1696 266.506 64.795 260.828L79.5831 262.551C79.5831 262.868 79.5588 263.174 79.9568 262.34C80.0033 262.242 80.1406 261.917 80.1881 261.81C80.2535 261.663 80.3566 261.31 80.4447 261.062L63.3506 259.443C58.0075 247.591 59.9153 252.497 60.0022 246.573C60.0665 242.176 57.8736 236.159 56.991 232.271C57.1306 232.425 57.3226 232.624 57.4133 232.73C57.5025 232.834 57.7188 233.056 57.8253 233.184C64.6283 241.362 63.3534 236.316 65.507 240.308C67.572 244.136 67.7237 248.962 71.559 250.794L71.6417 250.023C68.2377 246.346 68.1186 240.033 63.8804 237.348C60.1557 234.989 61.2435 235.996 59.0439 232.047C57.9145 230.02 56.5274 227.841 55.5223 225.481C55.6089 225.304 55.5303 225.016 55.7712 224.946L56.9766 223.184C51.6883 221.364 58.0388 211.173 63.28 206.837L70.3502 201.512C72.4762 200.386 79.4329 199.931 81.9137 199.86C84.7858 203.178 84.0213 203.546 88.4048 205.243C88.5304 203.167 88.2409 203.77 90.7757 203.77C86.9883 202.728 85.7273 199.962 85.2934 196.787C96.8331 187.885 97.0804 194.449 106.377 191.805C113.56 189.762 122.35 186.361 125.932 182.344L125.845 181.468C122.706 183.075 121.891 184.628 117.203 186.254C113.671 187.48 110.038 188.862 106.972 189.987C100.848 192.236 99.5721 188.92 93.6465 190.587C89.8647 191.652 87.3521 193.672 84.2281 195.184C80.7494 184.38 87.0984 179.253 89.2419 176.18C89.9505 175.164 94.542 164.348 98.5639 159.919C100.536 157.748 103.583 150.969 102.524 146.032L116.032 150.292L116 149.71C115.264 149.125 116.285 149.606 114.482 148.717C114.388 148.67 112.564 147.922 112.264 147.792L100.625 143.277L101.977 139.35C107.445 140.042 105.148 140.867 111.775 139.906C123.716 138.173 129.382 147.232 136.247 147.77C140.166 148.077 142.711 147.301 146.948 148.157C150.685 148.911 152.564 150.173 156.359 150.512C160.864 150.914 165.331 151.473 169.446 153.501C173.016 155.26 171.687 153.973 171.931 157.13C177.148 154.657 180.776 160.609 191.316 162.251L192.212 160.951C189.506 159.398 191.519 161.384 184.55 157.435C184.435 157.37 184.223 157.251 184.111 157.202C184.014 157.159 183.791 157.108 183.696 157.077L173.186 153.543C164.428 149.423 159.515 150.095 149.953 147.231C138.208 143.714 138.671 149.306 126.97 141.624C119.1 136.457 111.064 139.825 102.772 137.678C102.166 125.094 109.188 123.438 110.101 111.481C112.466 109.122 112.148 110.46 113.496 107.475C115.178 103.75 115.273 105.401 116.839 101.403L114.517 102.99L115.681 100.916C112.333 102.483 113.636 103.136 110.172 106.4C109.395 107.132 109.08 107.16 107.933 108.024C103.723 111.198 107.718 112.629 100.719 115.524C95.5076 117.679 97.5314 118.973 93.3341 122.891C89.2527 126.702 90.507 129.656 88.1176 132.042C86.0791 131.025 83.9634 128.221 81.8463 126.284C79.1598 123.827 77.407 122.968 74.1806 120.737C69.372 117.41 69.6266 106.617 70.8661 100.624C72.9778 98.1054 73.6322 98.3701 76.4027 96.6897C82.4487 93.0232 83.2923 86.1672 84.6126 84.7365C86.046 83.1835 89.5138 82.9126 91.8958 81.9574C103.498 77.3049 96.9611 74.2245 107.165 66.9302C110.095 64.8361 109.785 64.6306 111.762 61.4836C113.319 59.0048 114.696 58.1104 116.209 55.841C118.079 53.0358 118.125 50.8882 119.369 48.9654C121.695 45.3702 123.436 48.8299 127.248 46.7058C127.866 46.3615 131.788 42.2549 132.283 41.6338C137.137 35.5514 146.511 39.5821 153.069 37.5791C156.332 36.5821 156.79 31.7924 164.893 34.5034L167.051 39.9669C169.056 39.9669 168.996 40.6117 168.418 38.9882L166.725 34.7657C167.253 34.6254 168.62 34.3887 168.797 34.3181C172.057 33.0182 170.062 33.8684 171.201 32.8292L169.826 32.3898L166.446 32.5847C165.626 31.6616 165.974 32.3736 165.284 31.0622C165.28 31.0545 164.749 29.5932 164.713 29.4948C168.745 28.1062 168.267 25.3165 174.978 25.9569C180.193 26.4544 182.797 27.9356 187.615 29.0828C191.181 29.538 188.631 29.4896 189.687 27.7014C182.605 26.1296 173.533 21.6019 167.401 25.5985C165.35 26.9352 164.396 27.4399 162.19 26.5803C162.999 20.0353 162.676 13.0596 167.872 9.00564C170.425 7.01382 172.208 8.86327 172.809 3.62515L170.469 3.72311C167.315 9.99862 170.098 2.15228 162.946 12.682C161.665 14.5684 160.304 24.2533 160.531 27.0543C153.252 25.3287 150.496 28.1 145.996 27.2445C139.91 26.0867 145.034 24.2151 133.356 26.4795C115.971 29.8504 126.296 33.3611 112.666 36.6332C99.3726 39.8245 100.654 36.373 92.0835 47.1855L86.1749 52.9221C81.4087 57.4888 82.0579 58.9842 78.8551 64.9552C72.6155 76.5878 71.7233 67.5118 65.3739 82.4921C60.1683 94.7739 59.3943 96.2586 63.2451 106.851C64.5549 110.454 62.5881 108.99 65.5248 112.366C72.8705 120.812 66.3312 118.005 76.9617 124.235C81.8052 127.073 80.8513 127.925 84.9838 131.669C88.7379 135.07 89.9386 138.08 86.5667 143.15C73.0049 142.299 71.1343 132.599 58.498 130.333C50.0061 128.81 50.8124 127.574 41.6039 128.708C36.0274 129.395 31.3693 126.816 26.0769 123.37C24.7738 124.101 23.3924 124.764 22.1953 126.272L22.7148 126.513Z" fill="#FFFDF1"/>
<path fill-rule="evenodd" clip-rule="evenodd" d="M274.216 240.157C273.423 235.679 270.794 235.309 266.98 229.652C264.278 225.645 262.287 222.204 260.084 217.951L247.062 196.762C246.262 195.711 246.795 196.606 246.229 195.438C253.463 194.861 266.873 200.608 271.479 204.231C277.206 208.736 288.994 218.788 293.387 224.926C301.506 236.269 301.778 245.336 303.46 257.336C304.422 264.202 302.761 267.192 301.349 273.163C296.703 271.942 294.152 270.338 291.05 268.338C287.254 265.892 287.295 264.314 285.219 259.494L275.542 241.236C274.466 239.962 275.293 240.862 274.216 240.157ZM274.216 240.157L281.362 255.551C286.972 264.432 284.628 266.721 289.805 269.671L300.101 275.113C296.457 282.471 297.9 285.35 295.291 292.36C293.813 296.331 290.008 304.7 287.967 307.449C286.413 309.542 284.08 310.758 282.25 312.589C279.05 315.791 280.384 315.474 275.322 317.24C268.907 319.478 263.761 320.494 256.82 320.492C262.991 313.57 258.346 311.782 265.498 307.51C270.15 304.731 272.859 299.831 275.531 294.95C283.662 280.093 275.902 272.183 275.148 268.796C273.636 261.995 277.847 249.256 270.435 239.369C268.936 237.37 266.253 235.661 265.143 233.741C263.232 230.439 263.777 229.212 261.173 226.119C257.181 221.381 255.863 222.296 253.05 211.767C251.764 206.953 245.844 202.856 245.115 200.261C243.72 195.3 248.714 199.095 252.546 207.657L274.216 240.157ZM263.88 321.357C267.203 320.931 270.937 319.845 273.654 319.714C260.814 325.381 264.409 324.68 257.831 328.513L242.196 335.365C237.508 335.68 241.766 335.712 239.879 334.668C242.583 333.458 244.212 331.758 247.226 329.544C259.168 320.769 248.335 323.349 263.88 321.357ZM189.768 273.555C193.871 271.691 193.668 271.064 196.817 268.282C199.666 265.766 200.617 265.874 202.528 262.333C205.398 257.014 209.599 253.457 210.665 246.422C212.169 236.49 216.019 232.349 216.788 228.514C218.382 220.575 215.562 215.378 220.428 208.823C222.78 211.414 220.752 213.631 221.666 218.344C222.475 222.516 220.333 223.765 221.506 226.778C225.586 220.131 219.09 214.973 224.608 209.065C226.839 212.081 225.084 212.463 226.664 217.242C229.902 212.242 222.178 207.887 228.486 206.545L230.984 217.659C231.315 221.398 229.808 225.848 232.899 227.671L230.796 206.918L236.356 204.584C237.321 211.531 239.32 218.224 243.841 221.382C243.475 215.655 240.586 222.055 237.686 206.137C236.802 201.282 237.783 202.07 239.144 201.006C240.247 203.065 241.739 204.34 242.56 206.77C243.394 209.238 242.846 210.789 245.326 212.23C243.178 206.468 244.261 206.708 240.786 202.325C238.962 200.024 239.783 201.363 238.853 198.709C244.105 199.13 243.68 201.446 245.926 204.17C247.781 206.42 249.747 207.384 251.047 210.683C252.35 213.989 252.182 215.643 253.971 219.37C257.034 225.752 259.629 223.68 262.873 232.885C264.754 238.221 264.988 235.905 267.763 238.948C274.743 246.6 272.352 258.015 273.095 267.397C273.497 272.479 281.925 279.52 274.066 294.373C270.612 300.9 272.01 297.437 269.393 301.334C266.408 305.778 268.688 303.544 263.919 306.656C261.479 308.248 260.087 310.247 259.036 313.442C257.459 318.237 256.717 316.718 255.116 320.367C244.457 318.395 248.282 319.764 239.509 322.54C232.623 324.719 221.125 324.997 215.049 323.535C211.572 322.698 210.003 323.095 206.857 324.119C193.653 328.42 196.811 330.301 194.891 331.266C191.554 331.526 181.039 333.827 180.462 333.785C178.148 333.617 177.496 331.822 174.67 331.267C172.14 330.771 162.496 334.993 152.832 330.52C143.686 326.287 150.143 325.916 144.302 322.213C144.152 318.557 144.05 314.921 146.001 312.045C147.969 309.142 148.275 306.397 150.055 304.482C154.507 299.69 160.741 299.979 165.783 296.969L179.051 286.132C185.692 275.982 188.42 276.401 189.768 273.555ZM223.407 344.112C224.146 340.955 222.429 344.176 224.612 341.035C226.95 342.718 227.704 338.473 226.49 343.943C229.401 340.507 227.624 339.469 237.079 337.402C250.668 334.431 245.837 333.974 256.64 330.428C259.455 329.505 259.808 328.629 262.236 326.696C265.339 324.225 270.938 323.378 274.337 320.964C275.827 319.905 277.879 318.574 279.27 317.358C284.51 312.777 289.637 309.431 292.097 303.013C293.818 298.521 295.971 295.433 297.625 290.779C299.621 285.162 298.118 281.027 301.837 276.441C302.236 277.065 305.77 280.202 307.051 281.834C309.175 284.539 309.657 285.645 311.768 288.706C312.987 290.474 324.922 296.31 327.359 296.436L328.53 296.134C325.219 294.757 323.18 293.257 320.406 291.754C316.325 289.543 313.825 290.053 312.813 285.63C318.539 287.087 337.114 288.579 341.943 286.195C344.004 285.177 349.527 280.853 350.65 279.418C352.442 277.128 351.936 276.426 352.461 273.556C353.061 270.271 354.084 270.236 354.524 267.245L354.314 267.098C349.44 269.877 352.744 275.872 347.64 280.259C343.146 284.121 340.602 286.579 332.404 285.914C326.754 285.456 318.941 285.987 313.873 284.353C307.889 282.424 305.9 278.497 302.728 274.338C307.079 260.018 306.501 268.007 304.525 252.623C303.56 245.106 305.542 243.611 299.06 230.913C296.84 226.563 291.544 218.492 287.851 215.752L278.041 207.711C273.769 204.338 268.43 198.819 261.358 197.16C256.686 196.063 251.562 195.39 249.767 191.593C260.157 192.67 269.493 202.131 280.283 201.396L264.441 195.681C253.081 190.397 262.088 193.569 248.85 189.807C248.942 186.817 247.941 189.31 249.89 187.117C251.958 187.01 261.472 191.884 264.056 192.669C262.274 188.602 255.864 188.712 252.527 186.798L251.775 184.418C248.731 185.048 248.406 186.425 246.752 189.072L248.633 193.685C243.474 196.102 246.124 193.153 243.989 197.366L239.343 197.749C237.893 199.466 237.26 200.207 236.022 202.015C232.423 207.272 230.381 203.813 224.925 206.423L221.663 207.713C221.577 207.722 221.548 207.803 221.536 207.679L216.367 205.968L218.958 208.476L217.289 210.39C216.675 213.982 215.854 214.888 215.647 220.257C215.485 224.437 215.907 227.172 214.364 230.84C205.854 251.072 213.833 243.549 201.105 262.492C198.848 265.851 190.764 270.699 189.768 273.555L186.498 275.77C174.571 285.303 181.237 284.295 172.895 289.328C170.393 290.838 169.647 292.443 167.599 294.088C163.806 297.134 157.178 298.14 152.657 300.877C147.01 304.296 146.85 308.281 145.789 310.276C145.21 311.366 144.258 312.425 143.95 313.109C141.774 317.946 143.246 325.635 145.691 330.004C146.816 332.015 155.19 336.867 158.378 338.212C164.776 340.91 168.789 340.887 175.74 341.73C181.73 342.456 187.534 344.731 193.785 345.196C190.22 342.405 170.58 340.409 166.525 339.427C161.589 338.232 158.339 337.431 154.756 334.858C152.646 333.343 152.985 333.234 150.179 331.661C148.159 330.528 147.546 330.121 146.742 328.222C151.829 333.982 164.79 334.623 170.382 333.346C179.136 331.346 174.927 336.092 182.661 334.786C184.85 334.417 186.483 333.536 188.921 333.191C191.545 332.82 193.264 333.058 195.914 332.48C198.633 329.798 196.733 329.707 200.659 327.961C204.467 326.266 210.471 323.388 214.515 324.727C219.842 326.492 218.096 324.897 222.981 325.561C240.054 327.88 244.697 317.876 252.991 321.811C250.326 325.087 241.918 332.941 237.409 335.187C235.407 336.184 232.895 336.73 230.661 337.72C223.281 340.989 219.719 347.558 200.319 346.161C201.394 347.055 198.998 346.849 203.117 347.629C206.043 348.183 209.79 347.599 212.586 346.895C216.416 345.93 219.755 345.249 223.407 344.112Z" fill="#FFFDF1"/>
<path fill-rule="evenodd" clip-rule="evenodd" d="M239.856 136.074C238.274 138.824 240.034 137.084 238.042 137.623C236.418 136.597 235.491 138.677 236.962 134.832L241.99 125.738C244.252 121.577 248.702 119.493 249.72 114.293C251.496 105.222 255.098 93.7478 263.483 89.5112C262.93 105.893 261.216 99.2863 258.406 103.397L252.492 116.122C251.28 117.982 250.171 120.345 248.925 121.869C247.491 123.621 248.075 122.016 246.994 124.591C243.322 133.333 246.286 124.899 239.856 136.074ZM236.259 132.607C235.746 123.648 235.052 123.341 236.67 114.202C238.64 103.077 235.03 100.615 234.009 97.4097C233.241 94.9951 232.431 83.3631 231.871 79.6777C231.375 76.418 230.156 74.9728 228.694 72.5126C227.235 70.0572 226.469 68.2248 225.499 65.7241C238.24 58.5081 239.697 60.4854 249.207 59.3485C254.081 58.766 252.936 59.492 255.497 61.2225C259.584 63.9847 264.776 64.1199 265.561 70.3735C266.33 76.4913 264.45 81.5111 263.319 87.4385C261.431 90.4739 256.721 87.5434 249.037 109.536C246.811 115.909 251.312 111.976 243.293 121.631C237.917 128.104 239.773 129.197 236.259 132.607ZM221.801 54.448C233.334 52.6278 238.756 54.9716 248.392 57.6165C243.06 58.7544 240.554 57.892 235.072 59.9122C231.706 61.1528 227.127 63.7555 224.069 63.7731L221.801 54.448ZM174.195 52.6187L174.287 53.0452L176.933 53.668L179.151 57.7457C178.75 55.9477 178.412 56.4222 180.287 56.4222C178.987 55.8309 178.809 54.7601 178.383 53.3162C181.24 51.87 184.957 50.7814 188.275 49.5083C193.68 47.4346 191.976 46.8704 198.844 47.9535C200.712 48.2476 203.553 48.2624 205.087 48.7586C208.766 49.9482 205.632 52.7335 219.818 54.4756L222.38 64.2528C219.4 64.4859 217.364 64.7772 215.297 66.5811L215.25 67.0114C218.674 66.9946 218.212 65.5608 223.694 65.9536C228.337 74.7458 231.053 80.1904 231.866 90.5139C232.248 95.3773 231.273 95.7244 233.313 99.6693C236.808 106.424 235.629 110.288 234.082 117.78C233.04 122.825 235.774 134.035 233.109 136.592L233.134 136.943C235.739 139.031 237.113 138.137 240.445 139.841C241.577 140.42 242.531 141.159 243.537 142.207C243.937 142.623 244.218 143.038 244.578 143.395C246.101 144.908 244.369 143.523 245.522 144.055L245.974 144.049L244.749 140.085C261.649 129.869 248.281 130.226 257.425 124.153C260.769 121.932 262.027 119.741 264.025 115.971C265.942 112.353 267.723 110.668 269.595 107.598C266.916 107.598 267.833 106.639 268.327 104.776C268.408 106.613 262.46 115.993 260.443 119.395C258.842 122.094 258.788 121.45 255.939 123.432C247.551 129.268 257.847 129.656 246.376 137.132C243.916 138.736 243.564 139.258 240.749 138.434C241.725 133.19 243.216 132.932 246.304 130.131C247.899 128.684 247.604 128.237 248.881 125.613C249.938 123.44 250.495 122.681 251.62 121.497C252.701 117.653 255.851 112.16 257.845 109.053C258.969 107.302 258.698 106.507 259.345 104.5C261.428 101.264 264.787 105.319 265.143 88.2177C267.943 86.6215 271.282 85.4878 274.246 83.5823C279.886 79.9563 288.257 77.7965 295.527 76.9951C302.681 76.2063 302.375 78.8871 306.411 79.2823L306.815 78.8762C302.422 73.9971 293.626 75.8359 286.819 77.4944C283.404 78.326 279.531 79.0771 276.725 80.5861C272.974 82.604 271.714 83.7236 267.74 85.2507C269.097 82.872 270.163 82.1916 271.142 80.3884L271.446 80.077C268.187 80.7296 267.988 81.9931 265.501 85.6407C264.931 81.6729 268.423 75.2986 266.912 68.2685C265.864 63.396 259.923 61.8309 256.145 59.054C252.782 56.5812 253.941 56.4235 248.282 55.7901C238.011 54.6408 243.515 52.0147 221.391 52.8304C220.341 43.3626 216.914 40.1341 209.76 35.5723C206.513 33.5012 205.033 31.8972 200.036 30.4784C196.581 29.4971 192.66 28.9644 189.687 27.6999C188.631 29.488 191.181 29.5364 187.615 29.0813L194.261 30.5614C181.367 30.9772 192.943 31.4057 181.213 29.9742C173.938 29.0864 174.722 30.1577 169.826 32.3883L171.201 32.8276C174.301 32.5046 173.943 31.2263 178.849 31.4261C182.333 31.5682 184.556 32.6256 187.348 32.7625C198.05 33.2874 187.973 31.0971 203.307 34.2682C211.18 35.8964 220.054 44.0554 219.488 52.7407C216.274 52.9092 210.887 51.3668 208.729 49.8249C203.272 45.9273 205.336 47.9355 198.11 46.5086C188.979 44.7057 185.35 51.5113 177.301 51.4862L172.197 45.2396C171.235 44.1534 168.942 40.8805 168.418 38.9866C168.996 40.6102 169.056 39.9653 167.051 39.9653C168.875 41.172 169.684 44.0394 171.166 45.5306C173.425 47.8047 174.007 49.1253 175.601 50.9569C174.853 52.1365 175.635 51.57 174.195 52.6187Z" fill="#FFFDF1"/>
<path fill-rule="evenodd" clip-rule="evenodd" d="M41.0048 242.734C39.3037 239.869 38.5641 239.019 36.2073 237.016C28.3326 230.326 23.119 228.913 21.3192 220.102C18.0618 204.156 5.58002 204.735 6.45485 192.129C7.41108 178.347 13.8383 188.654 9.79962 156.364C9.30031 152.37 10.5762 151.073 10.8603 147.175C11.0926 143.984 12.1571 141.92 13.4811 139.242L17.0169 131.863C18.3114 128.578 20.502 129.286 22.7148 126.512L22.1953 126.27C14.9736 128.788 15.5156 132.854 11.4565 140.261C10.5274 141.957 7.53074 143.796 6.77971 151.011L5.37068 168.888C3.73628 180.113 -2.92793 171.139 1.48706 201.155C2.35878 207.081 6.52178 210.077 6.87585 216.187C7.21519 222.035 10.0397 223.857 15.6174 231.276L11.9817 224.841C10.2307 222.628 11.2107 221.998 8.3743 219.283C9.1212 211.967 7.01464 210.237 4.38576 204.587C3.97612 203.707 1.47206 190.473 1.25394 188.957C0.406763 183.071 2.72577 178.412 4.86025 174.009C9.77325 163.874 4.45993 163.814 8.48776 158.457C8.99379 175.865 11.2105 169.666 6.28066 185.559C3.8805 193.297 3.84974 193.536 6.92832 200.363C7.02833 200.585 7.28238 201.263 7.38783 201.479L11.9447 207.842C14.5377 210.143 15.0419 207.638 18.5983 216.565C20.9633 222.501 17.6074 219.735 23.1074 228.447C26.5666 233.927 29.5584 230.965 35.8775 238.963L40.3266 242.455C40.4884 242.536 40.7779 242.643 41.0048 242.734Z" fill="#FFFDF1"/>
<path fill-rule="evenodd" clip-rule="evenodd" d="M194.293 178.174C191.821 176.495 182.401 178.576 179.697 178.964C181.339 181.28 176.921 182.114 183.657 179.994C191.065 177.662 189.908 180.161 194.293 178.174Z" fill="#FFFDF1"/>
<path fill-rule="evenodd" clip-rule="evenodd" d="M182.842 191.435C184.48 191.173 195.697 185.544 196.435 183.828C194.334 184.196 191.771 185.797 189.296 186.985C185.966 188.583 184.085 188.509 182.842 191.435Z" fill="#FFFDF1"/>
<path fill-rule="evenodd" clip-rule="evenodd" d="M270.436 175.846C270.285 175.729 269.884 175.511 270.001 175.474L267.916 174.635C266.861 174.479 264.717 174.559 263.604 174.633L257.174 175.248C255.078 175.751 256.624 175.241 255.27 176.14C259.16 176.741 258.861 176.385 262.599 175.937C265.401 175.601 264.605 175.75 267.208 176.135C270.207 176.579 268.95 176.67 270.436 175.846Z" fill="#FFFDF1"/>
<path fill-rule="evenodd" clip-rule="evenodd" d="M259.44 134.584C257.785 135.072 259.108 134.182 257.769 135.282C256.13 136.629 257.523 136.553 253.743 139.048C251.49 140.535 249.301 140.795 248.863 143.677C251.658 140.708 257.484 139.685 259.44 134.584Z" fill="#FFFDF1"/>
<path fill-rule="evenodd" clip-rule="evenodd" d="M199.81 197.54C195.711 198.538 191.257 200.31 189.469 204.166C192.374 202.186 191.576 202.077 195.106 200.688C198.758 199.25 198.574 199.612 199.81 197.54Z" fill="#FFFDF1"/>
<path fill-rule="evenodd" clip-rule="evenodd" d="M216.078 139.492C217.637 137.031 216.238 134.515 215.104 131.892C213.984 129.301 213.083 126.608 212.199 124.34L214.534 123.792L213.083 120.088C212.277 121.125 212.89 120.094 212.358 121.457L216.078 139.492Z" fill="#FFFDF1"/>
<path fill-rule="evenodd" clip-rule="evenodd" d="M193.11 139.85C191.964 139.047 192.476 139.232 190.55 139.069C190.651 141.668 189.434 140.443 194.361 145.002L193.11 139.85Z" fill="#FFFDF1"/>
<path fill-rule="evenodd" clip-rule="evenodd" d="M247.724 131.049C244.532 132.562 246.6 132.747 243.599 135.884L242.764 136.607C241.831 137.576 242.379 136.883 241.602 138.027C244.598 137.225 243.863 138.056 246.78 133.602C248.222 131.4 247.491 134.01 247.724 131.049Z" fill="#FFFDF1"/>
<path fill-rule="evenodd" clip-rule="evenodd" d="M173.983 181.695C173.858 181.639 174.309 181.418 174.471 181.278C173.279 180.627 175.906 179.932 172.26 180.848C167.94 181.934 168.979 184.069 168.978 184.076L173.983 181.695Z" fill="#FFFDF1"/>
<path fill-rule="evenodd" clip-rule="evenodd" d="M257.578 203.446C255.739 200.299 254.411 198.892 251.164 197.265C252.44 199.743 255.229 202.247 257.578 203.446Z" fill="#FFFDF1"/>
<path fill-rule="evenodd" clip-rule="evenodd" d="M259.439 134.583L261.877 134.578L262.171 136.855C263.851 134.862 262.606 133.44 261.832 132.14C259.099 133.285 260.015 132.147 259.439 134.583Z" fill="#FFFDF1"/>
<path fill-rule="evenodd" clip-rule="evenodd" d="M195.41 196.413C195.5 196.306 198.753 194.482 198.926 194.373C202.117 192.369 200.396 193.592 201.516 191.677C198.638 192.69 197.093 193.658 195.41 196.413Z" fill="#FFFDF1"/>
<path fill-rule="evenodd" clip-rule="evenodd" d="M173.265 164.503L168.213 165.637C169.013 166.475 166.165 167.273 170.826 166.415C175.574 165.541 172.873 165.875 173.265 164.503Z" fill="#FFFDF1"/>
<path fill-rule="evenodd" clip-rule="evenodd" d="M207.124 135.661C206.069 133.265 205.242 132.536 203.068 131.838C203.575 133.062 203.229 132.784 204.397 133.979C206.541 136.171 204.766 134.71 207.124 135.661Z" fill="#FFFDF1"/>
<path fill-rule="evenodd" clip-rule="evenodd" d="M202.923 145.662C202.73 144.498 202.626 143.589 202.103 142.634C200.526 139.748 201.589 141.764 200.15 140.435C200.468 141.526 200.898 143.15 201.367 144.018C202.096 145.37 202.309 145.179 202.923 145.662Z" fill="#FFFDF1"/>
<path fill-rule="evenodd" clip-rule="evenodd" d="M266.61 149.123C264.058 150.425 264.308 150.328 263.715 153.032C266.001 152.296 266.012 151.037 266.61 149.123Z" fill="#FFFDF1"/>
<path fill-rule="evenodd" clip-rule="evenodd" d="M281.142 175.848C278.889 174.883 279.076 175.09 276.922 175.848C277.7 176.336 276.302 176.703 278.876 176.749C283.435 176.832 279.879 176.862 281.142 175.848Z" fill="#FFFDF1"/>
<path fill-rule="evenodd" clip-rule="evenodd" d="M219.18 116.762C219.995 115.13 219.608 114.717 219.629 112.31C217.822 114.519 218.643 111.185 218.316 114.533C218.07 117.043 219.138 116.7 219.18 116.762Z" fill="#FFFDF1"/>
<path fill-rule="evenodd" clip-rule="evenodd" d="M185.901 197.497C182.284 197.579 185.689 197.307 184.351 198.338C186.514 199.524 186.284 199.449 187.976 198.338C187.525 197.979 188.932 197.428 185.901 197.497Z" fill="#FFFDF1"/>
<path fill-rule="evenodd" clip-rule="evenodd" d="M185.816 140.122C185.735 139.962 185.427 139.705 185.558 139.649L181.494 135.905C182.425 138.703 183.27 139.535 185.816 140.122Z" fill="#FFFDF1"/>
<path fill-rule="evenodd" clip-rule="evenodd" d="M191.966 147.258C188.906 145.995 190.128 145.801 188.77 148.228C190.743 148.034 189.412 149.985 191.966 147.258Z" fill="#FFFDF1"/>
<path fill-rule="evenodd" clip-rule="evenodd" d="M274.943 196.615C273.964 194.705 273.028 194.447 271.051 193.837C272.123 196.131 272.572 195.939 274.943 196.615Z" fill="#FFFDF1"/>
<path fill-rule="evenodd" clip-rule="evenodd" d="M204.722 122.448C203.334 119.297 204.72 120.649 201.416 119.33C202.56 121.828 202.909 121.604 204.722 122.448Z" fill="#FFFDF1"/>
<path fill-rule="evenodd" clip-rule="evenodd" d="M209.748 113.047C208.947 111.55 210.457 110.371 206.926 111.383C208.18 113.193 207.375 112.753 209.748 113.047Z" fill="#FFFDF1"/>
<path fill-rule="evenodd" clip-rule="evenodd" d="M201.26 197.588C203.334 196.422 203.476 196.325 204.55 194.188C202.602 194.873 203.668 194.133 202.413 195.517C202.409 195.523 201.425 197.328 201.26 197.588Z" fill="#FFFDF1"/>
<path fill-rule="evenodd" clip-rule="evenodd" d="M179.813 194.458C179.629 194.322 181.732 191.244 177.498 194.458C178.634 195.202 177.331 195.98 179.813 194.458Z" fill="#FFFDF1"/>
<path fill-rule="evenodd" clip-rule="evenodd" d="M167.838 189.454C169.188 188.05 168.511 191.435 170.153 186.931C167.064 187.841 168.608 187.296 167.838 189.454Z" fill="#FFFDF1"/>
<path fill-rule="evenodd" clip-rule="evenodd" d="M190.432 127.766C189.433 124.817 191.953 125.909 188.396 125.619C189.484 129.105 188.537 127.014 190.432 127.766Z" fill="#FFFDF1"/>
<path fill-rule="evenodd" clip-rule="evenodd" d="M268.1 140.336L265.793 142.679C268.727 142.711 267.919 143.09 268.1 140.336Z" fill="#FFFDF1"/>
<path fill-rule="evenodd" clip-rule="evenodd" d="M277.529 164.991C275.734 164.049 277.425 163.585 275.252 164.991C278.212 167.505 277.168 165.392 277.529 164.991Z" fill="#FFFDF1"/>
<path fill-rule="evenodd" clip-rule="evenodd" d="M195.898 134.773C195.155 133.079 196.902 134.448 194.984 133.431C192.38 132.051 194.065 133.694 193.622 134.196L195.898 134.773Z" fill="#FFFDF1"/>
<path fill-rule="evenodd" clip-rule="evenodd" d="M240.425 121.072C239.232 118.134 240.821 120.303 238.35 118.815C238.965 121.012 238.104 120.653 240.425 121.072Z" fill="#FFFDF1"/>
<path fill-rule="evenodd" clip-rule="evenodd" d="M256.717 127.655C255.248 128.73 256.084 126.841 254.73 130.197C256.873 129.162 255.859 131.082 256.717 127.655Z" fill="#FFFDF1"/>
<path fill-rule="evenodd" clip-rule="evenodd" d="M185.563 129.813C185.214 127.71 186.059 128.383 183.869 128.133C184.124 129.408 183.861 129.985 185.563 129.813Z" fill="#FFFDF1"/>
<path fill-rule="evenodd" clip-rule="evenodd" d="M185.818 140.121C186.719 141.307 183.387 141.044 187.95 141.437C187.215 139.349 188.025 140.326 185.818 140.121Z" fill="#FFFDF1"/>
<path fill-rule="evenodd" clip-rule="evenodd" d="M251.621 121.5C252.542 124.304 250.995 122.445 253.592 123.471C252.77 120.929 253.876 122.305 251.621 121.5Z" fill="#FFFDF1"/>
<path fill-rule="evenodd" clip-rule="evenodd" d="M231.586 112.255C231.939 111.716 233.406 112.745 231.586 109.895C230.188 111.949 231.96 111.512 231.258 111.774C231.066 111.846 231.48 112.092 231.586 112.255Z" fill="#FFFDF1"/>
<path fill-rule="evenodd" clip-rule="evenodd" d="M270.266 153.75C269.032 152.361 271.003 152.527 268.826 152.629C267.027 152.714 268.236 152.751 267.551 153.358L270.266 153.75Z" fill="#FFFDF1"/>
<path fill-rule="evenodd" clip-rule="evenodd" d="M268.034 180.7C269.406 180.631 268.712 179.252 267.904 179.561C267.288 179.796 264.913 180.857 268.034 180.7Z" fill="#FFFDF1"/>
<path fill-rule="evenodd" clip-rule="evenodd" d="M228.577 114.767C227.507 111.811 229.049 114.11 226.621 112.687C228.249 117.367 226.917 113.268 228.577 114.767Z" fill="#FFFDF1"/>
<path fill-rule="evenodd" clip-rule="evenodd" d="M216.078 109.751C217.005 109.721 219.009 107.935 216.257 108.621C214.352 109.096 215.813 109.76 216.078 109.751Z" fill="#FFFDF1"/>
<path fill-rule="evenodd" clip-rule="evenodd" d="M195.9 134.773C196.471 136.204 195.493 135.013 196.719 136.308C197.782 137.431 196.963 136.562 198.804 137.148L195.9 134.773Z" fill="#FFFDF1"/>
<path fill-rule="evenodd" clip-rule="evenodd" d="M257.264 154.137C258.737 154.473 258.132 154.143 258.629 152.567C257.379 153.163 258.378 151.852 257.289 153.351C256.274 154.748 256.864 153.119 257.264 154.137Z" fill="#FFFDF1"/>
<path fill-rule="evenodd" clip-rule="evenodd" d="M223.832 112.871L224.112 110.61C221.614 111.551 223.8 112.838 223.832 112.871Z" fill="#FFFDF1"/>
<path fill-rule="evenodd" clip-rule="evenodd" d="M244.771 113.716C244.891 113.573 244.973 113.365 245.151 113.305L244.771 111.939C244.612 112.203 242.771 110.362 244.771 113.716Z" fill="#FFFDF1"/>
<path fill-rule="evenodd" clip-rule="evenodd" d="M275.722 158.787L273.361 158.443C273.645 159.222 274.584 159.963 275.722 158.787Z" fill="#FFFDF1"/>
<path fill-rule="evenodd" clip-rule="evenodd" d="M230.521 105.784C231.621 104.947 232.951 106.219 230.812 104.102L230.521 105.784Z" fill="#FFFDF1"/>
<path fill-rule="evenodd" clip-rule="evenodd" d="M242.698 111.256C241.362 108.166 243.235 110.23 240.82 109.134L242.698 111.256Z" fill="#FFFDF1"/>
<path fill-rule="evenodd" clip-rule="evenodd" d="M180.58 144.052C177.446 142.417 179.543 143.7 178.646 144.052L180.58 144.052Z" fill="#FFFDF1"/>
</svg>
