<svg width="197" height="222" viewBox="0 0 197 222" fill="none" xmlns="http://www.w3.org/2000/svg">
<path fill-rule="evenodd" clip-rule="evenodd" d="M108.928 197.189L108.039 197.992C107.685 198.379 107.818 198.27 107.464 198.7L103.631 203.408C101.818 205.055 98.1596 205.699 95.72 206.51C93.9819 204.438 94.5944 201.593 94.0139 198.939C93.0171 194.381 92.7057 196.236 93.5226 191.072C96.3908 191.432 96.3817 192.187 98.2832 193.457C103.45 193.777 105.71 190.264 110.132 193.876L108.928 197.189ZM94.6923 185.461C101.943 183.69 100.969 185.885 103.787 185.612C106.566 185.343 106.646 182.122 110.34 182.63C110.941 186.414 110.676 189.054 110.341 192.691C108.534 192.055 108.221 191.784 106.827 190.968C105.373 191.497 101.669 192.403 99.9866 192.52C97.0364 192.726 97.0494 191.1 93.9516 190.297L94.6923 185.461ZM93.1613 189.935C91.5853 189.366 91.1167 188.795 89.6413 187.902C87.906 186.851 87.111 187.502 85.0958 186.949C83.5162 186.516 80.7296 182.945 80.0787 181.173C81.0935 181.694 82.9058 182.374 83.9431 182.926C85.8838 183.957 86.7541 184.032 88.8846 183.053L91.5297 184.335C92.2421 184.623 92.0918 184.479 92.7366 184.84L93.5819 185.44C93.6328 185.351 93.7749 185.599 93.9066 185.681L93.1613 189.935ZM111.273 182.35C114.984 181.073 115.562 182.387 118.503 181.104C119.743 180.563 124.029 181.231 126.424 180.925C129.952 180.474 129.585 178.746 133.42 179.507C137.927 180.402 136.892 180.441 141.043 179.215C139.261 181.94 138.226 182.998 134.176 183.655C131.06 184.161 131.204 186.655 128.016 188.083C119.429 191.927 122.234 191.634 111.202 193.003L111.273 182.35ZM108.928 197.189C110.534 195.919 110.643 194.395 110.987 194.112C114.029 193.089 120.001 193.116 122.651 191.682C125.336 190.228 130.295 188.163 131.341 186.694C133.277 183.976 132.603 185.181 136.228 184.317C140.082 183.4 140.624 180.361 144.245 178.691C148.435 176.759 145.542 176.356 148.881 176.147C148.532 178.051 148.376 182.676 147.645 183.779C146.664 185.26 144.393 185.828 143.124 187.814C142.186 189.284 142.382 192.231 141.332 194.597C139.221 199.358 139.233 197.415 133.29 203.175C131.585 204.828 130.442 204.814 128.667 206.646C126.721 208.653 126.13 208.538 123.132 209.687C122.273 210.016 121.001 210.518 119.975 210.833C118.405 211.315 119.085 210.821 117.7 210.642C118.153 211.992 118.126 211.826 116.236 212.167C113.267 212.703 109.218 213.146 106.7 212.336C101.842 210.773 101.247 211.826 97.2304 208.479C96.001 207.455 97.0152 208.489 96.455 207.463C99.8165 205.284 101.895 206.537 104.187 203.538C105.031 202.435 108.577 198.136 108.928 197.189ZM151.148 175.671C152.918 174.755 154.206 174.662 155.101 172.419L157.502 167.806C157.54 167.632 157.674 167.625 157.743 167.534L156.978 174.874L154.785 175.349L155.872 176.003C155.953 176.043 156.543 176.219 156.673 176.277C155.87 179.041 155.992 180.499 155.412 183.437L150.36 195.491C148.754 198.241 146.742 197.599 141.269 203.449C140.031 204.773 137.886 205.794 135.845 206.569C133.24 207.559 128.565 208.745 126.413 209.935C122.556 212.068 123.485 210.491 123.231 210.335C125.811 209.823 127.154 209.434 128.671 207.933C131.958 204.679 131.02 206.13 132.952 204.542C134.495 203.273 135.134 202.153 136.929 200.822C139.306 199.06 139.173 199.911 140.769 197.385C143.258 193.444 142.695 188.331 145.362 186.63C150.882 183.109 148.068 182.255 150.005 176.368C150.762 176.464 151.604 176.596 152.478 176.586C152.667 176.584 153.788 176.454 153.94 176.393C155.243 175.87 154.214 176.302 155.051 175.568L151.148 175.671ZM99.2049 140.006L100.348 140.105C99.6795 142.938 101.364 148.429 101.825 151.281C103.431 161.214 103.065 155.452 105 161.033C105.942 163.751 106.061 170.671 106.86 171.987C108.594 174.838 109.629 174.982 109.867 181.403C108.665 181.964 107.47 182.225 106.625 182.891C101.188 187.175 105.347 183.392 95.72 184.247C95.6579 184.119 95.5137 183.854 95.4611 183.77C93.1186 179.992 94.4378 178.258 91.8513 176.453C91.581 165.998 88.5538 170.183 92.9033 158.927C96.0218 150.856 96.0606 150.06 96.2843 140.719C100.779 140.725 98.7813 140.462 99.2049 140.006ZM135.984 167.624C137.284 170.695 140.711 172.157 142.911 174.371C143.815 175.281 144.469 175.613 145.093 176.277C143.816 177.186 138.876 179.283 137.171 179.224C132.962 179.08 132.911 177.038 128.98 179.194C127.452 180.031 126.308 180.1 124.357 180.088C123.18 180.08 120.373 179.714 119.692 179.79C117.508 180.034 118.757 181.264 115.53 180.761C113.437 180.435 112.938 181.007 110.855 181.229C110.579 179.688 110.254 177.476 109.881 175.767C109.271 172.971 108.349 173.213 107.587 171.689C107.163 170.84 106.399 163.046 105.702 160.753C105.173 159.013 104.166 157.912 103.543 156.471L100.875 140.332C102.062 139.197 102.282 138.088 103.472 137.511C102.788 140.673 104.319 141.576 104.925 144.074C104.983 144.314 105.05 144.883 105.11 145.065C105.44 146.073 105.135 145.321 105.649 145.955C105.579 143.994 104.719 142.821 104.247 141.204C103.753 139.509 104.215 138.452 103.601 136.978C112.539 137.701 110.811 141.047 114.567 143.04C114.23 142.601 114.353 142.717 113.915 142.29L112.602 141.031C112.161 140.427 111.79 139.526 111.557 138.709L112.639 136.468C114.164 137.041 114.169 137.115 115.107 138.921C120.31 148.943 121.26 147.101 125.015 151.686C126.189 153.12 127.371 155.873 128.646 157.017C131.221 159.327 131.067 157.914 132.902 161.751C134.05 164.151 134.877 165.008 135.984 167.624ZM157.958 174.399C158.513 170.577 158.312 164.996 160.197 162.141C163.194 157.601 163.264 158.739 168.041 156.366C170.041 155.373 171.032 154.987 172.379 153.381C174.591 150.747 176.4 149.028 179.667 147.012C187.987 141.878 181.787 147.053 187.214 140.45C188.989 138.29 189.322 138.232 189.159 135.712C188.842 130.794 190.835 129.003 189.282 122.961C188.567 120.18 188.885 119.614 189.515 117.102C190.192 114.4 189.007 113.354 189.748 110.54C190.7 106.924 192.616 104.16 194.321 101.642C194.225 104.595 193.627 105.073 193.017 107.496C193.557 108.767 194.345 109.778 194.629 111.108C195.168 113.637 194.747 113.486 194.165 115.381C193.533 117.44 195.33 120.326 195.045 124.073C194.516 131.036 195.609 139.618 194.487 143.1C194.028 144.523 193.757 145.524 192.895 146.576C189.202 151.084 192.796 149.531 189.435 153.364C187.863 155.158 188.741 155.343 188.108 157.211L186.457 160.627C183.853 166.316 180.525 161.945 179.098 168.253C174.153 169.361 174.402 171.14 169.712 172.508C167.812 173.062 165.645 173.023 163.497 173.184C159.917 173.45 160.824 173.751 157.958 174.399ZM151.895 149.532L151.723 149.365C152.857 152.463 152.976 150.62 153.952 152.204C154.714 153.441 153.517 152.339 155.594 155.289L157.841 162.432C158.495 164.627 156.334 167.196 155.421 168.919C154.058 171.489 154.503 173.755 151.274 174.248L152.556 169.016L152.332 168.794C151.616 169.477 151.25 170.891 150.866 172.116C150.176 174.32 150.948 174.456 148.648 174.858C149.124 172.848 150.647 171.961 151.427 166.465C151.752 164.177 151.448 158.929 150.876 156.64C149.946 152.926 147.675 153.59 145.322 151.44C143.752 150.006 144.572 149.531 142.85 148.75C141.646 148.205 139.807 148.207 138.288 147.814C137.262 147.542 136.734 147.037 136.734 148.513C144.503 149.85 141.634 149.145 144.683 152.094C146.855 154.194 149.563 153.716 150.261 157.546C151.604 164.916 150.356 170.077 147.007 175.274C144.114 175.231 143.17 173.509 141.293 172.15C135.004 167.595 135.236 162.355 132.115 158.671C131.073 157.442 130.887 157.862 129.654 156.909C128.162 155.756 125.48 150.515 123.718 149.159C121.63 147.554 120.758 146.717 119.418 144.479C118.697 143.275 119.186 143.932 118.741 143.009C118.045 141.565 118.53 142.514 117.787 141.763C116.024 139.979 116.637 139.553 114.36 136.442C114.695 136.356 115.693 136.108 115.82 136.057C116.7 135.702 116.071 135.982 116.654 135.501L116.651 135.251L112.361 135.839L111.348 137.582C105.481 138.495 104.358 132.887 101.492 138.821C101.098 138.954 100.246 139.147 100.092 139.215C99.2219 139.601 99.5004 139.575 99.2049 140.006C98.2692 140.007 97.384 140.18 96.3676 139.738C96.3097 139.712 95.3398 139.039 95.3375 139.038C94.4548 138.536 95.5003 138.987 94.4166 138.695C94.2192 140.869 93.539 143.105 93.0283 145.397C92.0685 149.703 91.0838 150.122 91.8213 151.348C94.1945 147.1 92.4853 149.238 94.2295 148.529C93.913 146.761 92.7729 148.775 93.8514 144.493C94.2573 142.882 94.441 141.137 95.2046 140.083C95.9583 142.744 95.306 149.222 94.6674 152.184C93.9337 155.589 91.8919 158.681 90.771 161.956C88.3428 169.05 90.2772 167.478 91.0012 173.312C91.1429 174.454 90.9423 175.378 91.3059 176.467C91.879 178.183 93.437 177.7 93.9435 183.853C91.5674 183.758 90.1382 182.834 88.8846 181.917C87.0831 182.812 86.5505 183.208 84.2585 182.178C80.1826 180.349 77.9138 180.782 78.0935 170.72C78.1676 166.56 80.1451 160.773 82.7434 157.736C83.6116 156.722 85.0693 155.983 85.0642 154.4L82.9584 156.253C76.7492 162.921 77.8103 170.862 77.6618 176.617C77.571 180.131 80.5512 183.726 82.6954 185.866C87.1413 190.303 83.7397 184.537 92.709 190.802C92.0065 196.319 92.2746 194.323 93.329 199.16C93.6443 200.607 93.5665 202.027 93.7657 203.465C93.9603 204.871 94.4911 205.813 94.8499 207.036C94.0134 207.949 93.0004 208.631 92.3893 209.691C86.5758 219.774 89.1643 214.23 85.0368 217.698C82.5785 219.763 80.7428 217.967 77.3611 217.692C72.761 217.317 68.5544 218.614 65.5304 214.172C64.6099 212.82 64.1199 212.36 63.2685 211.281C61.581 209.142 62.1274 206.541 60.6424 203.692C59.4332 201.373 57.0483 200.833 54.669 199.389L48.8706 195.181L48.7896 195.297C50.1889 197.996 53.4008 199.426 56.6296 201.258C62.1272 204.377 59.4811 204.579 61.5545 209.612C62.9782 213.067 63.0578 212.062 64.3404 213.633C65.7547 215.365 65.2676 216.154 67.2556 217.136C70.9645 218.968 77.5092 218.323 78.5742 218.997C77.7966 219.414 71.0989 220.978 69.7154 220.948C68.8207 220.928 60.8249 219.756 60.3357 219.361C59.2594 218.491 59.5088 217.747 57.6879 216.441C49.0436 210.239 50.088 215.179 46.9635 210.938C45.3848 208.795 43.0722 207.198 41.2898 205.476C33.3855 197.842 38.0007 197.159 34.8119 190.193C33.4613 187.243 34.5616 187.643 33.9586 185.499C33.3168 183.219 32.4635 184.628 32.8754 180.978L32.7089 180.333C30.6793 181.193 32.8991 185.19 33.0873 185.889C33.4656 187.292 32.9695 187.8 33.4843 189.359C34.6852 192.995 35.1702 192.907 35.6123 198.479C35.98 203.113 43.903 208.654 45.7831 210.847C47.2313 212.537 46.995 213.349 50.0255 213.847C53.7913 214.466 53.0142 214.002 55.5954 215.979C59.1815 218.727 56.6355 215.779 59.4137 219.454C60.992 221.543 62.5483 220.689 65.4084 221.045C67.8721 221.351 67.835 222.506 71.5977 221.745C73.9317 221.273 75.1057 220.552 77.7363 220.227C86.3505 219.162 81.6973 220.341 86.2259 217.625C88.6467 216.173 88.9697 217.385 91.952 212.219C93.6063 209.353 92.9473 209.927 95.2928 208.005C99.7447 211.577 98.8207 211.135 105.013 212.647C107.52 213.259 108.014 214.137 110.749 213.52C118.77 211.71 118.57 214.008 128.811 209.787C132.443 208.29 135.941 207.472 139.357 205.812C142.093 204.481 143.656 201.003 147.265 199.207C151 197.348 151.569 194.603 153.223 190.615C155.539 185.026 155.637 186.556 156.61 179.548C156.743 178.593 157.037 177.606 157.356 176.765C158.449 173.879 162.617 173.935 165.357 173.731C175.447 172.981 172.14 171.516 176.096 169.905C180.615 168.064 178.517 170.142 180.179 166.74C181.01 165.039 183.146 164.946 184.681 163.982C187.384 162.285 189.216 155 189.679 154.48C192.368 151.453 190.773 153.403 191.882 149.412C192.311 147.869 193.642 147.104 194.658 144.901C197.189 139.417 194.916 131.014 195.795 125.012C196.165 122.485 196.104 120.57 195.206 118.251C193.985 115.095 195.72 115.488 195.574 112.395C195.444 109.64 193.864 108.304 194.074 106.717C194.189 105.853 194.7 105.321 194.96 104.098C195.535 101.386 196.463 96.1516 194.011 95.196C193.989 96.9955 194.544 99.1243 193.738 100.85C192.973 102.489 192.01 103.053 191.166 104.719C187.754 111.455 188.947 111.971 188.852 115.62C188.799 117.642 187.723 118.493 187.974 121.583C188.139 123.616 188.844 124.868 188.941 127.14C189.066 130.045 188.566 130.663 188.202 133.111C187.802 135.803 188.815 136.403 187.428 138.525C185.413 141.609 184.27 143.324 180.82 145.158C174.317 148.615 171.899 152.873 170.157 154.148C167.332 156.216 161.798 156.559 158.947 162.042C156.695 159.916 158.599 153.964 151.895 149.532Z" fill="#FFFDF1"/>
<path fill-rule="evenodd" clip-rule="evenodd" d="M87.1648 110.87C87.3082 110.961 88.3025 111.503 88.3054 111.506C89.0682 112.196 88.6606 111.609 89.0377 112.682C87.8606 112.091 87.8071 112.013 87.1648 110.87ZM115.768 111.785C114.102 112.181 115.091 112.17 113.905 112.838C113.778 111.811 113.653 112.315 114.23 111.488C114.654 110.88 115.707 110.123 116.762 108.3C115.472 109.075 114.884 109.938 113.826 111.108C112.683 112.372 112.755 112.784 110.781 112.196C111.564 108.215 112.726 108.721 114.276 106.105C112.699 107.064 111.432 108.794 110.671 110.503C109.749 112.574 108.181 112.87 106.02 112.114C106.592 109.858 108.284 107.035 109.728 105.687C112.715 102.899 110.582 101.529 113.008 98.7122C114.67 96.7832 113.957 98.1178 114.836 95.3853C115.175 94.3298 116.144 92.9202 116.924 92.412C118.147 91.6158 119.045 91.7339 119.997 90.3252C120.644 89.3682 121.077 88.0514 121.657 87.2681L128.843 79.0854C129.386 78.3014 129.203 78.4335 129.908 77.5927C130.446 76.9507 130.366 77.0939 130.845 76.4059C135.443 69.8038 137.281 70.0945 144.516 70.0424C145.255 70.8967 145.82 72.1665 147.132 72.7481C151.815 74.8249 153.011 77.42 150.987 83.704C147.527 94.4465 149.557 88.327 142.993 97.1048C138.687 102.863 139.713 98.9981 136.118 101.335L123.247 109.8C120.109 111.452 119.06 112.117 117.066 114.343L114.796 113.508C114.818 113.474 115.364 112.65 115.368 112.643C115.772 111.953 115.514 112.423 115.768 111.785ZM117.931 115.186C119.063 114.203 119.518 112.994 120.545 112.254L137.321 101.678C142.209 99.6927 139.358 103.31 143.705 97.3619C145.306 95.1717 147.09 93.6285 148.843 91.4016C151.351 88.218 150.604 87.6422 151.854 83.7039C153.195 79.4799 153.239 74.3384 148.445 72.2975C146.809 71.6013 146.283 71.5337 145.734 69.9521C147.914 69.9098 148.557 70.4877 150.292 71.2888C152.817 72.4544 152.322 71.4133 153.819 73.7722C155.563 76.5186 156.244 73.226 158.151 78.3905C158.45 79.1994 158.562 79.3788 158.326 80.411C157.829 82.5821 156.915 82.587 157.614 85.6818C159.173 92.5896 158.482 95.1541 159.898 100.661C153.233 109.666 159.474 103.629 146.929 112.157C137.884 118.306 141.997 115.043 135.805 116.84C134.184 117.31 132.359 118.759 130.192 119.277C128.002 119.801 125.508 120.062 123.266 120.494C120.489 121.029 120.083 121.133 118.14 119.458C118.096 117.239 118.745 117.606 117.931 115.186ZM37.0224 71.4088C36.952 71.6237 36.6206 72.5991 36.545 72.7273C35.8199 73.9558 36.8357 72.6497 35.6298 73.5267L35.7646 65.5035C36.9837 66.325 37.5048 66.8422 37.534 69.0486C37.5465 70.0008 37.273 70.6465 37.0224 71.4088ZM2.22864 111.906C1.97067 111.588 1.88495 111.712 1.61559 111.069C1.21383 110.111 1.44618 108.992 1.4671 107.929C1.50142 106.184 1.36602 105.185 0.982757 103.582C-0.0726283 99.1698 0.815763 99.4031 1.0632 95.5463C1.16855 93.9086 0.866872 92.4804 1.0081 90.848C1.63695 83.5809 0.342671 83.4576 1.99088 79.5541C5.95701 70.1605 3.87557 69.5617 4.88739 64.0236C5.25641 62.0038 10.2295 54.0856 11.9249 53.2909C9.51041 55.2733 10.3339 56.5616 9.76225 58.2992C7.85664 64.0915 10.084 62.7334 8.95047 67.7255C7.51895 74.0307 11.5274 75.6684 8.3874 83.4227C6.97609 86.9079 3.75228 93.9661 4.56464 97.4246C6.27849 104.72 3.39109 104.946 2.47893 107.9C2.13696 109.007 2.26011 110.622 2.22864 111.906ZM6.53945 124.767C9.55256 125.436 7.21399 125.02 8.14124 123.732C6.41089 122.53 8.18567 123.475 6.44634 123.068C5.95032 122.664 6.62002 123.95 5.81549 122.308L2.93308 114.333C1.84224 108.058 4.75114 106.142 5.31877 104.15C7.56351 96.2744 1.89478 101.089 8.66644 84.9342C10.2371 81.1872 11.042 78.8719 10.1163 74.282C8.41786 65.8613 10.6619 68.7491 9.98536 63.7381C9.49219 60.0861 9.69705 61.1494 10.6525 58.3425C11.3964 56.1578 10.6042 55.8839 12.4253 54.0946C14.4173 52.1373 16.1488 48.6102 17.504 47.3114C20.4277 48.2553 20.441 50.0853 22.311 51.4738C27.897 55.6219 25.5405 57.133 32.4547 63.1252C33.5697 64.0913 33.9212 64.0834 34.9239 64.7808C34.8243 67.1328 34.649 72.9938 35.5788 74.4919C37.6848 77.8849 36.3142 79.7144 36.7072 83.1841C38.4087 81.1616 37.142 77.1898 36.9642 74.8931C36.786 72.5944 38.53 71.2686 38.228 67.1187C40.6278 69.2702 44.8304 76.5938 45.2789 78.0369C46.5216 82.036 44.7862 81.38 47.8914 84.8313L52.1333 89.5427C51.3544 87.5078 48.7214 85.055 48.089 84.2161C45.9611 81.3932 47.0477 80.0648 45.794 77.1065C45.3421 76.0406 44.5651 75.4284 43.8944 74.3343C42.8307 72.5991 41.5303 67.539 38.1227 66.0661L42.0074 57.183C42.6962 55.9581 43.1683 56.2469 43.9299 54.8615C45.5332 51.9454 43.914 51.3231 46.3572 48.7277C47.8656 47.1253 48.1411 45.6608 50.8864 45.1508C50.9881 47.9609 50.4147 48.8503 51.5262 51.2942C53.9459 56.6141 51.9775 54.0465 55.0165 60.6383C57.3423 65.6835 54.9516 68.4426 60.0709 75.2289C63.437 79.6909 60.3767 79.2152 66.8779 88.0498C68.6981 90.5234 70.2693 95.9761 75.1484 99.0271C79.0474 101.465 77.7184 101.527 79.1288 103.07C79.898 103.912 79.8489 103.235 81.7043 105.68C82.7084 107.004 83.8037 107.929 84.6539 109.156L87.2648 113.05C86.5418 113.654 85.9282 113.968 85.468 114.252C82.4976 112.392 83.9015 112.361 82.1341 111.883C82.9151 114.122 83.0396 113.734 86.4335 115.902C84.4879 117.845 83.7434 117.551 82.0676 115.198C79.1846 111.15 75.5956 110.303 69.4528 104.28C68.7081 103.55 69.3309 103.95 68.3349 103.611C70.3053 107.837 83.7958 114.505 82.3945 118.458L82.5464 119.19L83.3888 118.724C83.4527 118.677 83.5575 118.578 83.6274 118.526C85.7332 116.952 85.5406 117.671 87.0942 116.851L86.6342 114.266C92.6953 112.232 93.3813 108.563 101.256 108.816C101.779 110.606 103.197 113.138 103.872 113.503C105.014 113.921 109.082 113.056 111.079 113.235C113.834 113.482 116.316 114.853 117.478 116.468C117.794 117.416 116.579 118.699 117.719 120.498L119.381 122.449C119.106 128.707 121.012 123.378 120.569 128.427L120.763 128.414C123.213 126.848 129.039 128.25 132.178 127.317C131.238 126.577 132.59 126.983 131.242 126.746L123.89 127.099C121.869 127.159 122.013 127.554 121.489 126.293C121.968 125.764 121.085 125.666 123.457 125.682C130.075 125.727 124.851 124.992 131.076 125.309C130.895 124.163 131.308 124.647 129.883 124.474L131.12 123.907C130.617 123.694 130.558 123.53 129.873 123.646C126.974 124.139 131.148 125.358 123.052 125.032C121.021 124.95 121.06 125.323 120.186 124.662L122.029 123.938C122.958 123.738 123.602 123.733 124.774 123.668C127.264 123.53 128.469 123.451 129.646 122.13C125.983 123.075 123.756 122.909 120.387 123.578L120.372 121.996C131.134 120.737 134.891 117.637 138.011 117.226C143.87 116.454 142.97 115.432 147.965 112.346L157.019 106.419C158.016 105.199 157.82 104.372 160.005 102.113C160.074 102.746 159.825 110.631 159.736 111.311C159.425 113.668 156.478 116.138 159.093 118.576L159.33 118.602C158.386 112.899 160.645 114.59 160.569 110.505C160.504 107.032 160.95 104.338 160.885 101.026L164.926 99.3154C164.926 98.2826 165.188 98.469 164.197 98.6895L160.56 100.343C159.727 96.0611 159.737 93.136 159.239 88.9479C158.998 86.9245 158.033 85.2933 158.15 83.598L159.363 79.7563C159.762 78.5767 159.207 79.6491 159.919 78.7984C160.588 80.2909 160.779 81.3116 161.797 82.8478C165.217 88.0084 163.869 89.1482 164.194 92.5224C164.347 94.1142 165.127 94.7424 166.787 96.0102L167.021 95.9598C166.25 93.9408 165.423 94.0699 165.075 92.8692C164.73 91.6808 165.154 89.6522 164.998 88.2578C164.816 86.6234 160.666 78.8993 160.469 78.6409C157.869 75.2243 157.348 75.2251 155.435 74.2648C154.123 73.6065 154.899 74.1328 154.361 73.2241C154.205 72.9598 154.149 72.7108 153.941 72.3331C153.272 71.1174 147.399 69.224 144.902 69.0439L140.417 63.7255L139.274 63.0844L140.148 64.3634C140.339 65.6696 143.151 67.8888 143.855 69.1275C137.807 69.4389 136.171 69.3785 132.861 72.873C130.177 75.706 129.028 77.6412 126.4 80.9336C125.748 81.7494 125.284 82.1844 124.499 82.885L119.636 89.1327C117.964 92.1941 116.978 90.5637 115.557 92.299C114.291 93.8457 113.641 97.2963 113.113 97.2459C113.086 97.2434 112.951 97.2647 112.919 97.2582L111.952 96.7248C112.22 99.389 112.016 98.1219 111.22 99.9776C110.687 101.22 111.024 101.644 110.732 102.755C110.496 103.657 108.753 105.236 107.336 106.971L107.345 105.885L106.629 105.391L104.442 110.846C104.368 102.663 106.698 103.355 107.656 97.2435C107.722 97.2071 107.837 97.1715 107.867 97.1601C107.896 97.1491 108.038 97.0947 108.071 97.0819L108.809 96.7748C108.422 96.1249 107.125 96.0167 108.375 92.7621C108.809 91.6304 109.427 90.7463 109.806 89.4878C110.688 86.5594 109.849 83.3908 110.55 80.424C111.437 76.6688 114.731 70.824 113.537 63.9016L113.216 63.9191C112.759 65.2121 113.077 67.6657 112.676 69.7128C112.106 72.6261 112.086 72.8939 111.196 75.5851C107.904 85.5397 110.382 83.237 109.251 88.2094C108.833 90.0454 107.794 91.6421 107.391 93.52C106.94 95.6182 106.954 97.4505 106.173 99.6127C105.544 101.357 104.469 103.078 103.944 104.679C102.749 108.317 104.829 109.258 102.556 110.151C100.94 108.337 103.367 102.57 104.077 100.041C101.592 101.416 102.945 102.931 101.173 107.249C99.2601 104.938 101.638 104.052 101.53 100.229C101.416 96.1529 101.357 94.9909 103.077 93.3985C102.986 93.3579 102.849 93.3138 102.801 93.2866C102.752 93.2594 102.588 93.1831 102.535 93.1512C102.481 93.1189 102.33 93.012 102.282 92.9811C101.441 92.4405 100.75 87.6102 100.716 86.1388C100.583 80.2571 99.8591 76.5269 97.3497 71.2646C95.8733 68.1688 96.8102 69.7379 96.0427 69.3246L95.5598 69.3725C97.547 71.7585 97.7848 74.6576 99.0002 77.7703C100.278 81.0431 99.6368 84.5955 100.11 88.2413C100.325 89.9006 100.923 91.1433 101.062 93.1165L100.083 103.326C99.1228 105.665 99.2882 105.706 100.209 108.028L97.2977 108.133C96.5355 104.235 95.5296 103.756 94.1516 100.549C92.9774 97.816 93.1781 95.4202 90.7209 93.7324C89.2342 92.7112 89.1321 92.5543 88.4634 90.386C85.7474 81.5796 85.2383 83.997 84.1339 81.9221L78.2655 64.2889C76.6259 58.8382 80.4178 55.015 81.4765 53.0517C82.7602 50.6713 81.2629 51.4894 83.757 50.006C83.757 48.6097 84.089 48.7691 82.9455 48.6999C81.6058 49.3567 81.8206 50.65 81.0452 52.251C80.5898 53.1918 79.6839 54.4682 79.1073 55.4149C75.5358 61.2794 77.8562 64.5922 78.7649 68.4363C79.2145 70.3378 79.4142 70.7127 80.0075 72.3283C81.2087 75.6006 82.2315 81.1828 84.6384 83.5514C87.4058 86.2746 87.0914 91.7685 89.9647 94.023C91.33 95.0941 91.4527 95.1704 92.2285 97.273C93.5931 100.972 96.2341 106.259 96.352 108.237L90.1671 111.752C89.2776 111.294 89.407 111.253 88.6113 110.731C87.2107 109.811 88.2341 110.365 87.1881 110.071L87.1648 110.87C86.485 110.448 87.1446 111.177 86.3304 110.08L81.3345 103.953C78.6005 100.538 77.6225 100.025 74.5842 97.8735C71.2263 95.4955 69.1214 89.6702 66.7441 86.4977C61.2109 79.1135 65.5256 81.1597 60.2009 74.2337C57.666 70.9363 58.0749 69.5993 56.9888 65.1131C56.0891 61.397 54.2755 58.3553 53.7167 55.4464C52.7161 50.2391 51.1007 51.7331 51.8481 45.1212C54.2671 44.5224 54.2065 43.9768 55.3671 42.3619C56.2866 41.0827 57.3356 40.5723 58.2775 39.4656L57.8527 39.42C57.2177 39.6738 57.6437 39.3462 56.848 39.9973C54.0461 42.2893 55.5228 42.7637 52.1965 44.3149C52.0595 44.2664 51.8652 44.2096 51.7843 44.1736C51.7251 44.1474 51.5461 44.0718 51.4923 44.0461C51.0328 43.8269 51.2016 43.8403 51.3761 43.8403C50.5638 44.622 49.7071 44.558 48.5999 45.4085C43.4143 49.391 44.117 52.5225 43.5827 53.6942C42.9613 55.0569 42.2396 55.0923 41.5349 56.2911C40.949 57.2876 40.8454 58.1782 40.2927 59.322C39.7329 60.4809 37.5955 64.4212 36.7662 64.862C35.6594 64.0612 35.7867 64.8653 35.8304 63.0903C35.8634 61.7559 36.995 59.2876 38.116 58.0147C41.1441 54.5771 39.0018 54.0557 40.0269 50.0815C40.3523 48.8192 41.0917 47.7712 41.7585 46.7006C42.0507 46.2317 42.4487 45.5524 42.7898 45.167C43.2098 44.6926 46.7825 42.0207 47.7768 38.7474C46.8433 39.2657 44.3286 42.8236 43.445 43.6871C41.9154 45.1818 40.4291 46.8937 39.5854 49.2364C38.2374 52.979 40.5598 53.3755 37.8335 56.8783C36.6046 58.4575 35.3912 61.0183 35.0891 63.6405C32.0209 62.5745 32.1658 61.592 30.2128 59.7773C28.6819 58.3547 27.842 56.7784 26.7397 54.7479C25.8261 53.0653 19.5379 47.2069 17.5418 46.3578C14.5295 48.1763 13.4579 50.2567 12.7177 50.9711C11.6687 51.9835 12.0164 51.1065 10.8141 52.4982C9.12901 54.4487 7.28219 58.1669 5.82304 60.3227C3.43138 63.8556 4.16444 66.0727 3.76466 71.1774C3.22337 78.0905 -0.650494 77.4913 0.354065 93.399C0.652613 98.1265 -0.583734 98.9753 0.364589 104.564C1.5259 111.408 -0.638117 106.765 2.44133 115.32C3.52349 118.326 4.61775 122.675 6.53945 124.767Z" fill="#FFFDF1"/>
<path fill-rule="evenodd" clip-rule="evenodd" d="M131.037 54.6557C132.304 56.2185 131.737 57.4019 133.567 58.555C135.844 59.99 135.284 58.7071 136.766 61.4046C135.268 60.5958 136.319 61.0709 135.246 59.8124C131.093 59.034 131.87 59.8438 127.988 57.6968C125.254 56.1845 124.364 55.4969 120.753 55.6116C121.029 54.7039 122.669 50.5084 123.063 49.7849C125.665 50.5458 125.836 49.991 127.565 51.7329C128.544 52.7188 130.524 54.0222 131.037 54.6557ZM116.904 49.1087C119.282 48.9047 117.987 50.1562 121.893 49.2269C121.284 53.0992 120.499 52.8545 119.753 55.422C118.55 55.0119 119.326 55.2491 118.118 54.7232C117.755 54.5655 117.523 54.4832 117.192 54.3472L116.452 54.0851L116.904 49.1087ZM116.049 48.41L115.373 55.328C111.649 57.036 105.881 51.4003 102.25 49.6789C100.559 48.8772 100.233 49.0763 98.9812 47.8472C95.678 44.6049 92.0579 44.6988 87.5189 45.6234C89.2002 43.0801 91.6792 44.0373 94.4473 44.287C97.1609 44.532 99.4637 45.0367 101.642 46.0393C103.779 47.0232 105.292 48.8296 107.675 48.8572C109.934 48.8834 113.351 48.4093 116.049 48.41ZM134.571 37.0072C136.872 35.0552 141.416 33.9714 145.131 34.6831C146.408 34.9277 153.459 37.9601 154.463 38.9437C156.958 41.3893 154.439 41.9142 161.7 44.9054C165.865 46.6213 166.526 48.9333 169.122 51.1949C172.286 53.9502 173.532 52.9284 174.368 59.0319C175.488 67.1976 179.337 69.4723 179.868 70.4485C180.075 70.8291 181.518 76.5334 180.687 78.818C179.032 83.3668 182.032 86.661 179.027 90.1378C177.87 88.7941 178.537 89.4518 178.241 87.3836C178.03 85.9064 177.902 85.9616 177.114 85.0583C174.266 81.7965 176.879 75.8628 174.575 73.0838L170.88 69.475C170.407 65.2381 171.667 65.7534 167.588 64.2196L160.125 58.9025C159.63 58.3675 158.834 56.9606 158.361 56.3902C156.493 54.1425 154.779 55.2669 153.267 52.955L151.579 50.3626C151.011 49.0991 151.074 48.12 150.592 47.0556C149.527 44.7027 145.827 45.2854 143.339 41.4938C139.803 36.1046 143.121 39.0118 136.374 37.865C134.95 37.6229 134.892 37.2939 134.571 37.0072ZM126.316 12.5131C127.09 18.6642 124.313 17.2392 124.373 22.051C124.4 24.1784 125.41 25.085 124.721 27.508C124.287 29.0346 123.919 29.7901 123.539 31.8894C123.06 34.5392 121.046 37.9895 119.571 39.5018C117.717 41.4028 116.774 44.373 116.165 47.6124C113.306 47.3687 109.635 48.1133 107.358 47.9003C103.89 47.5761 104.32 44.3915 93.9994 43.3228C88.7849 42.783 90.9177 42.7787 86.7319 44.4076C85.776 39.691 87.003 39.4878 82.7776 34.5744C76.947 27.7942 72.3811 29.0002 63.8517 31.6026C60.8937 32.5052 60.6067 31.6934 58.1994 32.015C56.4229 32.2523 55.5544 33.4312 53.4163 33.7106C54.7732 27.249 61.5803 24.9997 62.2926 22.5886C60.7777 23.2325 59.3151 24.6206 57.9492 25.7237C54.4442 28.554 56.599 27.1713 54.2174 29.7869C56.2515 19.6334 54.9404 24.2772 58.9723 20.7966C60.1058 19.8181 59.4281 20.544 59.9988 19.3141C52.5889 23.7371 55.1027 22.4468 53.8243 28.8106C53.5567 30.1434 52.8749 34.0163 52.0981 34.8161C50.6878 36.2684 49.0654 36.017 47.7773 38.7475C50.0302 38.0519 49.1978 37.0021 52.3259 35.694L51.3767 43.8404C51.2022 43.8404 51.0333 43.827 51.4929 44.0462C51.5467 44.0718 51.7257 44.1474 51.7849 44.1736C51.8658 44.2097 52.0601 44.2665 52.1971 44.315L53.0887 34.8983C59.6176 31.9549 56.9152 33.0059 60.1783 33.0537C62.6007 33.0892 65.9152 31.8812 68.057 31.395C67.972 31.4719 67.8624 31.5776 67.804 31.6276C67.7469 31.6767 67.6249 31.7959 67.5543 31.8546C63.049 35.6021 65.8288 34.8998 63.6296 36.0862C61.5211 37.2237 58.8622 37.3073 57.8533 39.4201L58.2781 39.4656C60.3034 37.5905 63.7812 37.5248 65.2602 35.1901C66.56 33.1383 66.0053 33.7375 68.1803 32.5258C69.2972 31.9037 70.4977 31.1396 71.7978 30.5859C71.895 30.6336 72.0535 30.5903 72.0925 30.723L73.0627 31.387C74.0653 28.4738 79.6795 31.9722 82.0683 34.8594L85.0014 38.7542C85.6216 39.9253 85.8721 43.7576 85.9114 45.1242C84.0838 46.7064 83.8811 46.2853 82.946 48.7C84.0895 48.7692 83.7575 48.6097 83.7575 50.0061C84.3316 47.9197 85.855 47.2251 87.6045 46.986C92.508 53.343 88.8921 53.4792 90.3488 58.6007C91.4742 62.5572 93.3475 67.3997 95.5604 69.3726L96.0433 69.3246C95.1582 67.5954 94.3026 67.1468 93.4065 64.5639C92.7315 62.6185 91.9702 60.6172 91.3502 58.9284C90.1116 55.5548 91.9381 54.8518 91.0195 51.5875C90.4331 49.5042 89.3203 48.1201 88.4873 46.3992C94.4391 44.4829 97.2632 47.9803 98.9563 49.1611C99.516 49.5515 105.474 52.0808 107.914 54.2964C109.11 55.3828 112.844 57.0614 115.564 56.4776L113.217 63.9192L113.538 63.9016C113.86 63.4962 113.595 64.0587 114.085 63.0652C114.111 63.0134 114.523 62.0087 114.594 61.8435L117.082 55.4316L119.245 56.1767C118.863 59.1886 118.409 57.9233 118.939 61.574C119.893 68.1518 114.903 71.2732 114.607 75.055C114.438 77.214 114.865 78.6158 114.393 80.9498C113.978 83.0086 113.283 84.0435 113.096 86.1339C112.875 88.6158 112.567 91.0764 111.45 93.3435C110.481 95.3101 111.189 94.5781 109.45 94.7125C110.812 97.5864 107.534 99.585 106.629 105.391L107.345 105.885C108.201 104.394 107.107 105.503 109.282 101.664C109.318 101.601 109.383 101.483 109.411 101.422C109.435 101.368 109.462 101.246 109.479 101.194L111.426 95.4039C113.696 90.579 113.326 87.8727 114.904 82.6053C116.841 76.1354 113.76 76.3904 117.992 69.9445C120.838 65.6092 118.983 61.1822 120.166 56.6143C127.098 56.2805 128.01 60.1488 134.597 60.6521C135.897 61.9549 135.159 61.7795 136.804 62.5222C138.856 63.4488 137.946 63.5009 140.149 64.3635L139.275 63.0844L140.417 63.7255C139.554 61.8817 139.194 62.599 137.396 60.6908C136.993 60.2631 136.978 60.0896 136.501 59.4577C134.753 57.1385 133.965 59.3394 132.37 55.4835C131.183 52.6127 130.47 53.7276 128.311 51.4154C126.212 49.1671 124.585 49.858 123.271 48.5418C123.831 47.4188 125.376 46.2534 126.442 45.0871C127.796 43.6072 128.269 42.6416 129.499 40.8643C131.331 38.2153 137.277 38.3556 140.578 39.0384C141.965 40.2017 141.82 40.5622 142.745 42.0884C144.765 45.4189 148.542 45.8836 149.33 46.611C150.186 47.4006 150.335 49.3109 150.861 50.6231C153.424 57.0145 155.121 53.4134 159.139 59.0346C160.293 60.6484 160.406 60.4778 162.139 61.5671C163.505 62.4248 163.998 63.1834 165.248 64.0165C166.793 65.0466 167.976 65.0719 169.035 65.7573C171.016 67.0385 169.11 67.9978 170.28 70.0977C170.47 70.438 172.732 72.5986 173.074 72.8715C176.425 75.545 174.204 80.7091 175.308 84.3215C175.857 86.1195 178.496 86.3718 177.002 90.8354L173.992 92.024C173.992 93.1287 173.637 93.0956 174.532 92.7773L176.858 91.8445C176.935 92.1356 177.065 92.8885 177.104 92.9857C177.82 94.7819 177.352 93.6826 177.924 94.3103L178.166 93.5528L178.059 91.6909C178.568 91.239 178.175 91.4306 178.898 91.0508C178.902 91.0486 179.707 90.7561 179.761 90.7363C180.526 92.9575 182.063 92.6939 181.71 96.3908C181.436 99.2635 180.62 100.698 179.988 103.352C179.737 105.316 179.764 103.912 180.749 104.494C181.615 100.593 184.109 95.5951 181.908 92.2169C181.171 91.0871 180.893 90.5618 181.367 89.3462C184.972 89.792 188.815 89.6139 191.048 92.4765C192.145 93.8829 191.127 94.8649 194.012 95.1963L193.958 93.9073C190.501 92.1694 194.824 93.7028 189.023 89.7628C187.984 89.0569 182.649 88.3076 181.106 88.4323C182.056 84.4226 180.53 82.9043 181.001 80.4258C181.639 77.0731 182.67 79.8954 181.422 73.4625C179.565 63.8857 177.631 69.5735 175.829 62.0648C174.071 54.7419 175.972 55.4477 170.016 50.7265L166.856 47.4716C164.34 44.8461 163.516 45.2037 160.227 43.4393C153.819 40.0021 158.819 39.5106 150.566 36.0129C143.801 33.1453 142.983 32.7189 137.148 34.8402C135.163 35.5617 135.97 34.4783 134.109 36.096C129.457 40.1426 131.003 36.5402 127.572 42.3963C126.008 45.0644 125.539 44.539 123.476 46.8155C121.603 48.8835 119.945 49.545 117.152 47.6875C117.621 40.2166 122.964 39.1862 124.212 32.2251C125.051 27.5472 125.732 27.9914 125.107 22.9186C124.729 19.8467 126.149 17.2806 128.048 14.3652C127.645 13.6473 127.28 12.8864 126.449 12.2269L126.316 12.5131Z" fill="#FFFDF1"/>
<path fill-rule="evenodd" clip-rule="evenodd" d="M63.7116 151.058C66.1783 150.621 66.3825 149.173 69.4986 147.072C71.7061 145.583 73.6014 144.487 75.9443 143.273L87.6166 136.099C88.1955 135.659 87.7024 135.952 88.3461 135.64C88.6637 139.625 85.4981 147.012 83.5024 149.55C81.0208 152.705 75.4831 159.198 72.1017 161.619C65.8534 166.091 60.8584 166.241 54.2483 167.167C50.4657 167.697 48.8186 166.783 45.5295 166.004C46.202 163.445 47.0858 162.04 48.1872 160.331C49.5347 158.24 50.4043 158.263 53.0594 157.119L63.1169 151.788C63.8188 151.196 63.3229 151.651 63.7116 151.058ZM63.7116 151.058L55.2312 154.994C50.3391 158.085 49.0783 156.794 47.4532 159.646L44.455 165.317C40.402 163.31 38.8162 164.105 34.9545 162.667C32.7669 161.853 28.1567 159.757 26.6423 158.633C25.4891 157.777 24.8194 156.491 23.8104 155.483C22.0466 153.721 22.2214 154.456 21.2484 151.667C20.0154 148.133 19.4558 145.298 19.4571 141.475C23.27 144.874 24.255 142.315 26.6084 146.255C28.1393 148.818 30.8385 150.31 33.5276 151.782C41.7117 156.261 46.0692 151.986 47.9352 151.571C51.6818 150.738 58.6989 153.058 64.1456 148.975C65.2469 148.149 66.1886 146.671 67.2458 146.059C69.0647 145.007 69.741 145.307 71.4445 143.873C74.0549 141.674 73.5506 140.948 79.351 139.398C82.003 138.69 84.2595 135.428 85.689 135.027C88.4223 134.259 86.3313 137.009 81.6149 139.12L63.7116 151.058ZM18.9808 145.364C19.2155 147.194 19.8135 149.252 19.8856 150.748C16.7638 143.675 17.1502 145.655 15.0386 142.032L11.264 133.419C11.0903 130.836 11.0729 133.182 11.6477 132.143C12.3147 133.632 13.2509 134.529 14.4707 136.19C19.3043 142.768 17.8832 136.8 18.9808 145.364ZM45.3135 104.537C46.3404 106.798 46.6855 106.686 48.218 108.421C49.6042 109.99 49.5449 110.514 51.4953 111.567C54.4253 113.148 56.3848 115.462 60.2603 116.049C65.7315 116.878 68.0127 118.998 70.1256 119.422C74.4987 120.3 77.3616 118.747 80.9728 121.427C79.5455 122.723 78.3241 121.606 75.7276 122.11C73.4293 122.555 72.7415 121.375 71.0815 122.021C74.7431 124.269 77.5848 120.69 80.8392 123.73C79.1779 124.959 78.9672 123.992 76.3346 124.863C79.0891 126.647 81.4884 122.392 82.2273 125.866L76.1052 127.243C74.0456 127.425 71.594 126.595 70.5896 128.297L82.0219 127.139L83.3078 130.202C79.4809 130.733 75.7939 131.834 74.054 134.325C77.2088 134.124 73.6836 132.532 82.4526 130.935C85.1267 130.447 84.6926 130.988 85.2789 131.738C84.1446 132.345 83.442 133.167 82.1035 133.62C80.7441 134.079 79.8894 133.777 79.0958 135.143C82.2698 133.96 82.1375 134.556 84.5524 132.642C85.8196 131.637 85.082 132.089 86.5441 131.577C86.3122 134.471 85.0363 134.236 83.5361 135.474C82.2967 136.496 81.7653 137.578 79.9483 138.295C78.1267 139.013 77.2158 138.92 75.1625 139.905C71.6467 141.592 72.7884 143.022 67.7176 144.809C64.778 145.846 66.0537 145.974 64.3778 147.503C60.1625 151.348 53.8742 150.031 48.7059 150.44C45.906 150.662 42.0276 155.305 33.8452 150.975C30.2498 149.073 32.1577 149.843 30.0108 148.401C27.5629 146.757 28.7932 148.012 27.0791 145.385C26.2021 144.041 25.1007 143.275 23.3408 142.696C20.6995 141.827 21.5359 141.418 19.526 140.536C20.6121 134.665 19.8581 136.771 18.3288 131.938C17.1283 128.146 16.9754 121.811 17.7809 118.464C18.2419 116.549 18.0234 115.685 17.459 113.951C15.0899 106.678 14.0537 108.418 13.5218 107.36C13.3786 105.521 12.1114 99.7292 12.1344 99.411C12.2267 98.1365 13.2157 97.7771 13.5214 96.2205C13.7949 94.8268 11.469 89.5145 13.9331 84.1904C16.265 79.1521 16.4693 82.7092 18.5093 79.4914C20.523 79.4088 22.5261 79.3528 24.1105 80.4273C25.7096 81.5117 27.2216 81.6803 28.2767 82.6606C30.9165 85.1132 30.7569 88.5475 32.4155 91.3248L38.3849 98.6339C43.9765 102.292 43.7459 103.795 45.3135 104.537ZM6.44549 123.068C8.18481 123.475 6.41003 122.53 8.14039 123.732C7.21314 125.02 9.5517 125.435 6.5386 124.767C8.4314 126.37 9.00315 125.392 10.1418 130.6C11.7782 138.086 12.0302 135.424 13.9834 141.376C14.4923 142.926 14.9744 143.121 16.0395 144.458C17.4007 146.168 17.8675 149.252 19.1969 151.124C19.7802 151.945 20.5134 153.075 21.1833 153.842C23.7072 156.729 25.5502 159.553 29.0856 160.908C31.5604 161.856 33.2616 163.042 35.8253 163.953C38.9192 165.053 41.1976 164.225 43.7238 166.273C43.3801 166.493 41.6516 168.44 40.7528 169.146C39.2625 170.316 38.6536 170.582 36.9669 171.744C35.9931 172.416 32.7786 178.991 32.7089 180.333L32.8754 180.978C33.6338 179.154 34.4604 178.031 35.2881 176.503C36.5061 174.255 36.225 172.877 38.6614 172.32C37.859 175.474 37.037 185.707 38.3503 188.367C38.911 189.502 41.2934 192.545 42.084 193.163C43.3454 194.15 43.7319 193.872 45.3128 194.161C47.1224 194.492 47.1419 195.055 48.7896 195.297L48.8706 195.181C47.3394 192.497 44.0369 194.317 41.6206 191.505C39.4931 189.03 38.1388 187.628 38.5051 183.112C38.7577 179.999 38.4652 175.696 39.3651 172.904C40.4276 169.607 42.591 168.512 44.8823 166.764C52.7705 169.161 48.3699 168.843 56.8444 167.754C60.9852 167.222 61.8088 168.314 68.8036 164.744C71.2 163.521 75.646 160.603 77.1554 158.569L81.5851 153.165C83.4433 150.812 86.4833 147.87 87.3975 143.975C88.0016 141.401 88.3724 138.578 90.464 137.589C89.8707 143.313 84.6593 148.456 85.0642 154.4L88.2123 145.673C91.123 139.415 89.3756 144.377 91.4479 137.085C93.0954 137.135 91.7219 136.584 92.9301 137.657C92.9886 138.796 90.3039 144.038 89.8716 145.461C92.1117 144.479 92.0515 140.948 93.1056 139.11L94.4166 138.695C94.0699 137.019 93.3112 136.84 91.8528 135.929L89.3119 136.965C87.9805 134.123 89.6049 135.583 87.2837 134.407L87.0729 131.847C86.127 131.048 85.7191 130.7 84.7229 130.018C81.8269 128.035 83.7327 126.911 82.2947 123.905L81.5838 122.108C81.5794 122.06 81.5346 122.044 81.6026 122.038L82.5455 119.19L81.1635 120.618L80.1096 119.698C78.1306 119.36 77.6318 118.907 74.6742 118.793C72.3714 118.705 70.8644 118.937 68.8442 118.087C57.6988 113.399 61.8429 117.794 51.4078 110.783C49.5572 109.54 46.887 105.086 45.3135 104.537L44.0931 102.736C38.8421 96.1661 39.3969 99.8379 36.6247 95.2428C35.7929 93.8644 34.9084 93.4534 34.0025 92.3255C32.3244 90.2361 31.77 86.5845 30.2625 84.0942C28.3792 80.9834 26.1836 80.8951 25.0846 80.311C24.4841 79.9919 23.9013 79.4674 23.5243 79.2979C20.8594 78.0991 16.6242 78.9098 14.2173 80.2567C13.1094 80.8768 10.4365 85.4894 9.69578 87.2459C8.20944 90.7703 8.22197 92.981 7.75784 96.8099C7.35764 100.11 6.10451 103.307 5.84824 106.751C7.38598 104.786 8.48549 93.9672 9.02621 91.7339C9.68453 89.0143 10.1259 87.2243 11.5433 85.2505C12.3779 84.0883 12.4377 84.275 13.3043 82.7291C13.9283 81.6161 14.1527 81.2788 15.1991 80.8357C12.0259 83.6381 11.6727 90.778 12.3763 93.8586C13.4777 98.6806 10.8635 96.3623 11.5827 100.623C11.7863 101.828 12.2717 102.728 12.4614 104.071C12.6659 105.516 12.5346 106.463 12.8533 107.924C14.3306 109.421 14.3807 108.374 15.3427 110.537C16.2761 112.635 17.8615 115.943 17.1239 118.17C16.1521 121.105 17.0304 120.143 16.6648 122.834C15.3873 132.239 20.8981 134.796 18.7305 139.365C16.9257 137.897 12.5994 133.266 11.3621 130.782C10.8127 129.679 10.5121 128.295 9.96685 127.065C8.16559 122.999 4.54698 121.037 5.31678 110.35C4.82446 110.942 4.93778 109.622 4.50797 111.891C4.20273 113.503 4.52448 115.567 4.91244 117.108C5.44376 119.217 5.81934 121.056 6.44549 123.068Z" fill="#FFFDF1"/>
<path fill-rule="evenodd" clip-rule="evenodd" d="M121.049 132.131C119.533 131.259 120.492 132.228 120.195 131.131C120.76 130.236 119.615 129.726 121.733 130.536L126.742 133.306C129.034 134.552 130.182 137.003 133.047 137.564C138.044 138.543 144.365 140.527 146.699 145.146C137.674 144.841 141.314 143.897 139.05 142.349L132.039 139.091C131.015 138.424 129.713 137.813 128.874 137.126C127.908 136.336 128.793 136.658 127.374 136.062C122.558 134.04 127.204 135.673 121.049 132.131ZM122.958 130.149C127.893 129.867 128.062 129.484 133.097 130.376C139.226 131.461 140.582 129.472 142.348 128.91C143.678 128.486 150.085 128.04 152.116 127.731C153.911 127.458 154.708 126.787 156.063 125.981C157.415 125.178 158.425 124.756 159.802 124.222C163.777 131.24 162.688 132.043 163.314 137.281C163.635 139.966 163.235 139.336 162.282 140.746C160.761 142.998 160.686 145.858 157.241 146.291C153.871 146.714 151.106 145.679 147.84 145.056C146.168 144.015 147.783 141.421 135.668 137.188C132.157 135.962 134.324 138.441 129.005 134.024C125.439 131.062 124.837 132.085 122.958 130.149ZM166.014 122.184C167.017 128.538 165.726 131.524 164.269 136.832C163.642 133.895 164.117 132.515 163.004 129.495C162.321 127.641 160.887 125.118 160.877 123.434L166.014 122.184ZM167.022 95.9597L166.787 96.0101L166.444 97.468L164.197 98.6895C165.188 98.469 164.927 98.2826 164.927 99.3154C165.252 98.5991 165.842 98.501 166.638 98.2664C167.434 99.8404 168.034 101.888 168.735 103.716C169.878 106.693 170.188 105.754 169.592 109.538C169.43 110.567 169.422 112.132 169.148 112.977C168.493 115.003 166.959 113.277 165.999 121.092L160.613 122.503C160.484 120.862 160.324 119.74 159.33 118.602L159.093 118.576C159.102 120.462 159.892 120.208 159.676 123.227C154.833 125.785 151.833 127.281 146.146 127.729C143.467 127.939 143.276 127.402 141.103 128.526C137.382 130.451 135.253 129.802 131.126 128.95C128.347 128.376 122.172 129.882 120.763 128.414L120.57 128.427C119.419 129.863 119.912 130.619 118.973 132.455C118.654 133.078 118.247 133.604 117.67 134.158C117.441 134.378 117.212 134.533 117.015 134.732C116.182 135.57 116.945 134.616 116.652 135.252L116.655 135.501L118.839 134.826C124.467 144.136 124.27 136.771 127.615 141.809C128.839 143.651 130.046 144.344 132.122 145.444C134.116 146.5 135.044 147.482 136.735 148.513C136.735 147.037 137.263 147.542 138.29 147.814C137.278 147.859 132.111 144.583 130.237 143.471C128.75 142.59 129.105 142.56 128.013 140.99C124.798 136.369 124.584 142.041 120.466 135.722C119.582 134.367 119.294 134.173 119.748 132.623C122.637 133.16 122.779 133.981 124.322 135.683C125.119 136.561 125.366 136.399 126.811 137.102C128.008 137.684 128.426 137.991 129.079 138.611C131.196 139.206 134.222 140.942 135.934 142.04C136.898 142.659 137.336 142.51 138.442 142.866C140.224 144.014 137.991 145.865 147.411 146.06C148.29 147.603 148.915 149.442 149.965 151.075C151.962 154.182 153.152 158.793 153.593 162.798C154.028 166.739 152.551 166.571 152.334 168.794L152.557 169.016C155.245 166.597 154.232 161.751 153.318 158.001C152.86 156.12 152.447 153.986 151.615 152.441C150.504 150.374 149.887 149.68 149.046 147.491C150.356 148.239 150.731 148.826 151.724 149.365L151.896 149.533C151.536 147.737 150.84 147.628 148.831 146.258C151.017 145.944 154.528 147.867 158.401 147.035C161.085 146.458 161.947 143.185 163.477 141.104C164.839 139.251 164.926 139.89 165.275 136.772C165.908 131.114 167.354 134.146 166.905 121.958C172.121 121.38 173.899 119.492 176.412 115.551C177.553 113.762 178.437 112.947 179.218 110.195C179.759 108.291 180.052 106.131 180.749 104.494C179.764 103.912 179.737 105.316 179.988 103.352L179.173 107.013C178.944 99.9103 178.707 106.287 179.496 99.8258C179.985 95.8179 179.395 96.2496 178.166 93.5527L177.924 94.3102C178.102 96.0181 178.806 95.8206 178.696 98.5235C178.618 100.442 178.035 101.667 177.96 103.205C177.671 109.101 178.877 103.55 177.131 111.997C176.234 116.334 171.739 121.222 166.955 120.91C166.862 119.14 167.711 116.172 168.561 114.983C170.708 111.977 169.602 113.114 170.388 109.133C171.381 104.104 167.632 102.104 167.646 97.6706L171.087 94.8591C171.685 94.3287 173.488 93.0659 174.531 92.7772C173.637 93.0955 173.992 93.1286 173.992 92.0239C173.327 93.0286 171.748 93.4747 170.926 94.2909C169.674 95.5353 168.946 95.8558 167.937 96.7341C167.287 96.3222 167.599 96.7527 167.022 95.9597Z" fill="#FFFDF1"/>
<path fill-rule="evenodd" clip-rule="evenodd" d="M62.293 22.5885C63.871 21.6514 64.3395 21.2439 65.4426 19.9457C69.128 15.6077 69.9066 12.7357 74.7601 11.7442C83.5446 9.94976 83.2255 3.07389 90.17 3.55581C97.762 4.08257 92.084 7.62316 109.872 5.39836C112.072 5.1233 112.787 5.82617 114.934 5.98264C116.692 6.11063 117.829 6.69705 119.304 7.42641L123.369 9.37417C125.178 10.0873 124.788 11.294 126.317 12.513L126.45 12.2268C125.063 8.24859 122.823 8.54714 118.743 6.31108C117.808 5.79927 116.795 4.14849 112.82 3.73477L102.972 2.95857C96.7892 2.05822 101.733 -1.61292 85.1975 0.819181C81.9334 1.29939 80.2829 3.59268 76.917 3.78773C73.6953 3.97466 72.6918 5.53061 68.6049 8.60323L72.1495 6.60038C73.3686 5.63583 73.7158 6.17569 75.2116 4.61319C79.2413 5.02463 80.1948 3.86418 83.3071 2.416C83.7919 2.19034 91.0821 0.810923 91.9173 0.690763C95.1594 0.224076 97.7262 1.50156 100.152 2.67739C105.735 5.38383 105.768 2.45686 108.719 4.67569C99.1292 4.95445 102.544 6.17555 93.7888 3.45985C89.5263 2.13766 89.395 2.12072 85.6339 3.81663C85.5116 3.87173 85.138 4.01168 85.0193 4.06976L81.514 6.58002C80.2465 8.00842 81.6262 8.28618 76.7087 10.2453C73.4386 11.5481 74.9621 9.69948 70.163 12.7292C67.1445 14.6349 68.7762 16.2829 64.3703 19.764L62.4463 22.2149C62.4022 22.304 62.3428 22.4635 62.293 22.5885Z" fill="#FFFDF1"/>
<path fill-rule="evenodd" clip-rule="evenodd" d="M80.1608 119.521C80.279 119.429 82.8236 120.174 79.0183 117.806L78.1178 117.254C78.0378 117.207 77.8939 117.128 77.7798 117.069C75.495 115.985 72.3032 116.649 69.2095 115.65C67.7095 115.166 66.8816 114.445 65.3974 114.18C63.983 113.928 62.8807 114.121 61.3877 113.587C59.9748 113.081 59.481 112.22 58.1359 111.756C56.933 111.341 55.7275 111.367 54.5538 110.648C53.1132 109.765 53.4485 108.956 52.2 107.88L50.8581 106.638C50.0192 105.742 50.6978 106.11 49.5625 105.807C50.1499 107.968 50.9435 107.693 52.131 108.796C52.9742 109.579 53.3736 111.072 54.8168 111.679C56.3619 112.328 57.1444 111.937 58.9287 113.094C63.0684 115.779 63.7838 114.138 67.3511 115.805C73.3322 118.598 76.7384 115.485 80.1608 119.521Z" fill="#FFFDF1"/>
<path fill-rule="evenodd" clip-rule="evenodd" d="M49.5612 105.807C49.0626 104.319 49.114 104.322 47.8688 103.234L43.4687 99.0722C39.6518 95.7293 41.4179 98.9992 37.5393 91.3609C35.4156 87.1788 37.5334 86.8685 36.7056 83.1841C35.0872 85.7372 36.1073 90.9448 37.8231 94.0232C40.8161 99.3937 40.7639 97.681 44.742 101.222C48.5083 104.575 48.2925 104.968 48.7116 105.363C49.5533 106.155 48.4913 105.418 49.5612 105.807Z" fill="#FFFDF1"/>
<path fill-rule="evenodd" clip-rule="evenodd" d="M66.669 101.95C66.3181 100.752 67.0036 101.901 66.2993 101.036L63.3125 98.8992C61.3152 97.7839 60.756 97.6677 59.3509 96.023C56.5867 92.787 56.4329 94.3673 53.0552 90.3591C52.1133 89.2413 52.9353 90.0195 52.1328 89.5427C52.8425 93.0857 56.5606 93.7033 58.6462 96.2893C59.9648 97.9244 60.3203 97.9532 62.5397 99.2512C64.4584 100.373 65.2153 101.403 66.669 101.95Z" fill="#FFFDF1"/>
<path fill-rule="evenodd" clip-rule="evenodd" d="M97.8565 107.03C98.7812 105.669 97.6348 100.479 97.4211 98.9902C96.1453 99.8947 95.6862 97.4609 96.8538 101.171C98.1382 105.252 96.7615 104.615 97.8565 107.03Z" fill="#FFFDF1"/>
<path fill-rule="evenodd" clip-rule="evenodd" d="M90.5527 100.723C90.6974 101.625 93.798 107.805 94.7435 108.211C94.5406 107.054 93.659 105.642 93.0045 104.278C92.1238 102.444 92.1649 101.408 90.5527 100.723Z" fill="#FFFDF1"/>
<path fill-rule="evenodd" clip-rule="evenodd" d="M99.1401 148.975C99.2046 148.892 99.3244 148.671 99.3451 148.735L99.8072 147.587C99.8931 147.006 99.8492 145.825 99.8081 145.212L99.4697 141.67C99.1925 140.515 99.4735 141.366 98.9783 140.62C98.6469 142.764 98.8431 142.599 99.09 144.658C99.2749 146.201 99.1929 145.763 98.9808 147.197C98.7363 148.849 98.686 148.157 99.1401 148.975Z" fill="#FFFDF1"/>
<path fill-rule="evenodd" clip-rule="evenodd" d="M121.871 142.918C121.601 142.007 122.092 142.735 121.486 141.998C120.744 141.095 120.786 141.862 119.411 139.78C118.592 138.539 118.449 137.333 116.861 137.092C118.497 138.631 119.061 141.841 121.871 142.918Z" fill="#FFFDF1"/>
<path fill-rule="evenodd" clip-rule="evenodd" d="M87.189 110.071C86.6392 107.813 85.6634 105.359 83.5391 104.374C84.6296 105.974 84.6896 105.535 85.4551 107.479C86.2471 109.491 86.0476 109.39 87.189 110.071Z" fill="#FFFDF1"/>
<path fill-rule="evenodd" clip-rule="evenodd" d="M119.166 119.031C120.522 119.889 121.908 119.119 123.353 118.494C124.78 117.877 126.264 117.381 127.513 116.894L127.815 118.18L129.855 117.381C129.284 116.937 129.852 117.275 129.101 116.981L119.166 119.031Z" fill="#FFFDF1"/>
<path fill-rule="evenodd" clip-rule="evenodd" d="M118.969 106.38C119.411 105.749 119.309 106.031 119.399 104.969C117.967 105.025 118.642 104.355 116.131 107.069L118.969 106.38Z" fill="#FFFDF1"/>
<path fill-rule="evenodd" clip-rule="evenodd" d="M123.816 136.465C122.983 134.706 122.881 135.845 121.153 134.192L120.755 133.732C120.221 133.218 120.603 133.52 119.973 133.092C120.414 134.743 119.956 134.338 122.41 135.945C123.623 136.739 122.186 136.336 123.816 136.465Z" fill="#FFFDF1"/>
<path fill-rule="evenodd" clip-rule="evenodd" d="M61.9512 121.082C61.9757 121.099 62.299 122.462 65.3118 121.167C64.7812 120.665 66.7369 120.527 63.6966 120.622C62.8999 120.647 62.3453 120.741 61.9512 121.082Z" fill="#FFFDF1"/>
<path fill-rule="evenodd" clip-rule="evenodd" d="M95.917 95.8417C95.9476 95.7729 96.0696 96.0213 96.1469 96.1103C96.5055 95.4539 96.8882 96.9008 96.3835 94.8925C95.7856 92.5129 94.6092 93.085 94.6055 93.0845L95.917 95.8417Z" fill="#FFFDF1"/>
<path fill-rule="evenodd" clip-rule="evenodd" d="M71.1172 141.486C72.3581 141.143 73.9051 139.876 74.1548 138.898C73.4658 139.239 72.9331 139.463 72.2489 139.934C71.2372 140.629 71.2611 140.363 71.1172 141.486Z" fill="#FFFDF1"/>
<path fill-rule="evenodd" clip-rule="evenodd" d="M83.9355 141.892C85.669 140.879 86.4441 140.147 87.3407 138.359C85.9756 139.062 84.5959 140.598 83.9355 141.892Z" fill="#FFFDF1"/>
<path fill-rule="evenodd" clip-rule="evenodd" d="M121.871 142.918L121.874 144.261L120.619 144.423C121.718 145.348 122.501 144.663 123.217 144.236C122.586 142.73 123.213 143.235 121.871 142.918Z" fill="#FFFDF1"/>
<path fill-rule="evenodd" clip-rule="evenodd" d="M87.8105 107.647C87.8692 107.697 88.874 109.489 88.934 109.584C90.0379 111.342 89.3645 110.394 90.4195 111.011C89.8614 109.425 89.3283 108.575 87.8105 107.647Z" fill="#FFFDF1"/>
<path fill-rule="evenodd" clip-rule="evenodd" d="M105.387 95.4482L104.762 92.665C104.301 93.1059 103.861 91.5366 104.334 94.1045C104.815 96.7198 104.632 95.2324 105.387 95.4482Z" fill="#FFFDF1"/>
<path fill-rule="evenodd" clip-rule="evenodd" d="M76.1035 145.774C76.2751 145.673 77.2381 145.179 77.3224 145.112C78.6218 144.074 77.9139 144.661 78.3931 143.599C77.9822 143.824 76.9364 144.335 76.7358 144.499C75.7665 145.289 76.245 144.438 76.1035 145.774Z" fill="#FFFDF1"/>
<path fill-rule="evenodd" clip-rule="evenodd" d="M121.275 114.1C122.596 113.518 122.997 113.063 123.382 111.865C122.707 112.145 122.861 111.954 122.202 112.597C120.995 113.778 121.799 112.801 121.275 114.1Z" fill="#FFFDF1"/>
<path fill-rule="evenodd" clip-rule="evenodd" d="M71.8154 113.05C71.0059 112.517 73.3503 112.67 70.5323 112.57C68.5399 112.499 69.703 112.74 69.3086 113.019C70.1618 113.363 70.777 113.564 71.8154 113.05Z" fill="#FFFDF1"/>
<path fill-rule="evenodd" clip-rule="evenodd" d="M115.768 111.785C116.409 111.679 116.909 111.622 117.435 111.334C119.025 110.465 117.915 111.051 118.647 110.258C118.046 110.433 117.151 110.67 116.673 110.928C115.928 111.33 116.033 111.447 115.768 111.785Z" fill="#FFFDF1"/>
<path fill-rule="evenodd" clip-rule="evenodd" d="M113.861 146.868C113.143 145.462 113.197 145.6 111.707 145.273C112.113 146.532 112.806 146.538 113.861 146.868Z" fill="#FFFDF1"/>
<path fill-rule="evenodd" clip-rule="evenodd" d="M99.1377 154.874C99.6692 153.633 99.5556 153.736 99.1377 152.549C98.8688 152.978 98.6669 152.208 98.6413 153.626C98.5959 156.137 98.5791 154.178 99.1377 154.874Z" fill="#FFFDF1"/>
<path fill-rule="evenodd" clip-rule="evenodd" d="M70.1328 102.075L72.413 103.069C71.8892 102.167 72.9812 102.37 71.1357 101.735C70.2837 101.442 70.2413 101.924 70.1328 102.075Z" fill="#FFFDF1"/>
<path fill-rule="evenodd" clip-rule="evenodd" d="M83.5293 100.338C83.5415 100.415 83.6933 101.479 83.699 101.498C84.0699 102.751 83.889 102.007 84.1863 102.485C84.207 102.443 84.9519 102.472 84.3525 100.99C83.7302 99.4514 84.1406 100.55 83.5293 100.338Z" fill="#FFFDF1"/>
<path fill-rule="evenodd" clip-rule="evenodd" d="M131.688 120.74C132.587 121.189 132.814 120.976 134.14 120.987C132.923 119.992 134.76 120.444 132.915 120.264C131.533 120.128 131.721 120.717 131.688 120.74Z" fill="#FFFDF1"/>
<path fill-rule="evenodd" clip-rule="evenodd" d="M87.2133 102.409C87.1682 100.417 87.3179 102.292 86.7501 101.555C86.0966 102.747 86.138 102.62 86.7501 103.552C86.9476 103.304 87.2511 104.079 87.2133 102.409Z" fill="#FFFDF1"/>
<path fill-rule="evenodd" clip-rule="evenodd" d="M118.818 102.362C118.907 102.317 119.048 102.147 119.079 102.22L121.141 99.9812C119.6 100.494 119.142 100.959 118.818 102.362Z" fill="#FFFDF1"/>
<path fill-rule="evenodd" clip-rule="evenodd" d="M114.887 105.749C115.583 104.063 115.69 104.736 114.353 103.987C114.46 105.075 113.385 104.341 114.887 105.749Z" fill="#FFFDF1"/>
<path fill-rule="evenodd" clip-rule="evenodd" d="M75.579 113.812L75.0762 113.905C75.5924 114.265 74.7301 115.051 77.2042 114.677C76.8884 114.41 76.718 114.153 76.1157 113.926C76.0174 113.888 75.6533 113.825 75.579 113.812Z" fill="#FFFDF1"/>
<path fill-rule="evenodd" clip-rule="evenodd" d="M87.6992 151.459C88.7512 150.92 88.8938 150.404 89.2298 149.315C87.9657 149.905 88.0719 150.153 87.6992 151.459Z" fill="#FFFDF1"/>
<path fill-rule="evenodd" clip-rule="evenodd" d="M64.1543 118.604C65.6621 119.426 65.5966 119.152 66.2725 118.604C65.9665 118.485 66.1483 118.307 65.316 118.282C63.3362 118.222 64.6653 118.283 64.1543 118.604Z" fill="#FFFDF1"/>
<path fill-rule="evenodd" clip-rule="evenodd" d="M128.555 112.776C130.29 112.011 129.545 112.775 130.272 110.954C128.896 111.585 129.019 111.777 128.555 112.776Z" fill="#FFFDF1"/>
<path fill-rule="evenodd" clip-rule="evenodd" d="M68.7383 120.74C71.2958 121.844 70.2325 120.81 70.5491 120.539C69.6944 120.247 71.0038 120.104 69.6344 120.33C68.6033 120.5 69.0943 120.491 68.7383 120.74Z" fill="#FFFDF1"/>
<path fill-rule="evenodd" clip-rule="evenodd" d="M133.734 115.545C134.559 115.104 135.209 115.935 134.651 113.99C133.654 114.681 133.897 114.238 133.734 115.545Z" fill="#FFFDF1"/>
<path fill-rule="evenodd" clip-rule="evenodd" d="M87.1621 110.87C87.8043 112.013 87.8579 112.091 89.035 112.682C88.6579 111.609 89.0654 112.196 88.3026 111.505C88.2998 111.503 87.3055 110.961 87.1621 110.87Z" fill="#FFFDF1"/>
<path fill-rule="evenodd" clip-rule="evenodd" d="M65.6089 112.623C65.6655 112.657 64.7266 114.452 66.9453 112.623C65.8227 111.941 66.3843 112.309 65.6089 112.623Z" fill="#FFFDF1"/>
<path fill-rule="evenodd" clip-rule="evenodd" d="M71.9805 111.768C73.9368 112.86 72.9365 111.897 73.2285 111.768C73.0968 111.681 73.7084 110.107 71.9805 111.768Z" fill="#FFFDF1"/>
<path fill-rule="evenodd" clip-rule="evenodd" d="M88.8874 99.0546C88.9623 98.9533 90.6579 100.111 88.8874 97.7793C88.4776 98.4049 88.049 97.687 88.8874 99.0546Z" fill="#FFFDF1"/>
<path fill-rule="evenodd" clip-rule="evenodd" d="M91.6426 92.4567C92.4159 93.2004 90.5516 92.8274 93.0324 93.7319C92.5313 92.0304 92.8315 92.8808 91.6426 92.4567Z" fill="#FFFDF1"/>
<path fill-rule="evenodd" clip-rule="evenodd" d="M125.625 104.904C127.25 104.354 126.648 105.742 126.808 103.783C124.888 104.382 126.039 103.86 125.625 104.904Z" fill="#FFFDF1"/>
<path fill-rule="evenodd" clip-rule="evenodd" d="M118.701 147.688L117.41 146.417C117.392 148.033 117.183 147.588 118.701 147.688Z" fill="#FFFDF1"/>
<path fill-rule="evenodd" clip-rule="evenodd" d="M82.1309 92.5442C83.2929 93.4108 82.7345 93.2607 83.6908 92.5171C82.9209 92.221 83.7334 92.2196 82.8641 92.2806C82.021 92.3399 82.5978 92.2687 82.1309 92.5442Z" fill="#FFFDF1"/>
<path fill-rule="evenodd" clip-rule="evenodd" d="M105.119 152.883C105.638 151.895 105.893 152.826 105.119 151.629C103.734 153.26 104.898 152.685 105.119 152.883Z" fill="#FFFDF1"/>
<path fill-rule="evenodd" clip-rule="evenodd" d="M121.766 107.916C122.699 107.506 121.945 108.469 122.505 107.412C123.265 105.978 122.36 106.906 122.084 106.662L121.766 107.916Z" fill="#FFFDF1"/>
<path fill-rule="evenodd" clip-rule="evenodd" d="M129.312 132.443C130.931 131.786 129.736 132.662 130.556 131.3C129.346 131.639 129.544 131.165 129.312 132.443Z" fill="#FFFDF1"/>
<path fill-rule="evenodd" clip-rule="evenodd" d="M68.3346 103.61L66.6691 101.949C66.8776 103.079 65.6405 102.263 67.3387 102.97C67.8057 103.783 67.5652 103.392 68.3346 103.61Z" fill="#FFFDF1"/>
<path fill-rule="evenodd" clip-rule="evenodd" d="M60.0195 19.3336L61.9582 17.6794C60.4828 18.1891 61.6326 17.1639 60.7059 18.1833C59.9226 19.0452 60.7412 17.9743 60.0195 19.3336Z" fill="#FFFDF1"/>
<path fill-rule="evenodd" clip-rule="evenodd" d="M125.687 141.418C125.095 140.609 126.136 141.069 124.287 140.323C124.857 141.504 123.799 140.945 125.687 141.418Z" fill="#FFFDF1"/>
<path fill-rule="evenodd" clip-rule="evenodd" d="M124.499 102.222C125.657 102.029 125.287 102.495 125.424 101.288C124.722 101.429 124.404 101.284 124.499 102.222Z" fill="#FFFDF1"/>
<path fill-rule="evenodd" clip-rule="evenodd" d="M118.819 102.362C118.166 102.858 118.311 101.023 118.094 103.537C119.244 103.132 118.706 103.578 118.819 102.362Z" fill="#FFFDF1"/>
<path fill-rule="evenodd" clip-rule="evenodd" d="M75.1365 135.265C75.0327 136.949 75.6598 135.673 75.7943 135.273C76.0168 134.612 75.1805 134.549 75.1365 135.265Z" fill="#FFFDF1"/>
<path fill-rule="evenodd" clip-rule="evenodd" d="M75.1681 102.797C75.1587 104.21 75.6883 103.357 75.8449 102.806C76.0413 102.116 75.1728 102.079 75.1681 102.797Z" fill="#FFFDF1"/>
<path fill-rule="evenodd" clip-rule="evenodd" d="M82.623 143.256C83.7708 142.784 83.3841 142.87 84.0684 141.746C83.255 142.318 82.8309 142.351 82.623 143.256Z" fill="#FFFDF1"/>
<path fill-rule="evenodd" clip-rule="evenodd" d="M129.078 138.611C127.533 139.118 128.557 138.266 127.992 139.697C129.392 139.244 128.635 139.853 129.078 138.611Z" fill="#FFFDF1"/>
<path fill-rule="evenodd" clip-rule="evenodd" d="M134.17 127.575C134.467 127.77 133.9 128.578 135.47 127.575C134.338 126.805 134.579 127.781 134.435 127.394C134.395 127.289 134.259 127.516 134.17 127.575Z" fill="#FFFDF1"/>
<path fill-rule="evenodd" clip-rule="evenodd" d="M111.312 148.883C112.078 148.203 111.986 149.289 111.93 148.09C111.883 147.099 111.863 147.764 111.528 147.387L111.312 148.883Z" fill="#FFFDF1"/>
<path fill-rule="evenodd" clip-rule="evenodd" d="M96.4658 147.654C96.5039 148.409 97.2633 148.027 97.0932 147.582C96.9636 147.243 96.3791 145.934 96.4658 147.654Z" fill="#FFFDF1"/>
<path fill-rule="evenodd" clip-rule="evenodd" d="M132.786 125.918C134.414 125.328 133.148 126.178 133.932 124.841C131.354 125.737 133.612 125.004 132.786 125.918Z" fill="#FFFDF1"/>
<path fill-rule="evenodd" clip-rule="evenodd" d="M135.549 119.031C135.565 119.542 136.549 120.646 136.171 119.13C135.91 118.08 135.544 118.885 135.549 119.031Z" fill="#FFFDF1"/>
<path fill-rule="evenodd" clip-rule="evenodd" d="M80.7363 145.516C82.2665 144.981 81.1455 145.607 81.8501 144.337C79.6835 145.293 81.7016 144.153 80.7363 145.516Z" fill="#FFFDF1"/>
<path fill-rule="evenodd" clip-rule="evenodd" d="M121.765 107.916C120.977 108.23 121.633 107.691 120.919 108.367C120.301 108.952 120.78 108.501 120.457 109.516L121.765 107.916Z" fill="#FFFDF1"/>
<path fill-rule="evenodd" clip-rule="evenodd" d="M111.099 141.72C110.914 142.532 111.095 142.198 111.964 142.472C111.635 141.783 112.357 142.334 111.532 141.734C110.762 141.175 111.66 141.5 111.099 141.72Z" fill="#FFFDF1"/>
<path fill-rule="evenodd" clip-rule="evenodd" d="M133.83 123.303L135.076 123.457C134.558 122.081 133.848 123.285 133.83 123.303Z" fill="#FFFDF1"/>
<path fill-rule="evenodd" clip-rule="evenodd" d="M81.1945 142.127C82.3007 140.341 81.3999 141.535 81.1945 141.086C81.1353 141.185 80.9929 141.218 80.9983 141.373C80.9983 141.373 80.802 141.966 81.1945 142.127Z" fill="#FFFDF1"/>
<path fill-rule="evenodd" clip-rule="evenodd" d="M133.365 134.838C133.444 134.904 133.559 134.949 133.592 135.047L134.344 134.838C134.199 134.75 135.213 133.736 133.365 134.838Z" fill="#FFFDF1"/>
<path fill-rule="evenodd" clip-rule="evenodd" d="M108.537 151.888L108.726 150.588C108.298 150.744 107.889 151.261 108.537 151.888Z" fill="#FFFDF1"/>
<path fill-rule="evenodd" clip-rule="evenodd" d="M137.734 126.988C138.195 127.594 137.494 128.326 138.66 127.148L137.734 126.988Z" fill="#FFFDF1"/>
<path fill-rule="evenodd" clip-rule="evenodd" d="M72.7578 129.284C72.8449 130.125 72.283 129.367 73.174 129.51C73.819 129.614 72.6461 128.208 72.7578 129.284Z" fill="#FFFDF1"/>
<path fill-rule="evenodd" clip-rule="evenodd" d="M134.721 133.697C136.423 132.961 135.286 133.993 135.89 132.663L134.721 133.697Z" fill="#FFFDF1"/>
<path fill-rule="evenodd" clip-rule="evenodd" d="M69.2969 125.48L70.5361 125.439C69.588 124.81 69.6448 125.218 69.2969 125.48Z" fill="#FFFDF1"/>
<path fill-rule="evenodd" clip-rule="evenodd" d="M116.654 99.4782C117.555 97.7514 116.848 98.9067 116.654 98.4128V99.4782Z" fill="#FFFDF1"/>
<path fill-rule="evenodd" clip-rule="evenodd" d="M80.712 107.69L81.179 107.125C79.1819 106.457 81.4328 106.833 80.712 107.69Z" fill="#FFFDF1"/>
</svg>
