<svg width="531" height="621" viewBox="0 0 531 621" fill="none" xmlns="http://www.w3.org/2000/svg">
<path fill-rule="evenodd" clip-rule="evenodd" d="M303.753 495.802C306.588 492.871 313.517 496.303 315.835 497.856C319.275 500.16 330.922 509.189 334.084 512.336C335.352 513.599 337.287 514.948 338.4 516.144C339.301 517.112 339.836 517.333 340.605 518.124L342.691 520.259C341.086 519.597 339.148 518.28 337.633 517.399C329.536 512.693 321.211 506.979 312.768 502.667C310.838 501.681 306.956 499.659 305.381 498.254C304.411 497.388 304.131 497.058 303.753 495.802ZM194.788 485.437C193.862 472.469 201.559 465.895 209.927 461.775C217.248 458.171 224.753 456.282 233.21 456.17C235.92 456.134 236.654 457.175 239.805 459.315C247.383 464.459 255.408 469.17 263.973 474.005C265.997 475.148 268.133 476.23 270.299 477.27C272.196 478.182 275.618 479.394 276.883 480.522C278.3 481.785 279.886 485.052 278.813 487.61C274.146 498.742 279.705 493.924 269.264 507.376C261.988 516.75 240.129 522.713 229.953 526.325C222.065 529.126 215.438 522.911 210.772 518.109L208.406 515.556C202.726 509.374 195.543 496.022 194.788 485.437ZM258.107 542.516C258.355 534.218 267.622 518.818 271.267 513.333C274.126 509.03 276.485 504.431 277.091 498.231C277.327 495.826 278.99 492.968 279.594 490.12C280.485 485.916 279.335 488.305 281.638 484.288L282.79 482.623C282.038 492.36 276.27 506.421 272.628 514.702C268.904 523.171 265.19 531.376 260.6 539.389C259.966 540.495 259.218 542.026 258.107 542.516ZM285.215 508.479C286.557 501.671 287.717 494.709 288.756 487.742C289.296 484.124 289.753 480.664 290.147 477.035C290.472 474.046 289.945 474.231 291.961 472.693C293.568 471.466 293.001 471.028 295.462 470.265C296.001 473.36 294.142 475.568 298.161 475.455C300.133 475.4 299.457 478.139 303.288 478.153C306.595 495.019 290.584 501.316 286.693 506.642C286.422 507.014 286.281 507.217 286.079 507.496C285.881 507.768 286.036 507.597 285.754 507.93C285.47 508.266 285.463 508.253 285.215 508.479ZM304.322 478.28L337.459 471.076C353.394 468.169 392.869 465.355 406.903 477.369C415.253 484.517 406.291 499.865 401.905 506.003L398.725 510.215C395.767 514.127 390.807 518.312 387.032 521.397C385.341 522.78 383.093 524.274 381.018 525.468C367.993 532.962 360.226 530.003 347.223 522.825C346.243 522.284 342.774 519.087 341.793 518.151L328.338 506.264C323.847 502.531 316.108 495.618 310.098 494.239C307.92 493.739 302.266 493.196 302.901 496.484C303.448 499.312 311.632 503.079 314.819 504.808L346.381 523.665C347.848 525.056 349.849 527.234 350.993 529.138C358.517 541.662 357.111 564.415 342.051 571.938C336.982 574.471 331.564 575.49 325.247 575.599C315.392 575.77 298.76 572.712 293.07 567.396C288.026 562.683 284.902 545.285 283.65 536.42C282.238 526.414 282.664 523.191 284.295 513.641C284.647 511.579 284.562 511.195 285.592 509.728C291.107 501.872 295.628 501.991 300.635 494.497C303.018 490.93 304.413 487.777 304.687 483.224C304.815 481.085 304.401 480.055 304.322 478.28ZM299.791 475.106L303.083 473.863C303.486 475.101 303.827 475.832 303.659 477.237C301.169 477.23 300.893 476.405 299.791 475.106ZM297.223 470.179C300.186 470.779 300.823 471.029 302.603 472.809C301.938 473.566 300.167 474.131 299.078 474.239C298.393 473.276 297.379 471.583 297.223 470.179ZM237.207 456.348C247.156 456.347 259.181 461.626 266.363 465.672C269.116 467.223 278.145 473.371 280.208 475.695C281.827 477.517 284.039 479.057 281.941 482.122C281.24 483.146 280.688 484.285 280.05 485.116C279.328 483.187 279.743 481.577 276.994 479.41C275.428 478.176 272.701 477.501 270.787 476.526C266.744 474.465 262.759 472.442 259.129 470.226L242.551 460.002C241.456 459.306 237.92 457.147 237.207 456.348ZM283.768 479.522L283.603 479.181C283.527 478.988 283.469 478.835 283.403 478.635C282.894 477.1 283.07 477.269 281.808 476.056C278.555 472.929 276.455 471.242 272.618 468.508C264.099 462.439 252.035 457.164 241.108 455.752C235.451 455.021 236.868 456.259 232.586 453.236L224.766 447.283C221.828 444.917 216.512 440.477 215.182 437.431C213.292 433.102 215.538 422.547 216.717 418.026C219.998 405.446 226.228 388.71 236.133 382.02C238.219 380.612 240.452 379.018 243.295 378.118C252.194 375.299 257.969 386.146 261.293 392.296L269.025 406.729C275.725 419.494 281.675 430.242 286.541 444.642C288.531 450.53 289.978 456.691 290.02 463.473C290.098 475.878 289.911 472.579 286.428 476.519L283.768 479.522ZM296.419 457.065C295.668 455.03 295.783 428.94 296.433 423.204C296.523 422.411 296.601 421.791 296.76 421.023C296.822 420.722 296.921 420.255 297.017 420.031C297.246 419.497 296.986 420.027 297.299 419.56L297.552 419.287C298.959 425.537 296.835 449.156 296.419 457.065ZM167.433 559.534V560.448C186.971 559.29 239.453 555.574 256.155 547.246C258.863 545.896 260.158 544.563 261.709 542.722C262.177 542.166 262.38 541.957 262.9 541.449C263.519 540.846 263.605 540.593 264.15 539.991C266.34 537.573 268.881 534.172 270.889 531.467L283.499 513.031C282.994 516.539 282.168 520.096 281.891 523.726C281.197 532.824 285.688 557.123 290.22 565.071C291.885 567.99 293.57 569.41 296.891 570.953C308.171 576.195 327.038 578.577 338.988 574.291C352.526 569.437 357.571 556.072 356.045 542.384C355.224 535.011 353.002 529.718 348.651 524.692C355.387 527.239 362.709 532.964 372.673 530.171C382.233 527.493 393.628 518.202 399.583 510.582C405.434 503.096 416.1 487.373 408.852 478.128C400.842 467.912 373.743 467.098 357.643 467.843C342.927 468.525 331.566 471.146 317.734 474.439C313.835 475.367 308.688 476.745 304.639 477.074C304.574 475.37 304.246 474.831 303.92 473.404C307.343 471.973 310.481 469.991 315.628 467.863C322.333 465.09 334.372 460.71 341.449 459.291C345.69 458.441 353.671 458.906 358.38 458.906C381.451 458.906 404.522 458.906 427.592 458.906V457.968C404.522 457.968 381.451 457.968 358.38 457.968C342.468 457.968 343.28 456.986 327.955 462.245C320.966 464.642 310.158 468.731 303.648 472.544C300.659 469.969 301.558 470.516 297.022 469.164C296.141 468.459 298.682 436.271 298.824 430.273C298.883 427.762 299.022 422.82 298.684 420.347C298.477 418.829 298.391 418.282 296.92 418.299C293.776 422.102 295.435 453.957 295.357 462.735C295.339 464.752 295.792 467.377 295.585 469.149C294.494 469.755 293.872 469.507 292.925 470.46C291.822 471.569 291.874 471.63 290.582 472.489C291.522 460.121 290.534 453.579 286.879 442.825C283.991 434.327 280.247 426.822 276.519 419.195C273.61 413.241 262.357 391.71 258.686 386.037C256.772 383.08 253.529 378.961 250.202 377.533C242.438 374.2 232.587 382.779 228.453 388.36C222.062 396.986 216.145 413.609 214.289 425.192C213.479 430.248 212.627 435.826 215.483 439.587C218.825 443.986 224.195 448.129 228.818 451.608C229.729 452.293 233.222 454.64 233.656 455.234C225.281 455.142 217.579 457.315 210.892 460.28C194.307 467.634 190.568 480.037 196.412 496.517C200.3 507.481 210.561 523.206 221.635 527.189C226.637 528.988 228.889 527.628 233.23 526.181C248.783 520.995 264.374 517.035 273.342 503.576C274.255 502.205 275.24 500.766 276.031 499.346C275.928 503.174 273.412 507.974 271.831 510.701C269.828 514.157 267.811 516.881 265.799 520.431C264.13 523.376 255.407 539.779 257.593 543.346C259.269 544.602 262.635 537.709 263.212 536.581C268.268 526.691 270.688 521.697 275.217 510.892C279.732 500.118 282.289 493.207 283.714 481.721C283.841 480.704 285.489 478.707 286.207 478.011C287.453 476.804 288.326 476.009 289.382 474.941C289.465 478.851 287.036 493.005 286.25 497.579C285.625 501.218 284.966 504.857 284.318 508.448C283.898 510.78 283.452 511.364 282.381 512.92C276.484 521.486 271.858 529.303 264.988 537.636C264.492 538.237 263.947 538.921 263.528 539.37C261.503 541.548 259.504 544.28 256.886 545.773C241.583 554.495 188.712 558.233 167.433 559.534Z" fill="white"/>
<path d="M167.432 559.862C87.1807 559.838 13.0429 633.553 1 686" stroke="white" stroke-opacity="0.74" stroke-width="2"/>
<path d="M369.778 458.205C394.863 458.8 453.255 453.827 486.153 429.177C527.274 398.364 524.704 317.48 474.587 240.448C424.469 163.416 479.958 91.572 546.55 96.6545C597.6 100.551 566.82 142.121 539.591 123.418C512.362 104.715 524.579 71.5604 546.55 62.209C568.522 52.8577 613.621 31.6045 618.726 21.403C622.81 13.2418 624.399 4.40051 624.682 1" stroke="white" stroke-opacity="0.74" stroke-width="1.5"/>
</svg>
